<svg width="22" height="23" viewBox="0 0 22 23" fill="none" xmlns="http://www.w3.org/2000/svg">
<path fill-rule="evenodd" clip-rule="evenodd" d="M11 21.1016C16.5228 21.1016 21 16.6244 21 11.1016C21 5.57871 16.5228 1.10156 11 1.10156C5.47715 1.10156 1 5.57871 1 11.1016C1 16.6244 5.47715 21.1016 11 21.1016ZM11 22.1016C17.0751 22.1016 22 17.1767 22 11.1016C22 5.02643 17.0751 0.101562 11 0.101562C4.92487 0.101562 0 5.02643 0 11.1016C0 17.1767 4.92487 22.1016 11 22.1016Z" fill="black"/>
<path fill-rule="evenodd" clip-rule="evenodd" d="M14.1716 7.5659L17.3536 10.7479C17.5488 10.9431 17.5488 11.2597 17.3536 11.455L14.1716 14.637C13.9763 14.8322 13.6597 14.8322 13.4645 14.637C13.2692 14.4417 13.2692 14.1251 13.4645 13.9299L15.7929 11.6014L5 11.6014V10.6014L15.7929 10.6014L13.4645 8.273C13.2692 8.07774 13.2692 7.76116 13.4645 7.5659C13.6597 7.37064 13.9763 7.37064 14.1716 7.5659Z" fill="black"/>
</svg>
