<?xml version="1.0" encoding="UTF-8" standalone="no"?>
<svg
   width="18"
   height="18"
   viewBox="0 0 18 18"
   fill="none"
   version="1.1"
   id="svg51"
   sodipodi:docname="attention.svg"
   inkscape:version="1.1.1 (3bf5ae0d25, 2021-09-20)"
   xmlns:inkscape="http://www.inkscape.org/namespaces/inkscape"
   xmlns:sodipodi="http://sodipodi.sourceforge.net/DTD/sodipodi-0.dtd"
   xmlns="http://www.w3.org/2000/svg"
   xmlns:svg="http://www.w3.org/2000/svg">
  <defs
     id="defs55" />
  <sodipodi:namedview
     id="namedview53"
     pagecolor="#ffffff"
     bordercolor="#666666"
     borderopacity="1.0"
     inkscape:pageshadow="2"
     inkscape:pageopacity="0.0"
     inkscape:pagecheckerboard="0"
     showgrid="false"
     inkscape:zoom="45.5"
     inkscape:cx="9"
     inkscape:cy="9"
     inkscape:window-width="1920"
     inkscape:window-height="1027"
     inkscape:window-x="-8"
     inkscape:window-y="-8"
     inkscape:window-maximized="1"
     inkscape:current-layer="svg51" />
  <path
     d="M8.5 6.47329V5.5H9.5V6.47329H8.5ZM8.5 12.5V7.32192H9.5V12.5H8.5Z"
     fill="black"
     id="path47" />
  <path
     style="color:#000000;fill:#000000;-inkscape-stroke:none"
     d="M 9,0 C 4.0226536,0 0,4.0226536 0,9 c 0,4.977346 4.0226536,9 9,9 4.977346,0 9,-4.022654 9,-9 C 18,4.0226536 13.977346,0 9,0 Z m 0,1 c 4.440644,0 8,3.5593558 8,8 0,4.440644 -3.559356,8 -8,8 C 4.5593558,17 1,13.440644 1,9 1,4.5593558 4.5593558,1 9,1 Z"
     id="rect49" />
</svg>
