<svg width="22" height="28" viewBox="0 0 22 28" fill="none" xmlns="http://www.w3.org/2000/svg">
<path fill-rule="evenodd" clip-rule="evenodd" d="M7.08301 6.04358C7.09103 3.76157 8.94048 1.9165 11.2219 1.9165C13.504 1.9165 15.3568 3.76506 15.3608 6.04587V6.13867H7.08301V6.04358ZM5.58301 6.13867V6.03988C5.59308 2.93199 8.11238 0.416504 11.2219 0.416504C14.3309 0.416504 16.8557 2.93464 16.8608 6.044L16.8608 6.04522V6.13867H20.2222C21.1887 6.13867 21.9722 6.92217 21.9722 7.88867V25.8887C21.9722 26.8552 21.1887 27.6387 20.2222 27.6387H2.22217C1.25567 27.6387 0.472168 26.8552 0.472168 25.8887V7.88867C0.472168 6.92217 1.25567 6.13867 2.22217 6.13867H5.58301Z" fill="black"/>
</svg>
