<svg width="31" height="31" viewBox="0 0 31 31" fill="none" xmlns="http://www.w3.org/2000/svg">
<path d="M15 10.9466V9H16.5V10.9466H15ZM15 23V12.6438H16.5V23H15Z" fill="black"/>
<path fill-rule="evenodd" clip-rule="evenodd" d="M15.5 29.5C23.232 29.5 29.5 23.232 29.5 15.5C29.5 7.76801 23.232 1.5 15.5 1.5C7.76801 1.5 1.5 7.76801 1.5 15.5C1.5 23.232 7.76801 29.5 15.5 29.5ZM15.5 31C24.0604 31 31 24.0604 31 15.5C31 6.93959 24.0604 0 15.5 0C6.93959 0 0 6.93959 0 15.5C0 24.0604 6.93959 31 15.5 31Z" fill="black"/>
</svg>
