<svg width="36" height="26" viewBox="0 0 36 26" fill="none" xmlns="http://www.w3.org/2000/svg">
<path fill-rule="evenodd" clip-rule="evenodd" d="M29.1233 7.25C28.7553 10.1175 26.3053 12.3334 23.3377 12.3334C20.3702 12.3334 17.9202 10.1175 17.5522 7.25H0.00439453V5.75H17.5522C17.9202 2.88261 20.3702 0.666748 23.3377 0.666748C26.3052 0.666748 28.7552 2.88261 29.1233 5.75H35.0044V7.25H29.1233ZM27.6711 6.50008C27.6711 8.89331 25.731 10.8334 23.3377 10.8334C20.9445 10.8334 19.0044 8.89331 19.0044 6.50008C19.0044 4.10685 20.9445 2.16675 23.3377 2.16675C25.731 2.16675 27.6711 4.10685 27.6711 6.50008Z" fill="#404040"/>
<path fill-rule="evenodd" clip-rule="evenodd" d="M17.4561 20.0833C17.0881 22.9507 14.6381 25.1667 11.6705 25.1667C8.70293 25.1667 6.25292 22.9507 5.88491 20.0833H0.00439453V18.5833H5.88494C6.25301 15.7159 8.70298 13.5 11.6705 13.5C14.638 13.5 17.088 15.7159 17.456 18.5833H35.0044V20.0833H17.4561ZM16.0038 19.3333C16.0038 21.7266 14.0637 23.6667 11.6705 23.6667C9.27726 23.6667 7.33716 21.7266 7.33716 19.3333C7.33716 16.9401 9.27726 15 11.6705 15C14.0637 15 16.0038 16.9401 16.0038 19.3333Z" fill="#404040"/>
</svg>
