<svg width="19" height="19" fill="none" xmlns="http://www.w3.org/2000/svg"><path d="M4.955 2.478a2.477 2.477 0 1 1-4.955 0 2.477 2.477 0 0 1 4.955 0Zm0 13.214a2.477 2.477 0 1 1-4.955 0 2.477 2.477 0 0 1 4.955 0Zm0-6.609a2.477 2.477 0 1 1-4.955 0 2.477 2.477 0 0 1 4.955 0Zm6.605-6.606a2.477 2.477 0 1 1-4.955 0 2.477 2.477 0 0 1 4.955 0Zm.004 13.215a2.477 2.477 0 1 1-4.955 0 2.477 2.477 0 0 1 4.955 0Zm0-6.609a2.477 2.477 0 1 1-4.955 0 2.477 2.477 0 0 1 4.955 0Zm6.606-6.606a2.477 2.477 0 1 1-4.955 0 2.477 2.477 0 0 1 4.955 0Zm-.004 13.215a2.477 2.477 0 1 1-4.955 0 2.477 2.477 0 0 1 4.955 0Zm0-6.609a2.477 2.477 0 1 1-4.955 0 2.477 2.477 0 0 1 4.955 0Z" fill="#fff"/></svg>