<svg width="16" height="17" viewBox="0 0 16 17" fill="none" xmlns="http://www.w3.org/2000/svg">
<path fill-rule="evenodd" clip-rule="evenodd" d="M3.73468 0.659631C3.2277 -0.0974177 2.39603 -0.224171 1.68764 0.390497C0.88549 1.08504 0.845556 2.10254 1.23795 3.00544C1.38032 3.33361 1.57652 3.64268 1.8005 3.90661L0 5.90515C0 11.616 1.91509 13.1214 7.6864 16.0541C13.2181 13.3767 15.3659 11.3208 15.3659 6.15692L13.5411 3.93612C13.7737 3.66525 13.9786 3.3475 14.1279 3.00544C14.5203 2.10254 14.4804 1.08504 13.6782 0.390497C12.9698 -0.224171 12.1382 -0.0974177 11.6312 0.659631L11.0391 1.53822H4.32675L3.73468 0.659631ZM14.3622 6.5106L12.2351 3.92187L12.7825 3.28455C12.9542 3.08465 13.1041 2.85109 13.2111 2.60603C13.4915 1.96033 13.3901 1.46377 13.0236 1.14649L13.0228 1.1458C12.8436 0.990314 12.7383 0.998204 12.7154 1.00135C12.6902 1.00481 12.5882 1.02772 12.4621 1.21607L12.4605 1.21847L11.5711 2.53822H3.79476L2.90379 1.21607C2.77766 1.02772 2.67565 1.00481 2.65045 1.00135C2.6276 0.998204 2.52221 0.990314 2.34301 1.1458L2.34222 1.14649C1.97562 1.46391 1.87429 1.96075 2.15508 2.60686C2.25649 2.84061 2.39951 3.06697 2.56295 3.25956L3.12875 3.92628L1.00308 6.28575C1.04466 8.79575 1.50774 10.2409 2.45077 11.3856C3.44321 12.5902 5.04801 13.5748 7.69604 14.9361C10.1939 13.6992 11.8079 12.6437 12.8281 11.4029C13.814 10.2036 14.3151 8.7405 14.3622 6.5106Z" fill="#C4C4C4"/>
</svg>
