<svg width="26" height="26" viewBox="0 0 26 26" fill="none" xmlns="http://www.w3.org/2000/svg">
<path d="M0 1C0 0.447715 0.447715 0 1 0H25C25.5523 0 26 0.447715 26 1V5C26 5.55228 25.5523 6 25 6H1C0.447716 6 0 5.55228 0 5V1Z" fill="#DEDBDB"/>
<path d="M0 21C0 20.4477 0.447715 20 1 20H25C25.5523 20 26 20.4477 26 21V25C26 25.5523 25.5523 26 25 26H1C0.447716 26 0 25.5523 0 25V21Z" fill="#DEDBDB"/>
<path d="M0 11C0 10.4477 0.447715 10 1 10H25C25.5523 10 26 10.4477 26 11V15C26 15.5523 25.5523 16 25 16H1C0.447716 16 0 15.5523 0 15V11Z" fill="#DEDBDB"/>
</svg>
