<svg width="26" height="26" viewBox="0 0 26 26" fill="none" xmlns="http://www.w3.org/2000/svg">
<path d="M0 1C0 0.447716 0.447715 0 1 0H9.57231C10.1246 0 10.5723 0.447715 10.5723 1V9.61579C10.5723 10.1681 10.1246 10.6158 9.57231 10.6158H1C0.447717 10.6158 0 10.1681 0 9.61579V1Z" fill="#404040"/>
<path d="M0.000530243 16.3834C0.000530243 15.8312 0.448246 15.3834 1.00053 15.3834H9.57284C10.1251 15.3834 10.5728 15.8312 10.5728 16.3834V24.9992C10.5728 25.5515 10.1251 25.9992 9.57284 25.9992H1.00053C0.448247 25.9992 0.000530243 25.5515 0.000530243 24.9992V16.3834Z" fill="#404040"/>
<path d="M15.4268 16.3834C15.4268 15.8312 15.8745 15.3834 16.4268 15.3834H24.9991C25.5514 15.3834 25.9991 15.8312 25.9991 16.3834V24.9992C25.9991 25.5515 25.5514 25.9992 24.9991 25.9992H16.4268C15.8745 25.9992 15.4268 25.5515 15.4268 24.9992V16.3834Z" fill="#404040"/>
<path d="M15.4268 1.00055C15.4268 0.448269 15.8745 0.000552324 16.4268 0.000552324H24.9991C25.5514 0.000552324 25.9991 0.448268 25.9991 1.00055V9.61634C25.9991 10.1686 25.5514 10.6163 24.9991 10.6163H16.4268C15.8745 10.6163 15.4268 10.1686 15.4268 9.61635V1.00055Z" fill="#404040"/>
</svg>
