<svg width="18" height="19" viewBox="0 0 18 19" fill="none" xmlns="http://www.w3.org/2000/svg">
<path fill-rule="evenodd" clip-rule="evenodd" d="M12.5038 0.900929C13.2877 0.515454 14.2252 0.628409 14.8951 1.18905L15.0693 1.3348C16.0256 2.13517 17.0605 3.71447 17.1859 5.89107C17.312 8.07875 16.5175 10.8118 13.9168 13.9194C11.3161 17.027 8.76578 18.2907 6.59012 18.552C4.42548 18.8121 2.68854 18.0718 1.73217 17.2714L1.55802 17.1256C0.888102 16.565 0.611722 15.6621 0.853031 14.8225C1.27792 13.3443 2.30735 12.1142 3.68762 11.4355C4.47153 11.05 5.40901 11.1629 6.07893 11.7236L6.25308 11.8693C6.26375 11.8782 6.2748 11.8875 6.28625 11.8971C6.56408 12.1305 7.07232 12.5575 7.7605 12.6556C8.42272 12.75 9.39346 12.552 10.5836 11.1299C11.7737 9.70781 11.7976 8.71737 11.5879 8.08215C11.3701 7.42203 10.8603 6.99697 10.5816 6.76461C10.5701 6.75504 10.559 6.74579 10.5484 6.73687L10.3742 6.59112C9.70429 6.03048 9.42791 5.12757 9.66922 4.288C10.0941 2.80973 11.1235 1.57965 12.5038 0.900929ZM14.2533 1.95593C13.8868 1.64921 13.3739 1.58742 12.9451 1.7983C11.8179 2.35256 10.9773 3.35706 10.6303 4.56423C10.4983 5.02355 10.6495 5.51752 11.016 5.82424L11.1901 5.96999C11.2034 5.98112 11.2183 5.99343 11.2346 6.00691C11.5172 6.2406 12.227 6.82758 12.5376 7.76877C12.8833 8.81637 12.6994 10.1598 11.3505 11.7717C10.0015 13.3835 8.71148 13.8013 7.61936 13.6456C6.63817 13.5057 5.93531 12.9105 5.65548 12.6735C5.63933 12.6598 5.62459 12.6473 5.61129 12.6362L5.43714 12.4905C5.07064 12.1837 4.55776 12.1219 4.12889 12.3328C3.00174 12.8871 2.16109 13.8916 1.81412 15.0988C1.6821 15.5581 1.83331 16.052 2.19981 16.3588L2.37396 16.5045C3.12846 17.1359 4.5926 17.7848 6.47084 17.5592C8.33805 17.3349 10.6725 16.2379 13.1499 13.2776C15.6273 10.3173 16.2958 7.82613 16.1876 5.94861C16.0787 4.05999 15.182 2.73311 14.4275 2.10168L14.2533 1.95593Z" fill="black"/>
</svg>
