<svg width="101" height="126" viewBox="0 0 101 126" fill="none" xmlns="http://www.w3.org/2000/svg">
<path fill-rule="evenodd" clip-rule="evenodd" d="M94.5025 22.8706L78.9489 39.1796L81.8436 41.9402L100.001 22.9006L98.7337 21.5219C72.5339 -6.97309 27.5701 -6.97316 1.37035 21.5219L0.111328 22.8912L18.0242 41.9308L20.9376 39.1899L5.59255 22.8798C29.9352 -2.08937 70.1559 -2.09238 94.5025 22.8706Z" fill="black"/>
<path d="M49.9123 27.3397C77.1528 27.3265 99.2458 49.3999 99.2458 76.6272C99.2458 103.841 77.1199 125.915 49.8861 125.888C22.6784 125.862 0.657611 103.73 0.697004 76.4565C0.736397 49.3802 22.8098 27.3528 49.9123 27.3397ZM5.51611 78.8792C6.1464 101.458 26.0466 123.072 53.136 121.194C66.3524 120.275 77.1659 114.34 85.3268 103.868C90.9863 96.5996 94.0853 88.3467 94.4726 78.8792C91.6035 78.8792 89.0626 78.8792 86.5218 78.8792C84.7491 78.8792 83.8627 78.0125 83.7577 76.2267C83.6658 74.6838 83.5016 73.1475 83.2981 71.6111C80.7901 52.6367 61.5399 39.3021 42.8741 43.5959C27.596 47.1151 17.0912 59.5765 16.2114 75.2222C16.0275 78.5443 15.6861 78.8595 12.2261 78.8726C10.0529 78.8857 7.88627 78.8792 5.51611 78.8792ZM94.3216 74.1979C94.3282 55.0331 77.4088 31.5941 49.4002 31.9487C21.431 32.3032 5.47672 55.9851 5.63429 74.1914C7.59082 74.1914 9.54079 74.1914 11.4776 74.1914C13.8872 51.6453 30.997 39.591 46.8396 38.3566C55.5587 37.6738 63.6803 39.6829 70.9746 44.548C81.5517 51.6059 87.093 61.7431 88.3667 74.1979C90.5662 74.1979 92.4439 74.1979 94.3216 74.1979Z" fill="black"/>
<path d="M63.1682 92.1936C63.1682 95.3779 63.2076 98.5687 63.1616 101.753C63.05 109.165 57.2461 114.95 49.9649 114.95C42.6837 114.95 36.8601 109.159 36.7878 101.746C36.7287 95.194 36.7287 88.635 36.7878 82.0826C36.8601 74.6701 42.6837 68.8925 49.9714 68.8925C57.2526 68.8925 63.05 74.6767 63.1551 82.0892C63.2076 85.4573 63.1682 88.8254 63.1682 92.1936ZM41.3049 91.7734C41.3049 94.9577 41.2655 98.142 41.3115 101.32C41.3968 106.52 45.0473 110.36 49.8861 110.406C54.7052 110.459 58.546 106.612 58.6117 101.471C58.6905 95.1087 58.6905 88.7401 58.6117 82.3715C58.546 77.2176 54.7315 73.3833 49.9058 73.4227C45.067 73.4686 41.4034 77.3029 41.3181 82.4963C41.2655 85.5886 41.3049 88.681 41.3049 91.7734Z" fill="black"/>
<path fill-rule="evenodd" clip-rule="evenodd" d="M63.6616 101.761C63.5459 109.44 57.5258 115.45 49.9649 115.45C42.4051 115.45 36.3627 109.434 36.2879 101.751C36.2287 95.1959 36.2287 88.6335 36.2879 82.0781C36.3627 74.395 42.4059 68.3925 49.9714 68.3925C57.5326 68.3925 63.5462 74.4029 63.655 82.0821C63.6918 84.4446 63.6835 86.8098 63.6753 89.1695C63.6717 90.1787 63.6682 91.187 63.6682 92.1936C63.6682 93.1946 63.6721 94.1984 63.676 95.2034C63.6845 97.3868 63.6931 99.5769 63.6616 101.761ZM63.1551 82.0892C63.05 74.6767 57.2526 68.8925 49.9714 68.8925C42.6837 68.8925 36.8601 74.6701 36.7878 82.0826C36.7287 88.635 36.7287 95.194 36.7878 101.746C36.8601 109.159 42.6837 114.95 49.9649 114.95C57.2461 114.95 63.05 109.165 63.1616 101.753C63.1931 99.574 63.1846 97.392 63.176 95.2111C63.1721 94.2048 63.1682 93.1989 63.1682 92.1936C63.1682 91.1832 63.1717 90.1728 63.1753 89.1623C63.1835 86.8046 63.1918 84.4469 63.1551 82.0892ZM49.8915 109.906C54.4159 109.956 58.0494 106.349 58.1117 101.464C58.1905 95.1065 58.1905 88.7422 58.1117 82.3779C58.0493 77.4795 54.4412 73.8859 49.9103 73.9227C45.3698 73.9659 41.8993 77.5543 41.818 82.5045C41.7813 84.6637 41.7896 86.8202 41.7978 88.9825C41.8014 89.9114 41.8049 90.8415 41.8049 91.7734C41.8049 92.7834 41.801 93.7914 41.7971 94.7981C41.7885 96.9735 41.7801 99.1426 41.8114 101.312C41.893 106.27 45.3527 109.863 49.8915 109.906ZM49.9058 73.4227C54.7315 73.3833 58.546 77.2176 58.6117 82.3715C58.6905 88.7401 58.6905 95.1087 58.6117 101.471C58.546 106.612 54.7052 110.459 49.8861 110.406C45.0473 110.36 41.3968 106.52 41.3115 101.32C41.2801 99.1456 41.2886 96.9685 41.2971 94.7904C41.301 93.7849 41.3049 92.7791 41.3049 91.7734C41.3049 90.8457 41.3014 89.918 41.2978 88.9903C41.2896 86.8256 41.2813 84.6609 41.3181 82.4963C41.4034 77.3029 45.067 73.4686 49.9058 73.4227Z" fill="black"/>
<path d="M52.2229 81.9445C52.1179 83.3101 51.4482 84.2096 50.076 84.2752C48.7103 84.3409 47.8371 83.5399 47.7649 82.1742C47.6992 80.8086 48.4871 79.942 49.8593 79.8566C51.2578 79.7844 51.9668 80.651 52.2229 81.9445Z" fill="black"/>
</svg>
