<svg width="82" height="116" viewBox="0 0 82 116" fill="none" xmlns="http://www.w3.org/2000/svg">
<path d="M28.8125 101.588H53.5996L49.9584 113.139H32.4537L28.8125 101.588Z" fill="white" stroke="black" stroke-width="4" stroke-linecap="round" stroke-linejoin="round"/>
<path d="M79.5768 42.0498C79.5768 63.707 62.3978 90.9617 41.2064 90.9617C20.015 90.9617 2.83594 63.707 2.83594 42.0498C2.83594 20.3926 20.015 2.83594 41.2064 2.83594C62.3978 2.83594 79.5768 20.3926 79.5768 42.0498Z" fill="white" stroke="black" stroke-width="4" stroke-linecap="round" stroke-linejoin="round"/>
<path d="M24.084 59.5303V30.2552C24.084 29.3356 25.2205 28.9035 25.8314 29.5908L40.3528 45.927C40.7506 46.3745 41.4498 46.3745 41.8476 45.927L56.3689 29.5908C56.9798 28.9035 58.1163 29.3356 58.1163 30.2552V59.5303" stroke="black" stroke-width="5" stroke-linecap="round"/>
<rect x="17.5664" y="82.5771" width="47.2763" height="22.0313" rx="4.85495" fill="white" stroke="black" stroke-width="4" stroke-linecap="round" stroke-linejoin="round"/>
</svg>
