<svg width="137" height="109" viewBox="0 0 137 109" fill="none" xmlns="http://www.w3.org/2000/svg">
<path fill-rule="evenodd" clip-rule="evenodd" d="M35.4453 0.370117H103.441C106.755 0.370117 109.441 3.0564 109.441 6.37012V65.4821C109.441 68.7958 106.755 71.4821 103.441 71.4821H89.9592V102.852C89.9592 106.166 87.2729 108.852 83.9592 108.852H6.41406C3.10035 108.852 0.414062 106.166 0.414062 102.852V57.1074C0.414062 53.7937 3.10035 51.1074 6.41406 51.1074H29.4453V6.37012C29.4453 3.0564 32.1316 0.370117 35.4453 0.370117ZM103.441 4.37012C104.546 4.37012 105.441 5.26555 105.441 6.37012V65.4821C105.441 66.5866 104.546 67.4821 103.441 67.4821H87.9592C86.8546 67.4821 85.9592 68.3775 85.9592 69.4821V102.852C85.9592 103.957 85.0637 104.852 83.9592 104.852H6.41406C5.30949 104.852 4.41406 103.957 4.41406 102.852V57.1074C4.41406 56.0029 5.30949 55.1074 6.41406 55.1074H31.4453C32.5499 55.1074 33.4453 54.212 33.4453 53.1074V6.37012C33.4453 5.26555 34.3407 4.37012 35.4453 4.37012H103.441Z" fill="black"/>
<path d="M60.2344 42.377C60.2344 41.2724 61.1298 40.377 62.2344 40.377H130.59C131.695 40.377 132.59 41.2724 132.59 42.377V87.9271C132.59 89.0317 131.695 89.9271 130.59 89.9271H62.2344C61.1298 89.9271 60.2344 89.0317 60.2344 87.9271V42.377Z" fill="white"/>
<path fill-rule="evenodd" clip-rule="evenodd" d="M62.2344 36.377H130.59C133.904 36.377 136.59 39.0633 136.59 42.377V87.9271C136.59 91.2408 133.904 93.9271 130.59 93.9271H62.2344C58.9207 93.9271 56.2344 91.2408 56.2344 87.9271V42.377C56.2344 39.0632 58.9207 36.377 62.2344 36.377ZM62.2344 40.377C61.1298 40.377 60.2344 41.2724 60.2344 42.377V87.9271C60.2344 89.0317 61.1298 89.9271 62.2344 89.9271H130.59C131.695 89.9271 132.59 89.0317 132.59 87.9271V42.377C132.59 41.2724 131.695 40.377 130.59 40.377H62.2344Z" fill="black"/>
</svg>
