<svg width="132" height="118" viewBox="0 0 132 118" fill="none" xmlns="http://www.w3.org/2000/svg">
<path fill-rule="evenodd" clip-rule="evenodd" d="M0.46875 5.12304C0.46875 2.36162 2.70733 0.123047 5.46875 0.123047H101.64C104.401 0.123047 106.64 2.36163 106.64 5.12305V101.294C106.64 104.055 104.401 106.294 101.64 106.294H5.46875C2.70732 106.294 0.46875 104.055 0.46875 101.294V5.12304ZM5.46875 4.12305C4.91646 4.12305 4.46875 4.57076 4.46875 5.12304V51.757L51.922 4.12305H5.46875ZM57.5681 4.12305L48.3287 13.3976L69.4331 34.502L99.8121 4.12305H57.5681ZM102.64 6.95244L40.7989 68.7931L61.738 89.7321L102.64 48.6748V6.95244ZM102.64 54.3424L54.87 102.294H101.64C102.192 102.294 102.64 101.846 102.64 101.294V54.3424ZM49.2239 102.294L58.9149 92.5659L37.9705 71.6215L7.29814 102.294H49.2239ZM4.46875 99.4664L66.6047 37.3305L45.5056 16.2314L4.46875 57.4246V99.4664Z" fill="black"/>
<path d="M96.6969 51.9283C96.7232 51.7556 96.9666 51.7412 97.0132 51.9096L97.5421 53.8204C101.511 68.1607 113.026 79.1688 127.53 82.4895C127.716 82.5322 127.716 82.7978 127.53 82.8405C113.026 86.1611 101.511 97.1692 97.5421 111.51L97.0132 113.42C96.9666 113.589 96.7232 113.574 96.6969 113.402C94.3884 98.2836 82.8858 86.2155 67.8959 83.1846L66.1658 82.8348C65.9806 82.7973 65.9806 82.5326 66.1658 82.4951L67.8959 82.1453C82.8858 79.1145 94.3884 67.0463 96.6969 51.9283Z" fill="white"/>
<path fill-rule="evenodd" clip-rule="evenodd" d="M95.92 55.6846C95.6444 56.7355 95.3235 57.7679 94.9592 58.7796C91.3505 68.8027 83.4971 76.7871 73.4857 80.5434C72.3205 80.9806 71.126 81.3606 69.9056 81.6798C69.3148 81.8343 68.7178 81.9746 68.1152 82.1003C68.0422 82.1155 67.9691 82.1305 67.8959 82.1453L66.1658 82.4951C65.9806 82.5326 65.9806 82.7973 66.1658 82.8348L67.8959 83.1846C67.9691 83.1994 68.0422 83.2144 68.1152 83.2296C68.7178 83.3553 69.3148 83.4956 69.9057 83.6502C71.1261 83.9694 72.3205 84.3493 73.4857 84.7865C83.4971 88.5428 91.3505 96.5272 94.9592 106.55C95.3235 107.562 95.6444 108.594 95.92 109.645C96.0515 110.146 96.1726 110.652 96.2831 111.161C96.4384 111.876 96.5728 112.599 96.6858 113.33C96.6895 113.354 96.6932 113.378 96.6969 113.402C96.7232 113.574 96.9666 113.589 97.0132 113.42L97.5421 111.51C97.7078 110.911 97.8867 110.318 98.0784 109.731C98.419 108.688 98.8 107.665 99.2197 106.663C103.383 96.7216 111.347 88.8581 121.295 84.8085C122.134 84.4669 122.987 84.1525 123.853 83.8663C125.027 83.4782 126.226 83.1419 127.445 82.86C127.473 82.8535 127.502 82.8469 127.53 82.8405C127.716 82.7978 127.716 82.5322 127.53 82.4895C127.502 82.483 127.473 82.4765 127.445 82.4699C126.226 82.188 125.027 81.8517 123.853 81.4636C122.987 81.1774 122.134 80.863 121.295 80.5214C111.347 76.4718 103.383 68.6084 99.2197 58.6669C98.8 57.6648 98.419 56.6416 98.0784 55.5991C97.8867 55.0122 97.7078 54.4192 97.5421 53.8204L97.0132 51.9096C96.9666 51.7412 96.7232 51.7556 96.6969 51.9283C96.6932 51.9523 96.6895 51.9762 96.6858 52.0002C96.5728 52.7305 96.4384 53.4536 96.2831 54.1689C96.1726 54.6782 96.0515 55.1835 95.92 55.6846ZM100.868 50.8426L101.397 52.7534C104.974 65.6771 115.351 75.5978 128.423 78.5903C132.752 79.5815 132.752 85.7483 128.423 86.7396C115.351 89.7322 104.974 99.6528 101.397 112.577L100.868 114.487C99.6712 118.812 93.4201 118.442 92.7427 114.005C90.6876 100.547 80.4477 89.8034 67.1032 87.1053L65.3731 86.7554C60.9116 85.8534 60.9114 79.4766 65.3731 78.5745L67.1032 78.2247C80.4477 75.5265 90.6876 64.7831 92.7427 51.3246C93.4201 46.8882 99.6712 46.5176 100.868 50.8426Z" fill="black"/>
</svg>
