<svg width="137" height="137" viewBox="0 0 137 137" fill="none" xmlns="http://www.w3.org/2000/svg">
<path d="M105.827 5.23516C112.023 6.29617 117.96 9.21663 122.745 14.0018C127.53 18.7871 130.451 24.7241 131.512 30.9195L135.454 30.2443C134.258 23.2599 130.963 16.5628 125.573 11.1734C120.184 5.78409 113.487 2.48869 106.502 1.29256L105.827 5.23516Z" fill="black"/>
<path d="M13.4796 14.0021C8.69436 18.7874 5.7739 24.7244 4.71289 30.9198L0.770288 30.2446C1.96642 23.2602 5.26182 16.5631 10.6512 11.1737C16.0405 5.78438 22.7377 2.48898 29.722 1.29286L30.3972 5.23546C24.2018 6.29647 18.2648 9.21692 13.4796 14.0021Z" fill="black"/>
<path d="M68.5398 75.7388C69.8913 75.6741 70.5509 74.7882 70.6543 73.4432C70.4021 72.1693 69.7038 71.3157 68.3264 71.3868C66.9749 71.4709 66.1989 72.3245 66.2636 73.6695C66.3347 75.0145 67.1948 75.8034 68.5398 75.7388Z" fill="black"/>
<path fill-rule="evenodd" clip-rule="evenodd" d="M81.4439 86.5092V86.511C81.4523 88.6584 81.4607 90.807 81.4297 92.9525C81.3198 100.253 75.6034 105.95 68.4321 105.95C61.2608 105.95 55.525 100.247 55.4539 92.946C55.3957 86.4925 55.3957 80.0325 55.4539 73.5789C55.525 66.2783 61.2608 60.5878 68.4386 60.5878C75.6099 60.5878 81.3198 66.2847 81.4232 73.5854C81.4595 75.9076 81.4513 78.2297 81.4432 80.5519C81.4397 81.547 81.4362 82.5422 81.4362 83.5373C81.4362 84.5272 81.4401 85.5184 81.4439 86.5092ZM59.9028 83.1235C59.9028 84.114 59.899 85.1046 59.8951 86.0949C59.8867 88.2402 59.8783 90.3845 59.9093 92.5257C59.9934 97.6472 63.5887 101.43 68.3545 101.475C73.1009 101.527 76.8838 97.7377 76.9484 92.6744C77.026 86.4084 77.026 80.1359 76.9484 73.8635C76.8838 68.7873 73.1268 65.0109 68.3739 65.0497C63.6081 65.0949 59.9998 68.8713 59.9158 73.9863C59.8795 76.1183 59.8877 78.2504 59.8958 80.3824C59.8993 81.2961 59.9028 82.2098 59.9028 83.1235Z" fill="black"/>
<path fill-rule="evenodd" clip-rule="evenodd" d="M68.3791 19.662C95.2085 19.6491 116.968 41.3894 116.968 68.2058C116.968 95.0094 95.1761 116.75 68.3532 116.724C41.5561 116.698 19.8676 94.8994 19.9064 68.0377C19.9452 41.37 41.6855 19.6749 68.3791 19.662ZM24.6528 70.4238C25.2736 92.662 44.8735 113.95 71.5541 112.1C84.5711 111.195 95.2214 105.349 103.259 95.0352C108.833 87.8768 111.886 79.7485 112.267 70.4238H104.436C102.69 70.4238 101.817 69.5703 101.714 67.8114C101.623 66.2918 101.462 64.7786 101.261 63.2654C98.7909 44.5773 79.8312 31.4439 61.447 35.673C46.3995 39.139 36.0532 51.4124 35.1867 66.822C35.0056 70.094 34.6693 70.4044 31.2615 70.4174C29.6652 70.427 28.0724 70.4259 26.3975 70.4247C25.8266 70.4242 25.2462 70.4238 24.6528 70.4238ZM112.118 65.8132C112.125 46.9376 95.4607 23.8523 67.8747 24.2015C40.3275 24.5507 24.614 47.8752 24.7692 65.8068H30.5243C32.8975 43.6009 49.7492 31.7284 65.3528 30.5128C73.9402 29.8402 81.9393 31.819 89.1235 36.6106C99.541 43.5621 104.999 53.5463 106.253 65.8132H112.118Z" fill="black"/>
<path d="M131.51 106.35C130.449 112.546 127.528 118.483 122.743 123.268C117.958 128.053 112.021 130.974 105.826 132.035L106.501 135.977C113.485 134.781 120.182 131.486 125.572 126.097C130.961 120.707 134.256 114.01 135.453 107.026L131.51 106.35Z" fill="black"/>
<path d="M19.6638 20.188C16.5951 23.2567 14.7233 27.0623 14.0431 31.0342L10.1005 30.359C10.9158 25.5981 13.1626 21.0324 16.8354 17.3596C20.5082 13.6868 25.0739 11.44 29.8348 10.6247L30.51 14.5673C26.5381 15.2475 22.7325 17.1193 19.6638 20.188Z" fill="black"/>
<path d="M122.18 106.236C121.5 110.208 119.628 114.014 116.559 117.082C113.49 120.151 109.685 122.023 105.713 122.703L106.388 126.646C111.149 125.83 115.715 123.584 119.387 119.911C123.06 116.238 125.307 111.672 126.122 106.911L122.18 106.236Z" fill="black"/>
<path d="M13.4779 123.268C18.2631 128.054 24.2002 130.974 30.3956 132.035L29.7204 135.978C22.736 134.782 16.0388 131.486 10.6495 126.097C5.26016 120.708 1.96476 114.01 0.768631 107.026L4.71123 106.351C5.77225 112.546 8.6927 118.483 13.4779 123.268Z" fill="black"/>
<path d="M19.6628 117.082C22.7315 120.151 26.5371 122.023 30.509 122.703L29.8338 126.646C25.0729 125.83 20.5072 123.583 16.8344 119.911C13.1616 116.238 10.9148 111.672 10.0995 106.911L14.0421 106.236C14.7223 110.208 16.5941 114.014 19.6628 117.082Z" fill="black"/>
<path d="M105.712 14.5673C109.684 15.2475 113.489 17.1193 116.558 20.188C119.627 23.2568 121.499 27.0623 122.179 31.0342L126.121 30.359C125.306 25.5982 123.059 21.0324 119.386 17.3596C115.714 13.6868 111.148 11.44 106.387 10.6247L105.712 14.5673Z" fill="black"/>
</svg>
