<svg width="146" height="122" viewBox="0 0 146 122" fill="none" xmlns="http://www.w3.org/2000/svg">
<rect x="2.13672" y="27.7393" width="35.3626" height="69.3647" rx="3" stroke="black" stroke-width="4"/>
<rect x="37.5" y="27.7393" width="35.3626" height="69.3647" rx="3" stroke="black" stroke-width="4"/>
<rect x="72.8613" y="27.7393" width="35.3626" height="69.3647" rx="3" stroke="black" stroke-width="4"/>
<rect x="108.225" y="27.7393" width="35.3626" height="69.3647" rx="3" stroke="black" stroke-width="4"/>
<path d="M79.1188 2.3989C79.1896 2.2763 79.3666 2.2763 79.4373 2.3989L89.7628 20.2832C94.4227 28.3543 88.5979 38.4433 79.2781 38.4433C69.9583 38.4433 64.1335 28.3543 68.7933 20.2832L79.1188 2.3989Z" fill="white" stroke="black" stroke-width="4"/>
<path d="M37.7555 83.9253C37.8263 83.8027 38.0033 83.8027 38.0741 83.9253L48.3996 101.81C53.0594 109.881 47.2346 119.97 37.9148 119.97C28.595 119.97 22.7702 109.881 27.4301 101.81L37.7555 83.9253Z" fill="white" stroke="black" stroke-width="4"/>
</svg>
