<svg width="104" height="103" viewBox="0 0 104 103" fill="none" xmlns="http://www.w3.org/2000/svg">
<path d="M0.883769 89.4866C0.10272 88.7055 0.102721 87.4392 0.883769 86.6582L13.6117 73.9302C14.3927 73.1492 15.6591 73.1492 16.4401 73.9302C17.2212 74.7113 17.2212 75.9776 16.4401 76.7587L5.12641 88.0724L16.4401 99.3861C17.2212 100.167 17.2212 101.433 16.4401 102.215C15.6591 102.996 14.3927 102.996 13.6117 102.215L0.883769 89.4866ZM97.1992 18.0479L20.925 18.0478L20.925 14.0478L97.1992 14.0479L97.1992 18.0479ZM20.925 51.3018L79.8139 51.3018L79.8139 55.3018L20.925 55.3018L20.925 51.3018ZM79.814 90.0724L2.29798 90.0724L2.29798 86.0724L79.814 86.0724L79.814 90.0724ZM99.1992 70.6871C99.1992 81.3933 90.5201 90.0724 79.814 90.0724L79.814 86.0724C88.311 86.0724 95.1992 79.1842 95.1992 70.6871L99.1992 70.6871ZM79.8139 51.3018C90.5201 51.3018 99.1992 59.9809 99.1992 70.6871L95.1992 70.6871C95.1992 62.1901 88.311 55.3018 79.8139 55.3018L79.8139 51.3018ZM4.29799 34.6748C4.29799 43.8577 11.7421 51.3018 20.925 51.3018L20.925 55.3018C9.53301 55.3018 0.297986 46.0668 0.297987 34.6748L4.29799 34.6748ZM20.925 18.0478C11.7422 18.0478 4.29799 25.492 4.29799 34.6748L0.297987 34.6748C0.297988 23.2829 9.53304 14.0478 20.925 14.0478L20.925 18.0478Z" fill="black"/>
<circle cx="88.3963" cy="15.4989" r="13.3749" fill="white" stroke="black" stroke-width="4"/>
</svg>
