<svg width="104" height="112" viewBox="0 0 104 112" fill="none" xmlns="http://www.w3.org/2000/svg">
<path d="M67.0471 68.2579L61.211 62.4218C60.4532 61.6639 60.1919 60.5615 60.2925 59.4944C60.4497 57.8269 60.1996 56.1369 59.552 54.5736C58.6821 52.4737 57.1436 50.7195 55.1752 49.5831C53.2068 48.4467 50.9184 47.9916 48.6649 48.2883C46.4115 48.585 44.3189 49.617 42.7117 51.2241C41.1045 52.8313 40.0726 54.9239 39.7759 57.1774C39.4792 59.4308 39.9343 61.7192 41.0707 63.6876C42.2071 65.6561 43.9613 67.1945 46.0611 68.0644C47.6245 68.712 49.3145 68.9621 50.982 68.8049C52.049 68.7043 53.1515 68.9656 53.9094 69.7235L59.7455 75.5596" stroke="black" stroke-width="4"/>
<path d="M2.16992 79.0472V33.1855C2.16992 28.8536 5.68169 25.3418 10.0137 25.3418H73.0137C77.3457 25.3418 80.8574 28.8536 80.8574 33.1856V79.0472C80.8574 85.1223 75.9325 90.0472 69.8574 90.0472H13.1699C7.09479 90.0472 2.16992 85.1223 2.16992 79.0472Z" stroke="black" stroke-width="4" stroke-linecap="round" stroke-linejoin="round"/>
<path d="M65.142 25.3425C65.142 12.5662 54.7848 2.20898 42.0085 2.20898C29.2322 2.20898 18.875 12.5662 18.875 25.3425" stroke="black" stroke-width="4" stroke-linecap="round" stroke-linejoin="round"/>
<path d="M87.4205 52.1259C86.2489 50.954 84.3492 50.9539 83.1775 52.1256L43.6151 91.6896C42.4437 92.8611 42.4436 94.7603 43.6149 95.9319L46.8955 99.2134C47.6886 100.007 48.8579 100.291 49.9268 99.9512L74.2609 92.2079C74.7181 92.0624 75.1337 91.8095 75.4728 91.4702L82.3652 84.5764C82.6944 84.2471 82.9425 83.8457 83.0897 83.4039L91.4054 58.4569C91.7647 57.379 91.4842 56.1906 90.6809 55.3871L87.4205 52.1259Z" fill="white" stroke="black" stroke-width="4"/>
<path d="M67.5614 87.767C66.6958 90.7299 66.6433 93.8711 67.4093 96.8613C68.1753 99.8515 69.7317 102.581 71.9152 104.762C78.6335 111.484 89.5301 111.484 96.2502 104.762C102.972 98.0424 102.972 87.1457 96.2502 80.4257C94.0682 78.2425 91.339 76.6865 88.3488 75.9207C85.3586 75.155 82.2175 75.2078 79.2548 76.0736" stroke="black" stroke-width="4"/>
</svg>
