<svg width="89" height="114" viewBox="0 0 89 114" fill="none" xmlns="http://www.w3.org/2000/svg">
<rect x="18.6035" y="2.12305" width="16.8643" height="46.8456" rx="8.43217" fill="white" stroke="black" stroke-width="4"/>
<rect x="51.4688" y="2.12305" width="16.8643" height="46.8456" rx="8.43217" fill="white" stroke="black" stroke-width="4"/>
<path d="M2.54688 34.123H86.3885V64.2023C86.3885 87.3545 67.6199 106.123 44.4677 106.123C21.3155 106.123 2.54688 87.3545 2.54688 64.2023V34.123Z" fill="white" stroke="black" stroke-width="4"/>
<path d="M45.9869 47.839L47.6951 48.8792L45.9869 47.839L24.0451 83.8731C22.7713 85.9651 24.4057 88.6194 26.8471 88.4238L39.6655 87.3964L35.0365 108.261C34.3309 111.441 38.4868 113.308 40.3959 110.669L69.1413 70.9322C70.6874 68.7949 68.9209 65.8462 66.307 66.2011L47.2412 68.7898L51.4754 50.0608C52.2247 46.7462 47.7543 44.9365 45.9869 47.839Z" fill="white" stroke="black" stroke-width="4"/>
</svg>
