<svg width="25" height="25" viewBox="0 0 25 25" fill="none" xmlns="http://www.w3.org/2000/svg">
<g clip-path="url(#clip0_2176_27642)">
<path d="M12.506 0C7.2874 0 5.76115 0.00538507 5.46447 0.0300025C4.39352 0.119049 3.72711 0.287717 3.00109 0.649286C2.44158 0.927194 2.00032 1.24934 1.56482 1.70091C0.771702 2.52444 0.291023 3.53761 0.117017 4.74194C0.0324175 5.3266 0.00780672 5.44585 0.00280767 8.43225C0.00088495 9.42772 0.00280767 10.7378 0.00280767 12.4951C0.00280767 17.7109 0.00857581 19.2361 0.0335711 19.5322C0.120093 20.5746 0.283524 21.2305 0.629613 21.9478C1.29103 23.321 2.55425 24.3519 4.04243 24.7365C4.55772 24.8692 5.12684 24.9423 5.85748 24.9769C6.16703 24.9904 9.32221 25 12.4793 25C15.6364 25 18.7935 24.9962 19.0954 24.9808C19.9414 24.941 20.4326 24.875 20.9758 24.7346C21.7137 24.5453 22.4014 24.1972 22.9909 23.7145C23.5803 23.2319 24.0573 22.6263 24.3886 21.9401C24.728 21.2401 24.9 20.5592 24.9779 19.5713C24.9948 19.3559 25.002 15.9215 25.002 12.4918C25.002 9.06154 24.9943 5.63355 24.9773 5.41815C24.8985 4.41422 24.7264 3.73916 24.3761 3.02564C24.0887 2.44155 23.7695 2.00536 23.3061 1.55936C22.4793 0.769296 21.468 0.288486 20.2627 0.114625C19.6787 0.0301949 19.5624 0.00519275 16.5745 0H12.506Z" fill="#FF5D20"/>
<path d="M18.8034 3.85598C19.0811 3.67036 19.4076 3.57129 19.7417 3.57129C20.6741 3.57129 21.4305 4.32725 21.4305 5.25974C21.4306 5.59383 21.3317 5.92045 21.1462 6.19829C20.9607 6.47612 20.697 6.69271 20.3884 6.82063C20.0798 6.94856 19.7402 6.9821 19.4126 6.91699C19.0849 6.85188 18.784 6.69107 18.5477 6.45487C18.3115 6.21868 18.1506 5.91772 18.0854 5.59006C18.0201 5.2624 18.0536 4.92276 18.1814 4.6141C18.3092 4.30543 18.5256 4.04161 18.8034 3.85598Z" fill="white"/>
<path fill-rule="evenodd" clip-rule="evenodd" d="M12.2293 5.54477C8.238 5.54477 5.00195 8.78122 5.00195 12.773C5.00195 16.7649 8.238 19.9999 12.2293 19.9999C16.2207 19.9999 19.4558 16.7649 19.4558 12.773C19.4558 8.78122 16.2207 5.54477 12.2293 5.54477ZM16.9205 12.773C16.9205 10.1817 14.82 8.08127 12.2293 8.08127C9.63832 8.08127 7.53813 10.1817 7.53813 12.773C7.53813 15.3641 9.63832 17.4648 12.2293 17.4648C14.82 17.4648 16.9205 15.3641 16.9205 12.773Z" fill="white"/>
</g>
<defs>
<clipPath id="clip0_2176_27642">
<rect width="25" height="25" rx="7.13008" fill="white"/>
</clipPath>
</defs>
</svg>
