<svg width="25" height="25" viewBox="0 0 25 25" fill="none" xmlns="http://www.w3.org/2000/svg">
<g clip-path="url(#clip0_1045_9)">
<path d="M12.5041 0C7.28545 0 5.75919 0.00538575 5.46252 0.0299999C4.39157 0.119046 3.72516 0.287717 2.99913 0.649276C2.43963 0.927194 1.99836 1.24933 1.56286 1.70091C0.76975 2.52444 0.28907 3.5376 0.115061 4.74194C0.0304653 5.3266 0.00585092 5.44584 0.000852494 8.43225C-0.00106562 9.42772 0.000852494 10.7378 0.000852494 12.4951C0.000852494 17.7109 0.00661624 19.236 0.0316178 19.5322C0.118141 20.5746 0.281567 21.2305 0.627659 21.9478C1.28908 23.321 2.55229 24.3519 4.04048 24.7365C4.55577 24.8692 5.12489 24.9423 5.85552 24.9769C6.16508 24.9904 9.32025 25 12.4773 25C15.6345 25 18.7916 24.9962 19.0934 24.9808C19.9394 24.941 20.4307 24.875 20.9738 24.7346C22.4716 24.348 23.7118 23.3325 24.3867 21.9401C24.726 21.2401 24.8981 20.5592 24.976 19.5713C24.9929 19.3559 25 15.9215 25 12.4918C25 9.06153 24.9923 5.63355 24.9754 5.41814C24.8966 4.41422 24.7245 3.73916 24.3742 3.02564C24.0867 2.44155 23.7675 2.00535 23.3042 1.55937C22.4772 0.769294 21.4659 0.288482 20.2607 0.114624C19.6768 0.030189 19.5604 0.0051874 16.5725 0H12.5041Z" fill="url(#paint0_radial_1045_9)"/>
<path d="M12.5041 0C7.28545 0 5.75919 0.00538575 5.46252 0.0299999C4.39157 0.119046 3.72516 0.287717 2.99913 0.649276C2.43963 0.927194 1.99836 1.24933 1.56286 1.70091C0.76975 2.52444 0.28907 3.5376 0.115061 4.74194C0.0304653 5.3266 0.00585092 5.44584 0.000852494 8.43225C-0.00106562 9.42772 0.000852494 10.7378 0.000852494 12.4951C0.000852494 17.7109 0.00661624 19.236 0.0316178 19.5322C0.118141 20.5746 0.281567 21.2305 0.627659 21.9478C1.28908 23.321 2.55229 24.3519 4.04048 24.7365C4.55577 24.8692 5.12489 24.9423 5.85552 24.9769C6.16508 24.9904 9.32025 25 12.4773 25C15.6345 25 18.7916 24.9962 19.0934 24.9808C19.9394 24.941 20.4307 24.875 20.9738 24.7346C22.4716 24.348 23.7118 23.3325 24.3867 21.9401C24.726 21.2401 24.8981 20.5592 24.976 19.5713C24.9929 19.3559 25 15.9215 25 12.4918C25 9.06153 24.9923 5.63355 24.9754 5.41814C24.8966 4.41422 24.7245 3.73916 24.3742 3.02564C24.0867 2.44155 23.7675 2.00535 23.3042 1.55937C22.4772 0.769294 21.4659 0.288482 20.2607 0.114624C19.6768 0.030189 19.5604 0.0051874 16.5725 0H12.5041Z" fill="url(#paint1_radial_1045_9)"/>
<path d="M12.5041 0C7.28545 0 5.75919 0.00538575 5.46252 0.0299999C4.39157 0.119046 3.72516 0.287717 2.99913 0.649276C2.43963 0.927194 1.99836 1.24933 1.56286 1.70091C0.76975 2.52444 0.28907 3.5376 0.115061 4.74194C0.0304653 5.3266 0.00585092 5.44584 0.000852494 8.43225C-0.00106562 9.42772 0.000852494 10.7378 0.000852494 12.4951C0.000852494 17.7109 0.00661624 19.236 0.0316178 19.5322C0.118141 20.5746 0.281567 21.2305 0.627659 21.9478C1.28908 23.321 2.55229 24.3519 4.04048 24.7365C4.55577 24.8692 5.12489 24.9423 5.85552 24.9769C6.16508 24.9904 9.32025 25 12.4773 25C15.6345 25 18.7916 24.9962 19.0934 24.9808C19.9394 24.941 20.4307 24.875 20.9738 24.7346C22.4716 24.348 23.7118 23.3325 24.3867 21.9401C24.726 21.2401 24.8981 20.5592 24.976 19.5713C24.9929 19.3559 25 15.9215 25 12.4918C25 9.06153 24.9923 5.63355 24.9754 5.41814C24.8966 4.41422 24.7245 3.73916 24.3742 3.02564C24.0867 2.44155 23.7675 2.00535 23.3042 1.55937C22.4772 0.769294 21.4659 0.288482 20.2607 0.114624C19.6768 0.030189 19.5604 0.0051874 16.5725 0H12.5041Z" fill="url(#paint2_radial_1045_9)"/>
<path d="M12.5041 0C7.28545 0 5.75919 0.00538575 5.46252 0.0299999C4.39157 0.119046 3.72516 0.287717 2.99913 0.649276C2.43963 0.927194 1.99836 1.24933 1.56286 1.70091C0.76975 2.52444 0.28907 3.5376 0.115061 4.74194C0.0304653 5.3266 0.00585092 5.44584 0.000852494 8.43225C-0.00106562 9.42772 0.000852494 10.7378 0.000852494 12.4951C0.000852494 17.7109 0.00661624 19.236 0.0316178 19.5322C0.118141 20.5746 0.281567 21.2305 0.627659 21.9478C1.28908 23.321 2.55229 24.3519 4.04048 24.7365C4.55577 24.8692 5.12489 24.9423 5.85552 24.9769C6.16508 24.9904 9.32025 25 12.4773 25C15.6345 25 18.7916 24.9962 19.0934 24.9808C19.9394 24.941 20.4307 24.875 20.9738 24.7346C22.4716 24.348 23.7118 23.3325 24.3867 21.9401C24.726 21.2401 24.8981 20.5592 24.976 19.5713C24.9929 19.3559 25 15.9215 25 12.4918C25 9.06153 24.9923 5.63355 24.9754 5.41814C24.8966 4.41422 24.7245 3.73916 24.3742 3.02564C24.0867 2.44155 23.7675 2.00535 23.3042 1.55937C22.4772 0.769294 21.4659 0.288482 20.2607 0.114624C19.6768 0.030189 19.5604 0.0051874 16.5725 0H12.5041Z" fill="url(#paint3_radial_1045_9)"/>
<path d="M18.8013 3.85696C19.079 3.67134 19.4055 3.57227 19.7396 3.57227C20.672 3.57227 21.4284 4.32823 21.4284 5.26072C21.4285 5.59481 21.3296 5.92143 21.1441 6.19927C20.9586 6.4771 20.6949 6.69369 20.3863 6.82161C20.0777 6.94954 19.7381 6.98308 19.4105 6.91797C19.0828 6.85286 18.7819 6.69205 18.5456 6.45585C18.3094 6.21966 18.1485 5.9187 18.0833 5.59104C18.018 5.26338 18.0515 4.92374 18.1793 4.61508C18.3071 4.30641 18.5235 4.04259 18.8013 3.85696Z" fill="white"/>
<path fill-rule="evenodd" clip-rule="evenodd" d="M12.2273 5.54492C8.23605 5.54492 5 8.78137 5 12.7732C5 16.7651 8.23605 20.0001 12.2273 20.0001C16.2187 20.0001 19.4538 16.7651 19.4538 12.7732C19.4538 8.78137 16.2187 5.54492 12.2273 5.54492ZM16.9186 12.7732C16.9186 10.1819 14.818 8.08142 12.2273 8.08142C9.63637 8.08142 7.53618 10.1819 7.53618 12.7732C7.53618 15.3643 9.63637 17.465 12.2273 17.465C14.818 17.465 16.9186 15.3643 16.9186 12.7732Z" fill="white"/>
</g>
<defs>
<radialGradient id="paint0_radial_1045_9" cx="0" cy="0" r="1" gradientUnits="userSpaceOnUse" gradientTransform="translate(24.1928 11.7178) rotate(164.25) scale(15.9736 11.5082)">
<stop stop-color="#FF005F"/>
<stop offset="1" stop-color="#FC01D8"/>
</radialGradient>
<radialGradient id="paint1_radial_1045_9" cx="0" cy="0" r="1" gradientUnits="userSpaceOnUse" gradientTransform="translate(6.64043 26.9255) rotate(-90) scale(19.9555 21.1723)">
<stop stop-color="#FFCC00"/>
<stop offset="0.1242" stop-color="#FFCC00"/>
<stop offset="0.5672" stop-color="#FE4A05"/>
<stop offset="0.6942" stop-color="#FF0F3F"/>
<stop offset="1" stop-color="#FE0657" stop-opacity="0"/>
</radialGradient>
<radialGradient id="paint2_radial_1045_9" cx="0" cy="0" r="1" gradientUnits="userSpaceOnUse" gradientTransform="translate(13.1317 24.6474) rotate(-59.8703) scale(8.25176 10.7429)">
<stop stop-color="#FFCC00"/>
<stop offset="1" stop-color="#FFCC00" stop-opacity="0"/>
</radialGradient>
<radialGradient id="paint3_radial_1045_9" cx="0" cy="0" r="1" gradientUnits="userSpaceOnUse" gradientTransform="translate(3.39196 1.01799) rotate(164.274) scale(15.7964 5.38182)">
<stop stop-color="#780CFF"/>
<stop offset="1" stop-color="#820BFF" stop-opacity="0"/>
</radialGradient>
<clipPath id="clip0_1045_9">
<rect width="25" height="25" fill="white"/>
</clipPath>
</defs>
</svg>
