<svg width="25" height="25" viewBox="0 0 25 25" fill="none" xmlns="http://www.w3.org/2000/svg">
<path d="M17.8699 0H7.13008C3.19225 0 0 3.19225 0 7.13008V17.8699C0 21.8078 3.19225 25 7.13008 25H17.8699C21.8078 25 25 21.8078 25 17.8699V7.13008C25 3.19225 21.8078 0 17.8699 0Z" fill="#3283EA"/>
<path d="M13.3766 17.7249C13.6207 17.6761 14.0602 17.5784 14.0602 16.9925C14.0602 16.9925 14.0114 15.5276 14.695 15.3323C15.3785 15.137 16.2575 16.7483 17.1852 17.3831C17.8688 17.8226 18.4059 17.7737 18.4059 17.7737L20.8961 17.7249C20.8961 17.7249 22.1657 17.6272 21.5797 16.6019C21.5309 16.5042 21.1403 15.8694 19.6754 14.5511C18.1618 13.0862 18.4059 13.3304 20.2125 10.8401C21.3356 9.32645 21.8239 8.39871 21.6774 8.05692C21.4821 7.71512 20.7008 7.76395 20.7008 7.76395H17.9176C17.6246 7.76395 17.4781 7.81278 17.3316 8.05692C17.3316 8.05692 16.8922 9.27762 16.3063 10.2542C15.0856 12.3538 14.5973 12.4515 14.3532 12.305C13.9137 12.0608 14.0114 11.1331 14.0114 10.4983C14.0114 8.30106 14.3532 7.51981 13.3766 7.32449C12.7418 7.22684 10.4957 7.12918 9.81209 7.47098C9.4703 7.66629 9.27498 8.00809 9.42147 8.05692C9.56795 8.05692 10.0075 8.10575 10.2516 8.39871C10.6422 9.03348 10.691 12.0608 10.1539 12.3538C9.42147 12.8909 7.566 9.32645 7.12655 8.15457C7.02889 7.8616 6.88241 7.81278 6.54061 7.71512H3.85506C3.56209 7.71512 3.12264 7.76395 3.31795 8.34989C4.63631 11.0843 7.37069 17.7737 12.3024 17.7249H13.3766Z" fill="#EEEFF3"/>
</svg>
