<svg width="25" height="25" viewBox="0 0 25 25" fill="none" xmlns="http://www.w3.org/2000/svg">
<rect width="25" height="25" rx="7.13008" fill="#FF5D20"/>
<path d="M13.3785 17.7244C13.6226 17.6756 14.0621 17.5779 14.0621 16.992C14.0621 16.992 14.0133 15.5271 14.6969 15.3318C15.3804 15.1365 16.2594 16.7478 17.1871 17.3826C17.8707 17.8221 18.4078 17.7732 18.4078 17.7732L20.898 17.7244C20.898 17.7244 22.1676 17.6267 21.5816 16.6014C21.5328 16.5037 21.1422 15.8689 19.6773 14.5506C18.1637 13.0857 18.4078 13.3299 20.2144 10.8396C21.3375 9.32596 21.8258 8.39822 21.6793 8.05643C21.484 7.71463 20.7027 7.76346 20.7027 7.76346H17.9195C17.6265 7.76346 17.4801 7.81229 17.3336 8.05643C17.3336 8.05643 16.8941 9.27713 16.3082 10.2537C15.0875 12.3533 14.5992 12.451 14.3551 12.3045C13.9156 12.0603 14.0133 11.1326 14.0133 10.4978C14.0133 8.30057 14.3551 7.51932 13.3785 7.324C12.7437 7.22635 10.4976 7.12869 9.81404 7.47049C9.47225 7.6658 9.27693 8.0076 9.42342 8.05643C9.5699 8.05643 10.0094 8.10526 10.2535 8.39822C10.6441 9.03299 10.6929 12.0603 10.1558 12.3533C9.42342 12.8904 7.56795 9.32596 7.1285 8.15408C7.03084 7.86111 6.88436 7.81229 6.54256 7.71463H3.85701C3.56404 7.71463 3.12459 7.76346 3.3199 8.3494C4.63826 11.0838 7.37264 17.7732 12.3043 17.7244H13.3785Z" fill="#EEEFF3"/>
</svg>
