<svg width="25" height="25" viewBox="0 0 25 25" fill="none" xmlns="http://www.w3.org/2000/svg">
<path d="M17.8699 0H7.13008C3.19225 0 0 3.19225 0 7.13008V17.8699C0 21.8078 3.19225 25 7.13008 25H17.8699C21.8078 25 25 21.8078 25 17.8699V7.13008C25 3.19225 21.8078 0 17.8699 0Z" fill="#F50017"/>
<path d="M10.9659 18.5555C7.56511 18.4949 6.40357 18.4404 5.68962 18.298C5.20658 18.2033 4.78682 17.9932 4.47904 17.6885C4.24116 17.4578 4.05199 17.106 3.90522 16.6177C3.77933 16.211 3.73029 15.8726 3.66039 15.0459C3.55338 13.1803 3.52787 11.6551 3.66039 9.95079C3.76972 9.00964 3.82273 7.89239 4.54894 7.24057C4.89184 6.93552 5.29073 6.7392 5.73865 6.65805C6.43836 6.52942 9.41941 6.42773 12.5055 6.42773C15.5846 6.42773 18.5723 6.52942 19.2727 6.65805C19.8322 6.75973 20.357 7.06447 20.6651 7.45742C21.3277 8.46657 21.3393 9.72144 21.4066 10.703C21.4344 11.1707 21.4344 13.8264 21.4066 14.2941C21.3019 15.8453 21.2177 16.3942 20.9799 16.9632C20.8328 17.3225 20.7072 17.5121 20.4899 17.7222C20.149 18.0455 19.7145 18.2606 19.2442 18.3387C16.3012 18.553 13.8022 18.5995 10.9659 18.5555ZM15.4726 12.3223C13.8353 11.4751 12.2676 10.6895 10.6651 9.87637V14.7412C12.3514 13.8536 14.1292 13.0405 15.4796 12.3155L15.4726 12.3223Z" fill="#EEEFF3"/>
</svg>
