<svg width="25" height="25" viewBox="0 0 25 25" fill="none" xmlns="http://www.w3.org/2000/svg">
<rect width="25" height="25" rx="7.13008" fill="#FF5D20"/>
<path d="M10.9659 18.556C7.56511 18.4954 6.40357 18.4409 5.68962 18.2985C5.20658 18.2038 4.78682 17.9937 4.47904 17.689C4.24116 17.4583 4.05199 17.1065 3.90522 16.6182C3.77933 16.2115 3.73029 15.8731 3.66039 15.0464C3.55338 13.1808 3.52787 11.6556 3.66039 9.95128C3.76972 9.01013 3.82273 7.89288 4.54894 7.24106C4.89184 6.93601 5.29073 6.73969 5.73865 6.65854C6.43836 6.52991 9.41941 6.42822 12.5055 6.42822C15.5846 6.42822 18.5723 6.52991 19.2727 6.65854C19.8322 6.76022 20.357 7.06496 20.6651 7.45791C21.3277 8.46706 21.3393 9.72193 21.4066 10.7035C21.4344 11.1712 21.4344 13.8269 21.4066 14.2946C21.3019 15.8458 21.2177 16.3947 20.9799 16.9637C20.8328 17.323 20.7072 17.5126 20.4899 17.7227C20.149 18.046 19.7145 18.2611 19.2442 18.3392C16.3012 18.5535 13.8022 18.6 10.9659 18.556ZM15.4726 12.3228C13.8353 11.4756 12.2676 10.69 10.6651 9.87686V14.7417C12.3514 13.8541 14.1292 13.041 15.4796 12.316L15.4726 12.3228Z" fill="#EEEFF3"/>
</svg>
