<svg width="25" height="25" viewBox="0 0 25 25" fill="none" xmlns="http://www.w3.org/2000/svg">
<path d="M14.9107 14.9107C12.9464 16.9375 12.8036 19.4643 12.6339 25C17.7946 25 21.3571 24.9821 23.1964 23.1964C24.9821 21.3571 25 17.625 25 12.6339C19.4643 12.8125 16.9375 12.9464 14.9107 14.9107ZM0 12.6339C0 17.625 0.0178571 21.3571 1.80357 23.1964C3.64286 24.9821 7.20536 25 12.3661 25C12.1875 19.4643 12.0536 16.9375 10.0893 14.9107C8.0625 12.9464 5.53571 12.8036 0 12.6339ZM12.3661 0C7.21429 0 3.64286 0.0178571 1.80357 1.80357C0.0178571 3.64286 0 7.375 0 12.3661C5.53571 12.1875 8.0625 12.0536 10.0893 10.0893C12.0536 8.0625 12.1964 5.53571 12.3661 0ZM14.9107 10.0893C12.9464 8.0625 12.8036 5.53571 12.6339 0C17.7946 0 21.3571 0.0178571 23.1964 1.80357C24.9821 3.64286 25 7.375 25 12.3661C19.4643 12.1875 16.9375 12.0536 14.9107 10.0893Z" fill="black"/>
</svg>
