<svg width="77" height="70" viewBox="0 0 77 70" fill="none" xmlns="http://www.w3.org/2000/svg">
<path fill-rule="evenodd" clip-rule="evenodd" d="M19.8079 46.8076H19.6852C20.3515 52.9095 21.0002 62.1208 20.6905 65.9491C19.0189 66.2355 18.1071 66.9602 18.4695 69.5728H20.369H23.9226C25.1617 66.4693 25.4539 62.9917 25.5241 59.3446C26.2313 59.9466 27.0671 60.5661 28.0665 61.2149C29.7439 61.3084 31.3162 61.2558 32.7832 61.0921C32.9761 62.7871 33.0754 64.4353 32.9995 65.7738C31.2928 66.3232 30.5797 67.2291 30.9655 69.5728H34.0632H34.6126H36.1731C36.8921 67.4278 37.1609 63.6989 37.2427 60.2154C40.4807 59.2803 43.1927 57.8425 45.589 56.393C47.5587 59.853 52.1409 60.4726 52.5559 60.5369C53.0293 61.7935 53.2456 64.599 52.7897 66.3407C50.9136 66.7381 50.5161 67.7317 50.8259 69.5728H55.6536C56.5187 66.6329 57.0681 62.5942 57.1265 59.5374C56.2439 58.4562 55.7705 56.9891 55.5484 55.3818C57.5649 57.673 60.5164 59.4498 63.9064 59.6134C64.9818 61.4545 65.5663 63.5118 65.4085 66.2355C63.3336 66.8258 63.6784 68.5558 63.9824 69.5728H68.3542C69.1725 64.8094 68.512 60.1277 68.0971 57.5853C65.6598 55.3468 65.1747 51.4892 65.1279 48.4091C65.1046 46.9245 65.2507 45.4458 65.1747 44.1833C66.5014 44.8321 67.9685 45.0659 69.3946 44.9431C70.3356 44.8613 71.2591 44.6275 72.1065 44.2593C72.9599 43.8852 73.7431 43.3768 74.3977 42.7455C75.7244 41.4655 76.5193 39.7063 76.344 37.6255C76.2037 35.9715 75.5315 34.4869 74.5905 33.1894C73.6788 31.9269 72.5098 30.8398 71.3292 29.928C70.3765 29.1974 69.4589 28.5779 68.5763 27.9817C68.5646 27.97 68.5471 27.9642 68.5296 27.9525C68.1906 27.7246 67.8574 27.5025 67.5301 27.2745L67.4308 27.2044C64.9175 25.4744 61.3639 23.0254 61.4984 19.8225C61.5334 18.9867 61.8432 18.186 62.4335 17.4963C63.018 16.8125 63.883 16.2221 65.0286 15.7955L65.6247 15.5734L65.7825 16.0877C66.104 17.1281 67.2087 17.7126 68.2315 17.3852L71.1188 16.4676L70.7155 15.1642L73.8366 14.1765L72.6969 10.4885L69.5758 11.4762L69.1725 10.1729L66.2852 11.0905C65.2565 11.4178 64.6837 12.5341 65.0052 13.5686L65.1513 14.0362L64.485 14.2817C63.0764 14.8077 61.9952 15.55 61.2353 16.4384C60.4054 17.4086 59.967 18.5483 59.9144 19.7465C59.7391 23.8495 63.7194 26.5907 66.5365 28.5311L66.6359 28.6013C66.9573 28.8234 67.3022 29.0572 67.6529 29.291C67.6645 29.3026 67.6821 29.3143 67.6938 29.3202C68.6055 29.9339 69.5524 30.571 70.3707 31.2022C71.4461 32.0263 72.4981 33.0082 73.3047 34.1245C74.0821 35.2058 74.6373 36.4157 74.7484 37.7483C74.8828 39.303 74.2866 40.618 73.293 41.5707C72.7787 42.0675 72.1591 42.4708 71.4695 42.7689C70.7798 43.0728 70.0258 43.2599 69.2602 43.3242C67.5593 43.4703 65.7884 42.9968 64.4441 41.7402C63.8596 40.9804 62.8485 40.5245 61.1009 40.5245H27.9964C23.0926 50.1976 18.8318 38.5373 19.8079 46.8076Z" fill="black"/>
<path fill-rule="evenodd" clip-rule="evenodd" d="M24.9863 50.4893C42.3861 42.0671 49.1426 35.6028 49.1426 19.3661L43.403 12.3817C44.1336 11.5284 44.7824 10.5289 45.25 9.45348C46.4832 6.61294 46.3546 3.41588 43.8355 1.22995C41.6087 -0.704656 38.9961 -0.30137 37.3947 2.07159L35.536 4.83615H14.4249L12.5662 2.07159C10.9706 -0.307215 8.3522 -0.704656 6.12536 1.22995C3.60044 3.41588 3.47185 6.61879 4.71093 9.45348C5.16098 10.488 5.77467 11.4582 6.47604 12.2882L0.8125 18.5713C0.8125 36.5321 6.83257 41.2722 24.9863 50.4893Z" fill="#FF5D20"/>
<path fill-rule="evenodd" clip-rule="evenodd" d="M19.3525 11.377H30.6621C31.7375 11.377 32.62 12.2595 32.62 13.3349V34.6799C32.62 35.7553 31.7375 36.6379 30.6621 36.6379H19.3525C18.2771 36.6379 17.3945 35.7553 17.3945 34.6799V13.3349C17.3945 12.2595 18.2771 11.377 19.3525 11.377Z" fill="white"/>
<path fill-rule="evenodd" clip-rule="evenodd" d="M21.9062 32.0312C21.9121 33.7379 23.2973 35.1173 25.0098 35.1173C26.7165 35.1173 28.1017 33.7379 28.1134 32.0312H21.9062Z" fill="black"/>
</svg>
