<svg width="232" height="40" viewBox="0 0 232 40" fill="none" xmlns="http://www.w3.org/2000/svg">
<path d="M57.871 3.14844H51.8359V39.0804H57.871V3.14844Z" fill="black"/>
<path d="M81.5669 17.2409C79.4319 15.4632 76.367 14.6551 73.294 14.7682C68.6844 14.9541 64.6329 16.8692 62.8619 21.3702L68.086 22.8248C69.5497 20.2874 71.8707 20.2389 73.6821 20.2389C75.0084 20.2389 76.1567 20.5622 77.0544 21.2086C77.9925 21.8551 78.4534 22.6389 78.4534 23.544V24.651H71.3208C68.5227 24.651 66.3231 25.2733 64.738 26.5419C63.1368 27.8106 62.3281 29.5642 62.3281 31.7864C62.3281 34.1379 63.1773 36.0369 64.8917 37.4914C66.5899 38.8975 68.7653 39.6409 71.4016 39.6409C74.4747 39.6409 77.1353 38.4611 78.9467 36.3197V39.0672H84.5186V23.4308C84.5267 20.9581 83.5401 18.9056 81.5669 17.2409ZM78.4534 29.2248C78.4534 30.6308 77.8146 31.8106 76.553 32.7561C75.2914 33.7015 73.852 34.1621 72.1942 34.1621C69.9945 34.1621 68.4095 33.1197 68.4095 31.5278C68.4095 30.049 69.857 29.1278 72.1942 29.1278H78.4534V29.2248Z" fill="black"/>
<path d="M118.778 14.7582C115.213 14.7339 112.334 15.9385 110.116 18.388C108.697 15.9627 106.278 14.7582 102.915 14.7582C99.6892 14.7582 97.036 15.8172 94.9634 17.9919V15.2675H88.8828V39.0838H94.9634V26.3996C94.9634 24.6453 95.4876 23.1658 96.5844 21.9855C97.6569 20.8295 99.0763 20.2555 100.77 20.2555C103.56 20.2555 105.205 21.8481 105.205 24.5968V39.0758H111.262V26.3996C111.262 24.6453 111.81 23.1658 112.907 21.9855C114.028 20.8295 115.423 20.2555 117.133 20.2555C119.923 20.2555 121.544 21.8481 121.544 24.5968V39.0758H127.6V22.9799C127.6 20.4657 126.826 18.4527 125.221 16.9733C123.641 15.5019 121.495 14.7582 118.778 14.7582Z" fill="black"/>
<path d="M143.199 14.7578C139.58 14.7578 136.607 15.9131 134.264 18.2883C131.929 20.6231 130.758 23.5962 130.758 27.2236C130.758 30.8026 131.929 33.7595 134.264 36.1104C136.599 38.4614 139.58 39.6409 143.199 39.6409C146.819 39.6409 149.776 38.4614 152.11 36.1104C154.445 33.7595 155.641 30.8026 155.641 27.2236C155.641 23.5962 154.453 20.6231 152.11 18.2883C149.768 15.9131 146.811 14.7578 143.199 14.7578ZM147.756 32.1841C146.544 33.4767 145.009 34.123 143.199 34.123C141.341 34.123 139.855 33.4767 138.643 32.1841C137.431 30.8672 136.833 29.2029 136.833 27.2236C136.833 25.1958 137.431 23.5073 138.619 22.2147C139.83 20.8978 141.341 20.2515 143.199 20.2515C145.058 20.2515 146.593 20.8978 147.78 22.2147C148.968 23.5073 149.566 25.1958 149.566 27.2236C149.566 29.211 148.968 30.8753 147.756 32.1841Z" fill="black"/>
<path d="M172.353 14.7402C169.33 14.7402 166.785 15.783 164.797 17.8847V3.14844H158.703V39.0636H164.797V36.4526C166.793 38.5785 169.33 39.6375 172.353 39.6375C175.561 39.6375 178.244 38.4573 180.305 36.105C182.366 33.7527 183.401 30.7941 183.401 27.2131C183.401 23.5836 182.366 20.6089 180.305 18.2727C178.244 15.8962 175.561 14.7402 172.353 14.7402ZM175.537 32.1764C174.349 33.4697 172.903 34.1164 171.116 34.1164C169.306 34.1164 167.819 33.4697 166.623 32.1764C165.451 30.8588 164.861 29.1936 164.861 27.2131C164.861 25.1841 165.459 23.4947 166.623 22.2013C167.811 20.8837 169.306 20.237 171.116 20.237C172.878 20.237 174.349 20.8837 175.537 22.2013C176.725 23.4947 177.323 25.1841 177.323 27.2131C177.331 29.2016 176.733 30.8669 175.537 32.1764Z" fill="black"/>
<path d="M189.91 3.33594C188.85 3.33594 187.994 3.68156 187.325 4.37282C186.632 5.03996 186.281 5.93216 186.281 6.96904C186.281 8.022 186.607 8.87401 187.301 9.56527C187.969 10.2324 188.85 10.578 189.91 10.578C190.954 10.578 191.803 10.2324 192.479 9.56527C193.173 8.87401 193.523 8.03004 193.523 6.96904C193.523 5.93216 193.173 5.03996 192.479 4.37282C191.811 3.68156 190.954 3.33594 189.91 3.33594Z" fill="black"/>
<path d="M192.964 15.2188H186.836V39.0805H192.964V15.2188Z" fill="black"/>
<path d="M231.023 22.2146C228.37 13.8968 216.83 12.4607 211.063 18.2937C208.733 20.601 207.539 23.57 207.539 27.1923C207.539 30.7179 208.684 33.6465 210.967 35.9781C213.249 38.3096 216.249 39.4552 219.951 39.4552C224.039 39.4552 228.588 37.7287 230.531 34.0579L225.773 31.799C224.902 33.5739 222.273 34.1467 220.515 34.1467C216.838 34.1467 214.41 32.162 213.636 29.0963H231.58C231.83 26.2726 231.596 24.0379 231.023 22.2146ZM213.862 24.409C214.023 23.4409 214.459 22.5857 215.047 21.8999C216.507 20.2138 218.822 19.5926 220.991 19.9395C222.201 20.1492 223.346 20.6575 224.257 21.4643C225.08 22.2226 225.604 23.215 225.741 24.4171H213.862V24.409Z" fill="black"/>
<path d="M204.476 3.14844H198.348V39.0804H204.476V3.14844Z" fill="black"/>
<path fill-rule="evenodd" clip-rule="evenodd" d="M10.549 25.996H10.4823C10.8522 29.3837 11.2131 34.5001 11.0433 36.6262C10.1153 36.7839 9.60884 37.1872 9.80899 38.64H10.8613H12.8356C13.5241 36.9173 13.6848 34.9854 13.7242 32.9594C14.1185 33.2961 14.5794 33.6357 15.1344 33.9967C16.0655 34.0482 16.9389 34.0179 17.7547 33.9299C17.8608 34.8701 17.9184 35.7891 17.8729 36.5291C16.9237 36.8354 16.5295 37.3358 16.7418 38.64H18.4613H18.7676H19.6319C20.0292 37.4481 20.1808 35.3766 20.2263 33.4416C22.0247 32.923 23.5289 32.1254 24.8633 31.3186C25.9581 33.2415 28.5026 33.5842 28.7331 33.6206C28.9969 34.3181 29.1152 35.877 28.8604 36.8445C27.8202 37.0659 27.5958 37.6179 27.7687 38.64H30.4496C30.9287 37.0053 31.235 34.764 31.2684 33.0656C30.7771 32.4651 30.5132 31.6523 30.3919 30.7576C31.511 32.0283 33.1517 33.017 35.032 33.108C35.6294 34.1301 35.9539 35.2735 35.866 36.7869C34.7135 37.1144 34.9046 38.0759 35.0744 38.64H37.5036C37.9585 35.9953 37.5916 33.3931 37.3611 31.9828C36.0055 30.7394 35.7386 28.5982 35.7143 26.8846C35.7022 26.0596 35.7841 25.2408 35.7416 24.5371C36.4786 24.8981 37.2944 25.0285 38.0859 24.9587C38.6075 24.9132 39.1201 24.7828 39.5901 24.5796C40.0632 24.3734 40.4999 24.0883 40.8608 23.7365C41.5978 23.0268 42.0406 22.0502 41.9405 20.8916C41.8616 19.9727 41.4916 19.1508 40.967 18.4259C40.4605 17.7253 39.8115 17.1187 39.1564 16.6153C38.6288 16.2089 38.1162 15.8662 37.628 15.5356C37.6189 15.5295 37.6128 15.5265 37.6037 15.5204C37.4157 15.393 37.2307 15.2687 37.0487 15.1443L36.9972 15.108C35.6021 14.1465 33.6278 12.7878 33.7037 11.0075C33.7249 10.5405 33.8947 10.1007 34.2222 9.71551C34.5467 9.33337 35.0259 9.00886 35.6628 8.77229L35.9933 8.65098L36.0813 8.93607C36.2602 9.51231 36.8728 9.83683 37.443 9.65486L39.0473 9.14533L38.8229 8.42048L40.5545 7.87153L39.9207 5.82434L38.189 6.37329L37.9646 5.64844L36.3603 6.15796C35.7901 6.33993 35.4717 6.95864 35.6476 7.53488L35.7265 7.79268L35.3565 7.92915C34.574 8.22031 33.9736 8.63581 33.552 9.12714C33.091 9.66699 32.8484 10.2978 32.8181 10.9651C32.7211 13.2427 34.9319 14.7652 36.4968 15.8449L36.5514 15.8844C36.7303 16.0087 36.9213 16.1361 37.1154 16.2665C37.1245 16.2726 37.1306 16.2786 37.1397 16.2847C37.6462 16.6244 38.1739 16.9792 38.6288 17.331C39.2232 17.789 39.8115 18.3319 40.2603 18.9567C40.694 19.5572 41.0003 20.2305 41.064 20.9705C41.1368 21.8349 40.8062 22.5627 40.2573 23.0935C39.9722 23.3695 39.6265 23.5939 39.2444 23.7607C38.8592 23.9275 38.4438 24.0337 38.0162 24.0701C37.07 24.152 36.0874 23.8881 35.3413 23.1905C35.0168 22.769 34.4558 22.5142 33.4853 22.5142H15.095C12.3716 27.8794 10.0061 21.4042 10.549 25.996Z" fill="black"/>
<path fill-rule="evenodd" clip-rule="evenodd" d="M13.4258 28.0416C23.088 23.3649 26.8394 19.774 26.8394 10.7542L23.652 6.87519C24.0584 6.40207 24.4163 5.84705 24.6771 5.24958C25.3625 3.67249 25.2927 1.89522 23.8916 0.682077C22.6543 -0.391558 21.2016 -0.170159 20.3161 1.15217L19.2819 2.6868H7.55749L6.52334 1.15217C5.63779 -0.170159 4.18513 -0.391558 2.94779 0.682077C1.54668 1.89522 1.47693 3.67249 2.16232 5.24958C2.411 5.82279 2.75369 6.36264 3.14491 6.82364L0 10.3145C0 20.2896 3.34507 22.9191 13.4258 28.0416Z" fill="#FF5D20"/>
<path fill-rule="evenodd" clip-rule="evenodd" d="M10.2958 6.31641H16.5765C17.1739 6.31641 17.6652 6.8047 17.6652 7.40521V19.2577C17.6652 19.8551 17.177 20.3465 16.5765 20.3465H10.2958C9.69833 20.3465 9.20703 19.8582 9.20703 19.2577V7.40217C9.20703 6.8047 9.69833 6.31641 10.2958 6.31641Z" fill="white"/>
<path fill-rule="evenodd" clip-rule="evenodd" d="M11.7148 17.7891C11.7179 18.7383 12.4882 19.5057 13.4374 19.5057C14.3867 19.5057 15.157 18.7383 15.16 17.7891H11.7148Z" fill="black"/>
</svg>
