<svg width="1196" height="203" viewBox="0 0 1196 203" fill="none" xmlns="http://www.w3.org/2000/svg">
<path d="M286.174 11.9902H254.594V200.012H286.174V11.9902Z" fill="white"/>
<path d="M410.148 85.7103C398.976 76.4077 382.938 72.1793 366.858 72.7713C342.737 73.7438 321.537 83.7652 312.269 107.318L339.606 114.929C347.265 101.652 359.41 101.398 368.889 101.398C375.829 101.398 381.838 103.089 386.535 106.472C391.444 109.855 393.856 113.956 393.856 118.692V124.485H356.533C341.891 124.485 330.381 127.741 322.087 134.38C313.708 141.018 309.477 150.194 309.477 161.822C309.477 174.127 313.92 184.064 322.891 191.675C331.777 199.033 343.16 202.923 356.956 202.923C373.036 202.923 386.958 196.749 396.437 185.544V199.921H425.593V118.1C425.635 105.161 420.473 94.4209 410.148 85.7103ZM393.856 148.418C393.856 155.776 390.513 161.949 383.911 166.897C377.31 171.844 369.778 174.254 361.103 174.254C349.593 174.254 341.299 168.799 341.299 160.469C341.299 152.731 348.873 147.911 361.103 147.911H393.856V148.418Z" fill="white"/>
<path d="M604.865 72.7187C586.213 72.5918 571.148 78.8949 559.543 91.7127C552.116 79.0218 539.457 72.7187 521.86 72.7187C504.98 72.7187 491.097 78.2603 480.252 89.6398V75.3838H448.434V200.008H480.252V133.635C480.252 124.455 482.994 116.714 488.734 110.537C494.346 104.488 501.773 101.485 510.635 101.485C525.236 101.485 533.844 109.818 533.844 124.201V199.966H565.536V133.635C565.536 124.455 568.405 116.714 574.144 110.537C580.01 104.488 587.31 101.485 596.256 101.485C610.857 101.485 619.339 109.818 619.339 124.201V199.966H651.031V115.741C651.031 102.584 646.979 92.0511 638.582 84.3097C630.311 76.6105 619.086 72.7187 604.865 72.7187Z" fill="white"/>
<path d="M732.654 72.7168C713.715 72.7168 698.158 78.7621 685.898 91.1909C673.681 103.408 667.551 118.965 667.551 137.947C667.551 156.674 673.681 172.147 685.898 184.449C698.115 196.751 713.715 202.923 732.654 202.923C751.593 202.923 767.066 196.751 779.283 184.449C791.5 172.147 797.757 156.674 797.757 137.947C797.757 118.965 791.543 103.408 779.283 91.1909C767.023 78.7621 751.551 72.7168 732.654 72.7168ZM756.497 163.903C750.156 170.667 742.123 174.049 732.654 174.049C722.931 174.049 715.152 170.667 708.811 163.903C702.47 157.013 699.341 148.304 699.341 137.947C699.341 127.336 702.47 118.5 708.684 111.736C715.025 104.846 722.931 101.464 732.654 101.464C742.377 101.464 750.409 104.846 756.624 111.736C762.838 118.5 765.966 127.336 765.966 137.947C765.966 148.346 762.838 157.055 756.497 163.903Z" fill="white"/>
<path d="M885.215 72.6467C869.399 72.6467 856.078 78.1032 845.675 89.1009V11.9902H813.789V199.924H845.675V186.261C856.12 197.386 869.399 202.927 885.215 202.927C902.004 202.927 916.043 196.751 926.827 184.442C937.611 172.133 943.024 156.652 943.024 137.914C943.024 118.922 937.611 103.356 926.827 91.1312C916.043 78.6954 902.004 72.6467 885.215 72.6467ZM901.877 163.885C895.66 170.653 888.09 174.037 878.745 174.037C869.272 174.037 861.491 170.653 855.232 163.885C849.1 156.99 846.013 148.277 846.013 137.914C846.013 127.297 849.142 118.456 855.232 111.688C861.449 104.794 869.272 101.41 878.745 101.41C887.964 101.41 895.66 104.794 901.877 111.688C908.093 118.456 911.222 127.297 911.222 137.914C911.265 148.319 908.135 157.033 901.877 163.885Z" fill="white"/>
<path d="M977.08 12.959C971.533 12.959 967.052 14.7676 963.552 18.3847C959.925 21.8757 958.09 26.5443 958.09 31.97C958.09 37.4798 959.797 41.9382 963.424 45.5553C966.924 49.0463 971.533 50.8548 977.08 50.8548C982.543 50.8548 986.981 49.0463 990.523 45.5553C994.151 41.9382 995.986 37.5219 995.986 31.97C995.986 26.5443 994.151 21.8757 990.523 18.3847C987.024 14.7676 982.543 12.959 977.08 12.959Z" fill="white"/>
<path d="M993.066 75.1484H961V200.01H993.066V75.1484Z" fill="white"/>
<path d="M1192.23 111.737C1178.35 68.2123 1117.96 60.6978 1087.79 91.22C1075.59 103.294 1069.35 118.829 1069.35 137.784C1069.35 156.232 1075.34 171.557 1087.28 183.757C1099.23 195.958 1114.92 201.952 1134.29 201.952C1155.69 201.952 1179.49 192.918 1189.66 173.71L1164.76 161.889C1160.2 171.177 1146.45 174.174 1137.25 174.174C1118 174.174 1105.3 163.789 1101.25 147.747H1195.15C1196.45 132.972 1195.23 121.278 1192.23 111.737ZM1102.43 123.22C1103.28 118.154 1105.56 113.679 1108.64 110.09C1116.27 101.267 1128.39 98.0167 1139.74 99.832C1146.07 100.93 1152.06 103.589 1156.83 107.811C1161.13 111.779 1163.88 116.972 1164.59 123.262H1102.43V123.22Z" fill="white"/>
<path d="M1053.31 11.9902H1021.25V200.012H1053.31V11.9902Z" fill="white"/>
<path fill-rule="evenodd" clip-rule="evenodd" d="M54.638 134.593H54.2925C56.2082 152.134 58.0768 178.625 57.1974 189.633C52.3925 190.449 49.7702 192.538 50.8066 200.06H56.2553H66.4775C70.042 191.14 70.8742 181.137 71.0783 170.648C73.1196 172.391 75.5064 174.149 78.3799 176.018C83.2005 176.285 87.7228 176.128 91.9467 175.673C92.4963 180.541 92.7947 185.299 92.5591 189.13C87.6443 190.716 85.603 193.307 86.7021 200.06H95.6054H97.1913H101.666C103.723 193.888 104.509 183.163 104.744 173.144C114.056 170.459 121.844 166.329 128.753 162.152C134.422 172.108 147.596 173.882 148.789 174.071C150.155 177.683 150.768 185.754 149.449 190.763C144.063 191.91 142.901 194.768 143.796 200.06H157.677C160.158 191.596 161.744 179.991 161.916 171.197C159.373 168.088 158.006 163.88 157.378 159.247C163.173 165.827 171.668 170.946 181.403 171.417C184.496 176.709 186.176 182.629 185.721 190.465C179.754 192.161 180.743 197.139 181.623 200.06H194.2C196.556 186.367 194.656 172.893 193.462 165.591C186.443 159.153 185.062 148.066 184.936 139.194C184.873 134.923 185.297 130.683 185.077 127.04C188.893 128.908 193.117 129.584 197.215 129.223C199.916 128.987 202.57 128.312 205.004 127.26C207.453 126.192 209.714 124.716 211.583 122.894C215.399 119.22 217.691 114.163 217.173 108.165C216.765 103.406 214.849 99.1509 212.132 95.3978C209.51 91.7704 206.15 88.6298 202.758 86.023C200.026 83.9188 197.372 82.1443 194.844 80.4327C194.797 80.4013 194.766 80.3856 194.719 80.3542C193.745 79.6946 192.787 79.0508 191.845 78.407L191.578 78.2185C184.355 73.2406 174.133 66.2056 174.525 56.9878C174.635 54.5695 175.515 52.2925 177.21 50.2982C178.891 48.3196 181.372 46.6394 184.669 45.4145L186.381 44.7864L186.836 46.2625C187.762 49.2461 190.934 50.9264 193.886 49.9842L202.193 47.346L201.031 43.593L209.997 40.7507L206.715 30.151L197.749 32.9933L196.587 29.2402L188.281 31.8784C185.329 32.8206 183.68 36.024 184.591 39.0076L184.999 40.3424L183.083 41.049C179.032 42.5566 175.923 44.7079 173.74 47.2518C171.353 50.047 170.097 53.3132 169.94 56.768C169.438 68.5611 180.885 76.4441 188.987 82.0344L189.27 82.2386C190.196 82.8824 191.186 83.5419 192.19 84.2172C192.238 84.2486 192.269 84.28 192.316 84.3114C194.938 86.0701 197.671 87.9074 200.026 89.729C203.104 92.1002 206.15 94.911 208.474 98.1459C210.719 101.255 212.305 104.741 212.635 108.573C213.012 113.048 211.3 116.817 208.458 119.565C206.982 120.994 205.192 122.156 203.214 123.02C201.219 123.883 199.068 124.433 196.854 124.622C191.955 125.045 186.867 123.679 183.005 120.068C181.324 117.885 178.42 116.566 173.395 116.566H78.1758C64.0751 144.345 51.8272 110.818 54.638 134.593Z" fill="white"/>
<path fill-rule="evenodd" clip-rule="evenodd" d="M69.5143 145.19C119.542 120.976 138.966 102.383 138.966 55.6819L122.463 35.5975C124.567 33.1478 126.42 30.2741 127.77 27.1806C131.319 19.0149 130.958 9.81286 123.703 3.53157C117.297 -2.02736 109.775 -0.881026 105.19 5.96557L99.8355 13.9114H39.1302L33.7757 5.96557C29.1907 -0.881026 21.6692 -2.02736 15.2627 3.53157C8.0082 9.81286 7.64704 19.0149 11.1958 27.1806C12.4834 30.1485 14.2577 32.9437 16.2833 35.3306L0 53.4049C0 105.053 17.3197 118.667 69.5143 145.19Z" fill="#FF5D20"/>
<path fill-rule="evenodd" clip-rule="evenodd" d="M53.309 32.7139H85.8286C88.9219 32.7139 91.4657 35.2421 91.4657 38.3513V99.7195C91.4657 102.813 88.9376 105.357 85.8286 105.357H53.309C50.2157 105.357 47.6719 102.829 47.6719 99.7195V38.3356C47.6719 35.2421 50.2157 32.7139 53.309 32.7139Z" fill="white"/>
<path fill-rule="evenodd" clip-rule="evenodd" d="M60.6562 92.0977C60.672 97.0128 64.6603 100.986 69.5752 100.986C74.49 100.986 78.4784 97.0128 78.4941 92.0977H60.6562Z" fill="black"/>
</svg>
