<svg width="77" height="70" viewBox="0 0 77 70" fill="none" xmlns="http://www.w3.org/2000/svg">
<path fill-rule="evenodd" clip-rule="evenodd" d="M19.8058 46.8071H19.6831C20.3494 52.909 20.9982 62.1203 20.6884 65.9486C19.0168 66.235 18.105 66.9597 18.4674 69.5723H20.3669H23.9205C25.1596 66.4688 25.4518 62.9912 25.522 59.3441C26.2292 59.9461 27.065 60.5656 28.0644 61.2144C29.7419 61.3079 31.3141 61.2553 32.7811 61.0916C32.974 62.7866 33.0734 64.4348 32.9974 65.7733C31.2907 66.3227 30.5777 67.2286 30.9634 69.5723H34.0611H34.6105H36.1711C36.89 67.4273 37.1588 63.6984 37.2407 60.2149C40.4786 59.2798 43.1906 57.842 45.5869 56.3925C47.5566 59.8526 52.1389 60.4721 52.5538 60.5364C53.0273 61.793 53.2435 64.5985 52.7876 66.3402C50.9115 66.7376 50.514 67.7312 50.8238 69.5723H55.6516C56.5166 66.6324 57.066 62.5937 57.1244 59.5369C56.2419 58.4557 55.7685 56.9886 55.5464 55.3813C57.5628 57.6725 60.5144 59.4493 63.9043 59.6129C64.9797 61.454 65.5642 63.5114 65.4064 66.235C63.3315 66.8253 63.6764 68.5554 63.9803 69.5723H68.3521C69.1704 64.8089 68.51 60.1273 68.095 57.5848C65.6577 55.3463 65.1726 51.4887 65.1259 48.4086C65.1025 46.924 65.2486 45.4453 65.1726 44.1828C66.4994 44.8316 67.9664 45.0654 69.3925 44.9426C70.3335 44.8608 71.257 44.627 72.1045 44.2588C72.9578 43.8848 73.741 43.3763 74.3956 42.745C75.7223 41.465 76.5172 39.7058 76.3419 37.6251C76.2016 35.971 75.5295 34.4864 74.5885 33.1889C73.6767 31.9264 72.5078 30.8393 71.3271 29.9275C70.3744 29.197 69.4568 28.5774 68.5742 27.9813C68.5626 27.9696 68.545 27.9637 68.5275 27.952C68.1885 27.7241 67.8553 27.502 67.528 27.274L67.4287 27.2039C64.9155 25.4739 61.3619 23.0249 61.4963 19.822C61.5314 18.9862 61.8411 18.1855 62.4314 17.4958C63.0159 16.812 63.8809 16.2217 65.0265 15.795L65.6227 15.5729L65.7805 16.0872C66.1019 17.1276 67.2066 17.7121 68.2294 17.3848L71.1167 16.4671L70.7134 15.1638L73.8345 14.176L72.6948 10.488L69.5737 11.4757L69.1704 10.1724L66.2831 11.09C65.2544 11.4173 64.6817 12.5336 65.0031 13.5682L65.1492 14.0357L64.4829 14.2812C63.0744 14.8072 61.9931 15.5495 61.2333 16.4379C60.4033 17.4081 59.965 18.5479 59.9124 19.746C59.737 23.849 63.7173 26.5902 66.5344 28.5307L66.6338 28.6008C66.9553 28.8229 67.3001 29.0567 67.6508 29.2905C67.6625 29.3022 67.68 29.3139 67.6917 29.3197C68.6035 29.9334 69.5503 30.5705 70.3686 31.2017C71.444 32.0258 72.4961 33.0077 73.3026 34.1241C74.08 35.2053 74.6352 36.4152 74.7463 37.7478C74.8807 39.3025 74.2845 40.6176 73.2909 41.5702C72.7766 42.067 72.1571 42.4703 71.4674 42.7684C70.7777 43.0723 70.0237 43.2594 69.2581 43.3237C67.5573 43.4698 65.7863 42.9964 64.442 41.7397C63.8576 40.9799 62.8464 40.524 61.0988 40.524H27.9943C23.0906 50.1971 18.8298 38.5368 19.8058 46.8071Z" fill="white"/>
<path fill-rule="evenodd" clip-rule="evenodd" d="M24.9843 50.4893C42.3841 42.0671 49.1406 35.6028 49.1406 19.3661L43.4011 12.3817C44.1317 11.5284 44.7804 10.5289 45.248 9.45348C46.4813 6.61294 46.3527 3.41588 43.8336 1.22995C41.6068 -0.704656 38.9942 -0.30137 37.3927 2.07159L35.5341 4.83615H14.4229L12.5643 2.07159C10.9687 -0.307215 8.35025 -0.704656 6.12341 1.22995C3.59848 3.41588 3.4699 6.61879 4.70898 9.45348C5.15903 10.488 5.77272 11.4582 6.47409 12.2882L0.810547 18.5713C0.810547 36.5321 6.83062 41.2722 24.9843 50.4893Z" fill="#FF5D20"/>
<path fill-rule="evenodd" clip-rule="evenodd" d="M19.3505 11.377H30.66C31.7355 11.377 32.618 12.2595 32.618 13.3349V34.6799C32.618 35.7553 31.7355 36.6379 30.66 36.6379H19.3505C18.2751 36.6379 17.3925 35.7553 17.3925 34.6799V13.3349C17.3925 12.2595 18.2751 11.377 19.3505 11.377Z" fill="white"/>
<path fill-rule="evenodd" clip-rule="evenodd" d="M21.905 32.0317C21.9108 33.7384 23.296 35.1178 25.0085 35.1178C26.7152 35.1178 28.1004 33.7384 28.1121 32.0317H21.905Z" fill="black"/>
</svg>
