<svg width="1075" height="161" viewBox="0 0 1075 161" fill="none" xmlns="http://www.w3.org/2000/svg">
<path d="M1032.34 124.028C1032.15 127.296 1030.76 130.38 1028.44 132.689C1026.83 134.224 1024.87 135.339 1022.73 135.938C1020.59 136.536 1018.33 136.599 1016.16 136.121C1013.99 135.643 1011.97 134.639 1010.28 133.196C1008.59 131.753 1007.28 129.917 1006.46 127.849C1005.92 126.387 1005.64 124.841 1005.64 123.283V114.15H1074.93V113.861C1075 107.891 1074.25 101.939 1072.7 96.1734C1071.28 90.8053 1069.02 85.6946 1066.01 81.0284C1063.14 76.574 1059.54 72.6409 1055.35 69.3991C1051.05 66.0953 1046.24 63.5239 1041.1 61.7885C1037.7 60.6373 1034.2 59.7969 1030.65 59.2772C1026.81 58.6978 1022.93 58.4178 1019.05 58.4399C1017.77 58.4399 1016.46 58.44 1015.12 58.5466C1013.78 58.6531 1012.52 58.7139 1011.22 58.8357C1006.12 59.3356 1001.07 60.3556 996.17 61.8799C991.772 63.2164 987.562 65.1089 983.643 67.5117C980.869 69.2239 978.26 71.191 975.85 73.3873C973.534 75.5143 971.433 77.8645 969.579 80.4041C967.738 82.9269 966.157 85.6299 964.86 88.4714C963.515 91.4071 962.454 94.4654 961.694 97.6041C960.722 101.659 960.212 105.81 960.172 109.979C960.138 114.122 960.587 118.254 961.512 122.293C962.405 126.217 963.78 130.016 965.606 133.603C967.372 137.056 969.588 140.26 972.197 143.131C989.245 161.838 1019.11 163.938 1042.06 156.982C1049.57 154.836 1056.53 151.121 1062.49 146.084C1064.23 144.578 1065.82 142.911 1067.24 141.107C1068.64 139.32 1069.88 137.41 1070.94 135.399C1071.95 133.444 1072.8 131.407 1073.48 129.31C1074.03 127.568 1074.48 125.794 1074.82 123.998L1032.34 124.028ZM1005.64 93.8141C1005.76 90.3497 1007.21 87.0665 1009.71 84.6572C1012.2 82.2478 1015.53 80.9009 1018.99 80.9009C1022.46 80.9009 1025.79 82.2478 1028.28 84.6572C1030.78 87.0665 1032.23 90.3497 1032.35 93.8141V98.9286H1005.64V93.8141Z" fill="white"/>
<path d="M875.694 60.8603V60.571H827.336V81.4394H836.271V137.423H827.336V158.291H884.659V137.423H875.694V60.8603Z" fill="white"/>
<path d="M774.63 58.5466C772.596 58.5516 770.564 58.6633 768.542 58.8814C765.056 59.2798 761.629 60.0818 758.328 61.2712C755.258 62.5148 752.342 64.1081 749.637 66.02V11.376H701.264V31.9551H710.199V137.408H701.264V158.291H742.361L746.197 149.631L747.445 150.894C749.521 152.971 751.897 154.726 754.493 156.1C755.855 156.821 757.263 157.452 758.709 157.987C760.205 158.523 761.729 158.975 763.275 159.342C771.577 161.208 780.219 160.915 788.375 158.489C793.377 157.074 798.099 154.808 802.333 151.792C806.504 148.815 810.112 145.119 812.988 140.878C815.967 136.408 818.213 131.491 819.639 126.312C822.992 113.8 822.664 100.588 818.696 88.2584C816.714 82.3199 813.498 76.8679 809.259 72.2609C805.101 67.823 800.005 64.3697 794.342 62.1538C788.06 59.7096 781.37 58.4854 774.63 58.5466ZM776.639 123.267C776.721 124.99 776.446 126.711 775.83 128.322C775.215 129.933 774.272 131.399 773.062 132.628C770.328 135.034 766.811 136.36 763.169 136.357C761.399 136.415 759.628 136.282 757.887 135.962C756.128 135.636 754.409 135.126 752.757 134.439C752.346 134.272 751.905 134.059 751.464 133.831C751.022 133.602 750.626 133.389 750.215 133.131L749.622 132.781V97.3302C749.478 93.4086 750.796 89.5734 753.321 86.5687C754.553 85.2148 756.062 84.1419 757.745 83.4223C759.429 82.7027 761.247 82.3533 763.077 82.3981H763.26C766.803 82.4021 770.2 83.8113 772.705 86.3168C775.211 88.8222 776.62 92.2192 776.624 95.7624V123.206L776.639 123.267Z" fill="white"/>
<path d="M698.372 103.084C697.727 98.0518 696.326 93.1459 694.216 88.5324C692.156 84.0329 689.397 79.8872 686.043 76.2487C683.188 73.1452 679.962 70.4053 676.438 68.0903C672.982 65.851 669.279 64.0173 665.403 62.6258C661.45 61.2268 657.372 60.2074 653.226 59.5815C648.858 58.9235 644.446 58.5929 640.029 58.5923C634.012 58.5879 628.013 59.2568 622.144 60.5864C616.834 61.7783 611.712 63.6938 606.923 66.2791C602.408 68.7065 598.299 71.8235 594.746 75.5181C591.192 79.2439 588.225 83.4885 585.948 88.1061C583.843 92.4225 582.44 97.047 581.792 101.805C581.046 106.89 581.016 112.055 581.701 117.148C582.344 122.17 583.697 127.074 585.72 131.715C588.664 138.674 593.493 144.673 599.662 149.037C602.178 150.83 604.847 152.399 607.638 153.725C612.495 156.014 617.604 157.725 622.859 158.824C628.484 160.016 634.218 160.613 639.968 160.605C641.262 160.605 642.571 160.605 643.91 160.529C645.25 160.453 646.498 160.377 647.776 160.255C654.876 159.632 661.848 157.986 668.477 155.369C674.37 153.066 679.8 149.719 684.505 145.49C686.374 143.767 688.081 141.877 689.604 139.843C691.09 137.857 692.38 135.731 693.455 133.496C695.688 128.807 697.227 123.818 698.022 118.686C698.848 113.544 698.93 108.31 698.265 103.145L698.372 103.084ZM653.393 123.206C653.392 125.188 652.944 127.144 652.084 128.93C651.226 130.699 649.989 132.258 648.461 133.496C648.07 133.873 647.642 134.209 647.183 134.5C646.733 134.79 646.253 135.03 645.752 135.216C644.867 135.637 643.938 135.959 642.982 136.175C642.014 136.406 641.023 136.524 640.029 136.525C639.005 136.527 637.984 136.415 636.985 136.19C636.046 135.965 635.133 135.643 634.26 135.231C633.725 135.043 633.214 134.793 632.738 134.485C632.265 134.183 631.821 133.837 631.414 133.45C629.909 132.201 628.689 130.644 627.837 128.884C626.994 127.11 626.557 125.17 626.558 123.206V95.6558C626.558 92.1114 627.966 88.7123 630.472 86.2061C632.979 83.6998 636.378 82.2919 639.922 82.2919C643.467 82.2919 646.866 83.6998 649.372 86.2061C651.879 88.7123 653.287 92.1114 653.287 95.6558V123.206H653.393Z" fill="white"/>
<path d="M568.956 84.1336C569.085 79.8193 568.237 75.5315 566.475 71.5914C564.969 68.4298 562.633 65.7361 559.716 63.7979C556.635 61.8152 553.206 60.4362 549.61 59.734C545.385 58.8962 541.084 58.5034 536.778 58.5619C524.845 58.3919 513.085 61.4304 502.728 67.3598L502.348 67.588L502.195 67.6946L501.861 67.8923L500.125 67.7251L499.806 67.3293C498.35 65.5395 496.568 64.0415 494.554 62.915C492.17 61.5543 489.609 60.5299 486.944 59.8707C483.577 59.0776 480.141 58.6139 476.685 58.4857C472.722 58.3391 468.753 58.4867 464.812 58.9272L462.498 59.2468L459.972 59.7035C459.18 59.8709 458.282 60.0686 457.293 60.3122C456.303 60.5557 455.451 60.7535 454.507 61.0123C453.564 61.2711 452.574 61.5452 451.463 61.88C450.352 62.2149 449.378 62.5497 448.297 62.9302C447.262 63.2955 446.273 63.6611 445.359 64.0264C444.446 64.3918 443.365 64.8024 442.315 65.2439L440.656 65.9291V60.4798H392.283V81.3633H401.233V137.317H392.298V158.2H447.719V137.317H440.626V92.8401C440.606 92.1 440.667 91.3599 440.808 90.6331C440.953 89.9349 441.178 89.2555 441.478 88.6086C441.947 87.65 442.599 86.792 443.396 86.082C444.253 85.3181 445.224 84.6913 446.273 84.2247C447.325 83.7685 448.422 83.4217 449.545 83.1897C450.747 82.9378 451.97 82.8002 453.198 82.7787C454.544 82.7395 455.89 82.8363 457.217 83.0679C458.401 83.2576 459.554 83.6114 460.642 84.1184C461.6 84.5672 462.447 85.2221 463.123 86.0363C463.754 86.7928 464.239 87.6598 464.553 88.5933C464.899 89.6295 465.124 90.7022 465.223 91.79C465.339 92.9328 465.385 94.0816 465.36 95.23C465.36 109.249 465.36 123.298 465.36 137.317H458.313V158.2H511.876V137.317H504.798V97.026V96.2344C504.756 94.2633 504.961 92.2945 505.407 90.3741C505.772 88.7856 506.531 87.3148 507.614 86.0972C508.733 84.9476 510.135 84.1127 511.678 83.6769C513.586 83.1521 515.56 82.906 517.538 82.9463C519.38 82.9118 521.217 83.1529 522.988 83.6617C524.443 84.084 525.765 84.8759 526.823 85.9601C527.843 87.0973 528.569 88.4661 528.939 89.9479C529.384 91.7029 529.584 93.5112 529.533 95.321V96.0211V137.408H522.47V158.291H577.921V137.408H568.956V84.1336Z" fill="white"/>
<path d="M248.351 11.3759V11.0867H200.009V31.955H208.928V137.423H200.009V158.291H257.301V137.423H248.351V11.3759Z" fill="white"/>
<path d="M373.378 100.861C373.5 82.809 369.147 68.8965 350.546 61.7577C333.803 55.3344 303.985 56.5674 287.926 63.417C282.204 65.7754 277.481 70.0516 274.568 75.5119C271.655 80.9721 270.732 87.2758 271.959 93.3418H310.91C310.91 83.7677 318.521 79.9626 325.02 80.2822C332.859 80.6628 334.153 84.0416 334.062 90.2976V101.896H330.591C325.294 101.896 320.012 101.896 314.731 102.109C305.857 102.49 295.278 103.038 286.221 106.021C277.165 109.005 269.98 114.195 267.134 123.982C266.058 127.79 265.727 131.77 266.16 135.703C266.543 139.459 267.721 143.091 269.615 146.357C270.905 148.539 272.528 150.506 274.425 152.187C276.421 153.956 278.655 155.437 281.061 156.586C284.061 157.987 287.235 158.981 290.499 159.539C294.426 160.245 298.411 160.576 302.402 160.529C305.853 160.526 309.3 160.297 312.722 159.844C316.005 159.423 319.241 158.694 322.387 157.667C325.235 156.741 327.976 155.511 330.561 153.999C333.266 152.415 335.783 150.531 338.065 148.382L339.283 147.24L339.998 148.763C341.417 151.729 343.777 154.142 346.711 155.627C350.212 157.409 354.092 158.318 358.02 158.276H382.313V137.408H373.378V100.877V100.861ZM333.986 128.122C333.98 129.836 333.296 131.478 332.083 132.689C330.404 134.29 328.283 135.351 325.994 135.733C323.492 136.322 320.887 136.322 318.384 135.733C317.086 135.447 315.867 134.877 314.817 134.063C313.766 133.249 312.909 132.212 312.307 131.026C311.706 129.841 311.375 128.537 311.339 127.208C311.303 125.88 311.562 124.56 312.097 123.343C312.93 121.565 314.263 120.068 315.933 119.035C320.865 115.991 327.303 116.296 332.844 116.798L333.955 116.905L333.986 128.122Z" fill="white"/>
<path d="M943.509 11.376H895.136V31.9551H904.086V137.423H895.136V158.291H952.535V137.423H943.509V11.376Z" fill="white"/>
<path d="M830.791 17.6622C825.327 24.9227 825.768 36.9324 832.009 43.6449C841.035 53.3409 863.274 52.9604 871.356 42.199C876.82 34.9385 876.394 22.9136 870.153 16.2163C861.127 6.52034 838.889 6.90079 830.791 17.6622Z" fill="white"/>
<path fill-rule="evenodd" clip-rule="evenodd" d="M43.6405 107.559H43.3512C44.8734 121.41 46.3955 141.137 45.6344 149.828C41.8291 150.483 39.759 152.126 40.5962 158.047H52.9558C55.7718 151.015 56.4263 143.131 56.5937 134.835C58.4182 136.38 60.3456 137.799 62.3626 139.082C65.9157 139.283 69.4794 139.192 73.0174 138.808C73.4748 142.34 73.6377 145.904 73.5045 149.463C69.6383 150.711 68.0249 152.766 68.9381 158.078H80.7498C82.3785 153.207 82.9873 144.744 83.1852 136.844C89.8599 134.821 96.2297 131.903 102.12 128.168C106.595 136.022 116.992 137.423 117.935 137.575C119.192 141.858 119.375 146.386 118.468 150.757C114.206 151.655 113.293 153.922 114.008 158.078H124.967C127.001 150.631 128.12 142.964 128.301 135.246C126.277 132.481 125.041 129.22 124.724 125.809C127.086 128.593 129.98 130.876 133.237 132.526C136.494 134.175 140.048 135.157 143.69 135.414C146.352 139.954 147.543 145.207 147.099 150.452C142.396 151.791 143.172 155.719 143.872 158.063H153.796C155.653 147.256 154.162 136.631 153.218 130.862C147.678 125.794 146.582 117.042 146.49 110.04C146.49 106.661 146.764 104.499 146.597 101.623C149.571 103.06 152.882 103.655 156.171 103.342C158.271 103.179 160.329 102.664 162.259 101.82C164.188 100.996 165.951 99.831 167.465 98.3802C169.034 96.9062 170.247 95.0947 171.011 93.0825C171.776 91.0704 172.073 88.9105 171.879 86.7666C171.502 83.1076 170.128 79.6222 167.907 76.69C165.802 73.8825 163.306 71.3915 160.494 69.2927C158.332 67.6336 156.247 66.2482 154.253 64.8783H154.147C153.386 64.3608 152.624 63.8585 151.879 63.3562L151.65 63.2042C145.942 59.2771 137.951 53.7214 138.195 46.4608C138.274 44.5144 139.021 42.6547 140.31 41.1944C141.905 39.4266 143.929 38.1002 146.186 37.3433L147.541 36.8409L147.906 37.9977C148.076 38.5565 148.355 39.0761 148.727 39.5266C149.099 39.977 149.556 40.3494 150.073 40.6224C150.589 40.8955 151.154 41.0637 151.736 41.1174C152.317 41.1711 152.904 41.1092 153.462 40.9353L160.007 38.8655L159.093 35.897L166.171 33.6595L163.584 25.2879L156.506 27.5406L155.593 24.4963L149.032 26.5818C147.913 26.9618 146.985 27.7608 146.442 28.8111C145.9 29.8614 145.786 31.0811 146.125 32.2136L146.46 33.2638L144.938 33.8271C142.097 34.8007 139.555 36.4885 137.555 38.7283C135.714 40.8091 134.64 43.4569 134.511 46.2323C134.115 55.5325 143.157 61.7733 149.55 66.1723L149.778 66.3242L152.076 67.8464H152.168C154.238 69.2467 156.399 70.6928 158.256 72.1236C160.783 74.0079 163.027 76.2427 164.923 78.7602C166.741 81.1518 167.872 83.9933 168.196 86.9796C168.345 88.5807 168.127 90.1949 167.557 91.6987C166.987 93.2024 166.081 94.5557 164.908 95.6556C163.698 96.8029 162.297 97.7302 160.768 98.3955C159.171 99.0789 157.475 99.5054 155.745 99.659C153.775 99.8602 151.786 99.6443 149.905 99.0254C148.025 98.4064 146.296 97.3982 144.831 96.0666C143.507 94.3314 141.209 93.2966 137.221 93.2966H62.2256C51.0836 115.215 41.4182 88.73 43.6405 107.528V107.559Z" fill="white"/>
<path fill-rule="evenodd" clip-rule="evenodd" d="M55.3913 114.987C94.8752 95.8687 110.188 81.1952 110.188 44.3446L97.1583 28.4995C98.8823 26.5069 100.294 24.2639 101.344 21.8476C104.16 15.409 103.871 8.14848 98.1477 3.18636C93.0943 -1.19736 87.158 -0.299289 83.5201 5.10425L79.3038 11.3756H31.3874L27.1711 5.10425C23.5485 -0.299289 17.6122 -1.19736 12.5588 3.18636C6.83557 8.14848 6.54636 15.3634 9.34707 21.8476C10.3688 24.1765 11.7223 26.3451 13.3655 28.2862L0.50354 42.5486V42.6705C0.50354 83.3264 14.2026 94.0878 55.3 114.987H55.3913Z" fill="#FF5D20"/>
<path fill-rule="evenodd" clip-rule="evenodd" d="M42.6057 28.3625H68.2687C69.4489 28.3666 70.5794 28.8384 71.4125 29.6743C72.2456 30.5103 72.7133 31.6425 72.7133 32.8226V81.2563C72.7133 82.4351 72.2451 83.5655 71.4115 84.3991C70.578 85.2326 69.4475 85.7012 68.2687 85.7012H42.6057C41.4269 85.7012 40.2965 85.2326 39.4629 84.3991C38.6294 83.5655 38.1611 82.4351 38.1611 81.2563V32.8226C38.1611 31.6425 38.6289 30.5103 39.462 29.6743C40.2951 28.8384 41.4256 28.3666 42.6057 28.3625Z" fill="white"/>
<path fill-rule="evenodd" clip-rule="evenodd" d="M48.4047 72.8389C48.4087 74.7013 49.1514 76.4862 50.4697 77.8017C51.7881 79.1173 53.5744 79.856 55.4369 79.856C57.2993 79.856 59.0857 79.1173 60.404 77.8017C61.7224 76.4862 62.465 74.7013 62.4691 72.8389H48.4047Z" fill="black"/>
</svg>
