<svg width="1073" height="162" viewBox="0 0 1073 162" fill="none" xmlns="http://www.w3.org/2000/svg">
<g clip-path="url(#clip0_1830_26096)">
<path d="M1032.61 124.528C1032.42 127.796 1031.03 130.88 1028.71 133.189C1027.1 134.724 1025.14 135.839 1023 136.438C1020.86 137.036 1018.6 137.1 1016.43 136.621C1014.26 136.143 1012.24 135.139 1010.55 133.696C1008.86 132.254 1007.55 130.417 1006.73 128.349C1006.19 126.887 1005.91 125.341 1005.91 123.783V114.65H1075.2V114.361C1075.27 108.391 1074.52 102.439 1072.97 96.6735C1071.55 91.3054 1069.29 86.1947 1066.28 81.5284C1063.41 77.074 1059.81 73.141 1055.62 69.8992C1051.32 66.5954 1046.51 64.0239 1041.37 62.2886C1037.97 61.1374 1034.47 60.297 1030.92 59.7772C1027.08 59.1979 1023.2 58.9179 1019.32 58.94C1018.04 58.94 1016.73 58.9401 1015.39 59.0466C1014.05 59.1532 1012.79 59.214 1011.49 59.3358C1006.39 59.8356 1001.34 60.8557 996.441 62.38C992.043 63.7165 987.833 65.609 983.914 68.0118C981.14 69.7239 978.53 71.6911 976.121 73.8873C973.805 76.0143 971.704 78.3645 969.85 80.9041C968.008 83.427 966.428 86.1299 965.131 88.9715C963.785 91.9071 962.725 94.9655 961.965 98.1042C960.993 102.159 960.482 106.31 960.443 110.479C960.408 114.622 960.858 118.755 961.782 122.793C962.676 126.717 964.051 130.516 965.877 134.103C967.643 137.556 969.859 140.76 972.468 143.631C989.516 162.338 1019.38 164.438 1042.33 157.482C1049.84 155.336 1056.8 151.621 1062.76 146.584C1064.5 145.078 1066.09 143.411 1067.51 141.607C1068.91 139.82 1070.15 137.91 1071.21 135.899C1072.22 133.944 1073.08 131.908 1073.75 129.81C1074.3 128.068 1074.75 126.294 1075.09 124.498L1032.61 124.528ZM1005.91 94.3141C1006.03 90.8498 1007.48 87.5666 1009.98 85.1572C1012.47 82.7479 1015.8 81.401 1019.27 81.401C1022.73 81.401 1026.06 82.7479 1028.55 85.1572C1031.05 87.5666 1032.51 90.8498 1032.62 94.3141V99.4286H1005.91V94.3141Z" fill="black"/>
<path d="M875.965 61.3602V61.071H827.607V81.9393H836.542V137.923H827.607V158.791H884.93V137.923H875.965V61.3602Z" fill="black"/>
<path d="M774.901 59.0466C772.867 59.0516 770.835 59.1634 768.813 59.3814C765.327 59.7798 761.9 60.5819 758.599 61.7713C755.529 63.0149 752.613 64.6082 749.908 66.5201V11.876H701.535V32.4552H710.47V137.908H701.535V158.791H742.632L746.468 150.131L747.716 151.394C749.792 153.471 752.168 155.226 754.763 156.6C756.126 157.321 757.534 157.952 758.98 158.487C760.475 159.023 762 159.475 763.546 159.842C771.848 161.708 780.49 161.415 788.646 158.989C793.648 157.574 798.369 155.308 802.604 152.292C806.774 149.315 810.382 145.619 813.258 141.378C816.238 136.908 818.484 131.991 819.91 126.812C823.263 114.301 822.935 101.088 818.966 88.7585C816.985 82.8199 813.768 77.368 809.529 72.761C805.372 68.323 800.275 64.8698 794.612 62.6539C788.331 60.2096 781.641 58.9855 774.901 59.0466ZM776.91 123.767C776.992 125.49 776.717 127.211 776.101 128.822C775.486 130.433 774.543 131.899 773.333 133.128C770.599 135.534 767.081 136.86 763.439 136.857C761.67 136.915 759.899 136.782 758.158 136.462C756.399 136.136 754.68 135.626 753.028 134.939C752.617 134.772 752.176 134.559 751.734 134.331C751.293 134.102 750.897 133.889 750.486 133.631L749.893 133.281V97.8303C749.749 93.9087 751.067 90.0735 753.591 87.0688C754.824 85.7149 756.333 84.6419 758.016 83.9223C759.699 83.2027 761.518 82.8534 763.348 82.8982H763.531C767.074 82.9022 770.471 84.3114 772.976 86.8168C775.482 89.3222 776.891 92.7193 776.895 96.2625V123.706L776.91 123.767Z" fill="black"/>
<path d="M698.643 103.584C697.998 98.5518 696.597 93.6458 694.487 89.0323C692.427 84.5329 689.668 80.3872 686.314 76.7487C683.459 73.6451 680.233 70.9052 676.709 68.5903C673.253 66.351 669.55 64.5173 665.674 63.1257C661.72 61.7267 657.643 60.7073 653.497 60.0815C649.129 59.4235 644.717 59.0929 640.3 59.0922C634.283 59.0878 628.284 59.7567 622.415 61.0863C617.105 62.2783 611.983 64.1937 607.194 66.779C602.679 69.2064 598.57 72.3234 595.017 76.0181C591.463 79.7439 588.496 83.9884 586.219 88.6061C584.114 92.9224 582.711 97.5469 582.063 102.305C581.317 107.39 581.287 112.555 581.972 117.648C582.615 122.67 583.968 127.574 585.991 132.215C588.935 139.174 593.764 145.173 599.933 149.537C602.449 151.33 605.118 152.899 607.909 154.225C612.766 156.514 617.875 158.225 623.13 159.324C628.755 160.516 634.489 161.113 640.239 161.105C641.533 161.105 642.842 161.105 644.181 161.029C645.521 160.953 646.769 160.877 648.047 160.755C655.147 160.132 662.119 158.486 668.748 155.869C674.641 153.566 680.071 150.219 684.776 145.99C686.645 144.267 688.352 142.377 689.875 140.343C691.361 138.357 692.651 136.231 693.726 133.996C695.959 129.307 697.498 124.318 698.293 119.186C699.119 114.044 699.201 108.81 698.536 103.645L698.643 103.584ZM653.664 123.706C653.663 125.688 653.215 127.644 652.355 129.429C651.497 131.199 650.26 132.758 648.732 133.996C648.341 134.373 647.913 134.709 647.454 135C647.004 135.29 646.524 135.53 646.023 135.716C645.138 136.137 644.209 136.459 643.253 136.675C642.285 136.906 641.294 137.024 640.3 137.025C639.276 137.027 638.255 136.915 637.256 136.69C636.317 136.464 635.404 136.143 634.531 135.731C633.996 135.543 633.485 135.293 633.009 134.985C632.536 134.683 632.092 134.337 631.685 133.95C630.18 132.701 628.96 131.144 628.108 129.384C627.265 127.61 626.828 125.67 626.829 123.706V96.1557C626.829 92.6113 628.237 89.2123 630.743 86.706C633.25 84.1997 636.649 82.7918 640.193 82.7918C643.738 82.7918 647.137 84.1997 649.643 86.706C652.15 89.2123 653.558 92.6113 653.558 96.1557V123.706H653.664Z" fill="black"/>
<path d="M569.227 84.6336C569.356 80.3193 568.508 76.0315 566.745 72.0914C565.24 68.9298 562.904 66.2361 559.987 64.2979C556.906 62.3152 553.476 60.9362 549.88 60.234C545.656 59.3962 541.355 59.0034 537.049 59.0619C525.116 58.8919 513.356 61.9304 502.999 67.8598L502.618 68.088L502.466 68.1946L502.131 68.3923L500.396 68.2251L500.076 67.8293C498.621 66.0395 496.839 64.5415 494.825 63.415C492.441 62.0543 489.88 61.0299 487.215 60.3707C483.848 59.5776 480.412 59.1139 476.955 58.9857C472.992 58.8391 469.024 58.9867 465.083 59.4272L462.769 59.7468L460.243 60.2035C459.451 60.3709 458.553 60.5686 457.564 60.8122C456.574 61.0557 455.722 61.2535 454.778 61.5123C453.834 61.7711 452.845 62.0452 451.734 62.38C450.623 62.7149 449.649 63.0497 448.568 63.4302C447.533 63.7955 446.543 64.1611 445.63 64.5264C444.717 64.8918 443.636 65.3024 442.586 65.7439L440.927 66.4291V60.9798H392.554V81.8633H401.504V137.817H392.569V158.7H447.989V137.817H440.896V93.3401C440.876 92.6 440.938 91.8599 441.079 91.1331C441.224 90.4349 441.449 89.7555 441.749 89.1086C442.218 88.15 442.87 87.292 443.667 86.582C444.524 85.8181 445.494 85.1913 446.543 84.7247C447.596 84.2685 448.693 83.9217 449.816 83.6897C451.018 83.4378 452.241 83.3002 453.469 83.2787C454.815 83.2395 456.161 83.3363 457.487 83.5679C458.672 83.7576 459.825 84.1114 460.912 84.6184C461.87 85.0672 462.718 85.7221 463.393 86.5363C464.024 87.2928 464.51 88.1598 464.824 89.0933C465.17 90.1295 465.395 91.2022 465.494 92.29C465.61 93.4328 465.655 94.5816 465.631 95.73C465.631 109.749 465.631 123.798 465.631 137.817H458.583V158.7H512.147V137.817H505.069V97.526V96.7344C505.027 94.7633 505.232 92.7945 505.678 90.8741C506.042 89.2856 506.801 87.8148 507.885 86.5972C509.004 85.4476 510.405 84.6127 511.949 84.1769C513.857 83.6521 515.831 83.406 517.809 83.4463C519.651 83.4118 521.488 83.6529 523.258 84.1617C524.714 84.584 526.035 85.3759 527.094 86.4601C528.114 87.5973 528.84 88.9661 529.21 90.4479C529.655 92.2029 529.855 94.0112 529.804 95.821V96.5211V137.908H522.741V158.791H578.192V137.908H569.227V84.6336Z" fill="black"/>
<path d="M248.622 11.8759V11.5867H200.279V32.455H209.199V137.923H200.279V158.791H257.572V137.923H248.622V11.8759Z" fill="black"/>
<path d="M373.649 101.361C373.771 83.3091 369.417 69.3966 350.817 62.2578C334.074 55.8345 304.255 57.0675 288.197 63.9171C282.475 66.2754 277.752 70.5517 274.839 76.0119C271.925 81.4721 271.003 87.7758 272.23 93.8419H311.181C311.181 84.2677 318.792 80.4627 325.291 80.7823C333.13 81.1628 334.424 84.5417 334.333 90.7976V102.396H330.862C325.565 102.396 320.283 102.396 315.002 102.609C306.128 102.99 295.549 103.538 286.492 106.521C277.436 109.505 270.251 114.695 267.405 124.482C266.329 128.29 265.998 132.27 266.431 136.203C266.814 139.959 267.992 143.591 269.886 146.858C271.176 149.039 272.799 151.006 274.696 152.687C276.692 154.456 278.926 155.937 281.332 157.086C284.332 158.487 287.506 159.481 290.769 160.039C294.697 160.745 298.682 161.076 302.672 161.029C306.124 161.026 309.571 160.797 312.992 160.344C316.275 159.923 319.512 159.194 322.658 158.167C325.506 157.241 328.247 156.011 330.832 154.499C333.537 152.915 336.054 151.031 338.336 148.882L339.553 147.74L340.269 149.263C341.688 152.229 344.048 154.642 346.981 156.127C350.482 157.909 354.363 158.818 358.291 158.776H382.584V137.908H373.649V101.377V101.361ZM334.256 128.623C334.251 130.336 333.567 131.978 332.354 133.189C330.675 134.791 328.554 135.851 326.265 136.233C323.763 136.822 321.157 136.822 318.655 136.233C317.357 135.947 316.138 135.377 315.087 134.563C314.037 133.749 313.18 132.712 312.578 131.526C311.977 130.341 311.646 129.037 311.61 127.708C311.573 126.38 311.833 125.06 312.368 123.843C313.201 122.065 314.534 120.568 316.204 119.535C321.136 116.491 327.574 116.796 333.115 117.298L334.226 117.405L334.256 128.623Z" fill="black"/>
<path d="M943.78 11.876H895.407V32.4551H904.357V137.923H895.407V158.791H952.806V137.923H943.78V11.876Z" fill="black"/>
<path d="M831.062 18.1622C825.598 25.4227 826.039 37.4324 832.28 44.1449C841.306 53.8409 863.544 53.4604 871.627 42.699C877.091 35.4385 876.665 23.4136 870.424 16.7163C861.398 7.02034 839.16 7.40079 831.062 18.1622Z" fill="black"/>
<path fill-rule="evenodd" clip-rule="evenodd" d="M43.9114 108.059H43.6222C45.1444 121.91 46.6665 141.637 45.9054 150.328C42.1001 150.983 40.03 152.626 40.8672 158.547H53.2268C56.0428 151.515 56.6973 143.631 56.8647 135.335C58.6892 136.88 60.6166 138.299 62.6336 139.582C66.1867 139.783 69.7504 139.692 73.2884 139.308C73.7458 142.84 73.9087 146.404 73.7755 149.963C69.9093 151.211 68.2959 153.266 69.2091 158.578H81.0208C82.6495 153.707 83.2583 145.244 83.4562 137.344C90.1309 135.321 96.5007 132.403 102.391 128.668C106.866 136.523 117.263 137.923 118.206 138.075C119.463 142.359 119.646 146.886 118.739 151.257C114.477 152.155 113.564 154.423 114.279 158.578H125.238C127.272 151.131 128.391 143.464 128.572 135.746C126.548 132.982 125.312 129.72 124.995 126.309C127.357 129.093 130.251 131.377 133.508 133.026C136.765 134.675 140.319 135.657 143.961 135.914C146.623 140.454 147.814 145.707 147.37 150.952C142.667 152.292 143.443 156.219 144.143 158.563H154.067C155.924 147.756 154.433 137.131 153.489 131.363C147.949 126.294 146.853 117.542 146.761 110.54C146.761 107.161 147.035 104.999 146.868 102.123C149.842 103.56 153.153 104.155 156.442 103.842C158.542 103.679 160.6 103.164 162.53 102.32C164.459 101.496 166.222 100.331 167.736 98.8803C169.305 97.4062 170.518 95.5948 171.282 93.5826C172.047 91.5704 172.344 89.4106 172.15 87.2667C171.773 83.6077 170.399 80.1223 168.178 77.1901C166.073 74.3825 163.577 71.8915 160.765 69.7927C158.603 68.1336 156.518 66.7483 154.524 65.3784H154.418C153.657 64.8608 152.895 64.3585 152.15 63.8562L151.921 63.7043C146.213 59.7772 138.222 54.2214 138.466 46.9609C138.545 45.0144 139.292 43.1547 140.581 41.6944C142.176 39.9267 144.2 38.6002 146.457 37.8434L147.812 37.341L148.177 38.4978C148.347 39.0566 148.626 39.5761 148.998 40.0266C149.37 40.4771 149.827 40.8495 150.344 41.1225C150.86 41.3955 151.425 41.5638 152.007 41.6175C152.588 41.6712 153.175 41.6093 153.733 41.4354L160.278 39.3655L159.364 36.3971L166.442 34.1596L163.855 25.7879L156.777 28.0406L155.864 24.9964L149.303 27.0819C148.184 27.4618 147.256 28.2609 146.713 29.3112C146.171 30.3615 146.057 31.5812 146.396 32.7137L146.731 33.7638L145.209 34.3272C142.368 35.3008 139.826 36.9885 137.826 39.2284C135.985 41.3092 134.911 43.957 134.782 46.7324C134.386 56.0325 143.428 62.2734 149.821 66.6723L150.049 66.8243L152.347 68.3464H152.439C154.509 69.7468 156.67 71.1929 158.527 72.6237C161.053 74.508 163.298 76.7428 165.194 79.2603C167.012 81.6519 168.143 84.4934 168.467 87.4796C168.616 89.0807 168.398 90.695 167.828 92.1987C167.258 93.7024 166.352 95.0558 165.179 96.1556C163.969 97.303 162.568 98.2302 161.039 98.8955C159.442 99.5789 157.746 100.005 156.016 100.159C154.046 100.36 152.057 100.144 150.176 99.5254C148.296 98.9065 146.567 97.8982 145.102 96.5666C143.778 94.8314 141.48 93.7966 137.492 93.7966H62.4966C51.3546 115.715 41.6891 89.2301 43.9114 108.028V108.059Z" fill="black"/>
<path fill-rule="evenodd" clip-rule="evenodd" d="M55.6624 115.487C95.1463 96.3689 110.459 81.6954 110.459 44.8448L97.4295 28.9996C99.1534 27.0071 100.565 24.7641 101.615 22.3478C104.431 15.9092 104.142 8.64866 98.4188 3.68654C93.3654 -0.697173 87.4291 0.200894 83.7912 5.60443L79.575 11.8758H31.6585L27.4422 5.60443C23.8196 0.200894 17.8833 -0.697173 12.8299 3.68654C7.10669 8.64866 6.81748 15.8635 9.61819 22.3478C10.6399 24.6767 11.9934 26.8453 13.6366 28.7863L0.774658 43.0488V43.1707C0.774658 83.8266 14.4738 94.588 55.5711 115.487H55.6624Z" fill="#FF5D20"/>
<path fill-rule="evenodd" clip-rule="evenodd" d="M42.8765 28.8627H68.5395C69.7197 28.8667 70.8501 29.3385 71.6832 30.1745C72.5163 31.0104 72.9841 32.1426 72.9841 33.3228V81.7564C72.9841 82.9352 72.5158 84.0656 71.6823 84.8992C70.8488 85.7327 69.7183 86.2013 68.5395 86.2013H42.8765C41.6977 86.2013 40.5672 85.7327 39.7337 84.8992C38.9002 84.0656 38.4319 82.9352 38.4319 81.7564V33.3228C38.4319 32.1426 38.8997 31.0104 39.7328 30.1745C40.5658 29.3385 41.6963 28.8667 42.8765 28.8627Z" fill="white"/>
<path fill-rule="evenodd" clip-rule="evenodd" d="M48.6757 73.3389C48.6797 75.2013 49.4223 76.9863 50.7407 78.3018C52.0591 79.6173 53.8454 80.3561 55.7079 80.3561C57.5703 80.3561 59.3567 79.6173 60.675 78.3018C61.9934 76.9863 62.736 75.2013 62.7401 73.3389H48.6757Z" fill="black"/>
</g>
<defs>
<clipPath id="clip0_1830_26096">
<rect width="1071.89" height="160.28" fill="white" transform="translate(0.789673 0.901489)"/>
</clipPath>
</defs>
</svg>
