<svg width="162" height="169" viewBox="0 0 162 169" fill="none" xmlns="http://www.w3.org/2000/svg">
<path fill-rule="evenodd" clip-rule="evenodd" d="M80.7853 168.728C138.933 140.582 161.512 118.979 161.512 64.7188L142.331 41.3778C144.773 38.5261 146.941 35.1861 148.504 31.5922C152.625 22.0995 152.195 11.4154 143.777 4.11031C136.335 -2.35486 127.604 -1.00713 122.252 6.92295L116.041 16.1617H45.4906L39.2793 6.92295C33.947 -1.02667 25.1966 -2.35486 17.7548 4.11031C9.31687 11.4154 8.88717 22.119 13.028 31.5922C14.532 35.0494 16.5829 38.2917 18.9267 41.0653L0 62.0624C0 122.085 20.1182 137.926 80.7853 168.728Z" fill="#FF5D20"/>
<path fill-rule="evenodd" clip-rule="evenodd" d="M61.9563 38.0206H99.7511C103.345 38.0206 106.294 40.97 106.294 44.5639V115.896C106.294 119.49 103.345 122.439 99.7511 122.439H61.9563C58.3623 122.439 55.413 119.49 55.413 115.896V44.5639C55.413 40.97 58.3623 38.0206 61.9563 38.0206Z" fill="white"/>
<path fill-rule="evenodd" clip-rule="evenodd" d="M70.4922 107.044C70.5117 112.747 75.1409 117.357 80.8638 117.357C86.5672 117.357 91.1963 112.747 91.2354 107.044H70.4922Z" fill="black"/>
</svg>
