<svg width="744" height="694" viewBox="0 0 744 694" fill="none" xmlns="http://www.w3.org/2000/svg">
<mask id="path-1-inside-1_2115_34330" fill="white">
<path fill-rule="evenodd" clip-rule="evenodd" d="M0 0.570312H426.666V121.717H744V362.946H672.43V568.809H411.357V693.111H121.244V469.147H0.123047V242.132H0V0.570312Z"/>
</mask>
<path d="M426.666 0.570312H427.479V-0.242861H426.666V0.570312ZM0 0.570312V-0.242861H-0.813173V0.570312H0ZM426.666 121.717H425.853V122.53H426.666V121.717ZM744 121.717H744.813V120.904H744V121.717ZM744 362.946V363.759H744.813V362.946H744ZM672.43 362.946V362.133H671.617V362.946H672.43ZM672.43 568.809V569.623H673.243V568.809H672.43ZM411.357 568.809V567.996H410.544V568.809H411.357ZM411.357 693.111V693.924H412.17V693.111H411.357ZM121.244 693.111H120.431V693.924H121.244V693.111ZM121.244 469.147H122.057V468.334H121.244V469.147ZM0.123047 469.147H-0.690126V469.96H0.123047V469.147ZM0.123047 242.132H0.93622V241.319H0.123047V242.132ZM0 242.132H-0.813173V242.945H0V242.132ZM426.666 -0.242861H0V1.38349H426.666V-0.242861ZM427.479 121.717V0.570312H425.853V121.717H427.479ZM426.666 122.53H744V120.904H426.666V122.53ZM743.187 121.717V362.946H744.813V121.717H743.187ZM744 362.133H672.43V363.759H744V362.133ZM673.243 568.809V362.946H671.617V568.809H673.243ZM411.357 569.623H672.43V567.996H411.357V569.623ZM412.17 693.111V568.809H410.544V693.111H412.17ZM121.244 693.924H411.357V692.297H121.244V693.924ZM120.431 469.147V693.111H122.057V469.147H120.431ZM0.123047 469.96H121.244V468.334H0.123047V469.96ZM-0.690126 242.132V469.147H0.93622V242.132H-0.690126ZM0 242.945H0.123047V241.319H0V242.945ZM-0.813173 0.570312V242.132H0.813173V0.570312H-0.813173Z" fill="black" mask="url(#path-1-inside-1_2115_34330)"/>
<path d="M170.678 125.012V112.052H172.28V118.136L177.95 112.052H179.966L174.08 118.343L180.425 125.012H178.355L172.28 118.676V125.012H170.678ZM182.223 129.332L184.104 124.22L184.131 125.732L179.883 115.292H181.566L184.896 123.689H184.32L187.443 115.292H189.072L183.78 129.332H182.223ZM189.479 125.012L193.196 120.098L189.56 115.292H191.468L194.132 118.856L196.769 115.292H198.677L195.041 120.098L198.767 125.012H196.85L194.132 121.34L191.396 125.012H189.479ZM200.2 125.012V115.292H201.802V119.387H206.914V115.292H208.516V125.012H206.914V120.908H201.802V125.012H200.2ZM217.04 125.012V121.493H214.943C214.697 121.493 214.424 121.484 214.124 121.466C213.83 121.442 213.554 121.409 213.296 121.367C212.594 121.235 212 120.926 211.514 120.44C211.034 119.954 210.794 119.282 210.794 118.424C210.794 117.59 211.019 116.921 211.469 116.417C211.925 115.907 212.486 115.577 213.152 115.427C213.452 115.355 213.755 115.316 214.061 115.31C214.373 115.298 214.637 115.292 214.853 115.292H218.642L218.651 125.012H217.04ZM210.497 125.012L213.08 121.052H214.808L212.225 125.012H210.497ZM214.826 120.17H217.04V116.615H214.826C214.688 116.615 214.505 116.621 214.277 116.633C214.055 116.645 213.842 116.681 213.638 116.741C213.446 116.795 213.257 116.894 213.071 117.038C212.891 117.182 212.741 117.368 212.621 117.596C212.501 117.824 212.441 118.094 212.441 118.406C212.441 118.856 212.567 119.222 212.819 119.504C213.071 119.78 213.377 119.966 213.737 120.062C213.935 120.11 214.13 120.14 214.322 120.152C214.52 120.164 214.688 120.17 214.826 120.17Z" fill="black"/>
<path d="M540.751 244.17V231.21H539.131L532.372 241.335V231.21H530.752V244.17H532.372L539.131 234.036V244.17H540.751ZM543.267 244.17V234.45H550.017V235.971H544.869V244.17H543.267ZM556.187 244.44C555.275 244.44 554.507 244.215 553.883 243.765C553.259 243.309 552.785 242.694 552.461 241.92C552.143 241.14 551.984 240.267 551.984 239.301C551.984 238.323 552.143 237.447 552.461 236.673C552.785 235.899 553.259 235.29 553.883 234.846C554.513 234.402 555.284 234.18 556.196 234.18C557.096 234.18 557.87 234.405 558.518 234.855C559.172 235.299 559.673 235.908 560.021 236.682C560.369 237.456 560.543 238.329 560.543 239.301C560.543 240.273 560.369 241.146 560.021 241.92C559.673 242.694 559.172 243.309 558.518 243.765C557.87 244.215 557.093 244.44 556.187 244.44ZM551.714 248.49V234.45H553.145V241.605H553.325V248.49H551.714ZM555.989 242.973C556.631 242.973 557.162 242.811 557.582 242.487C558.002 242.163 558.317 241.725 558.527 241.173C558.737 240.615 558.842 239.991 558.842 239.301C558.842 238.617 558.737 237.999 558.527 237.447C558.323 236.895 558.005 236.457 557.573 236.133C557.147 235.809 556.604 235.647 555.944 235.647C555.314 235.647 554.792 235.803 554.378 236.115C553.964 236.421 553.655 236.85 553.451 237.402C553.247 237.948 553.145 238.581 553.145 239.301C553.145 240.009 553.244 240.642 553.442 241.2C553.646 241.752 553.958 242.187 554.378 242.505C554.798 242.817 555.335 242.973 555.989 242.973ZM566.656 244.44C565.69 244.44 564.856 244.221 564.154 243.783C563.458 243.345 562.921 242.739 562.543 241.965C562.165 241.191 561.976 240.303 561.976 239.301C561.976 238.281 562.168 237.387 562.552 236.619C562.936 235.851 563.479 235.254 564.181 234.828C564.883 234.396 565.708 234.18 566.656 234.18C567.628 234.18 568.465 234.399 569.167 234.837C569.869 235.269 570.406 235.872 570.778 236.646C571.156 237.414 571.345 238.299 571.345 239.301C571.345 240.315 571.156 241.209 570.778 241.983C570.4 242.751 569.86 243.354 569.158 243.792C568.456 244.224 567.622 244.44 566.656 244.44ZM566.656 242.919C567.664 242.919 568.414 242.583 568.906 241.911C569.398 241.239 569.644 240.369 569.644 239.301C569.644 238.203 569.395 237.33 568.897 236.682C568.399 236.028 567.652 235.701 566.656 235.701C565.978 235.701 565.42 235.854 564.982 236.16C564.544 236.466 564.217 236.889 564.001 237.429C563.785 237.969 563.677 238.593 563.677 239.301C563.677 240.393 563.929 241.269 564.433 241.929C564.937 242.589 565.678 242.919 566.656 242.919ZM573.317 244.17V234.45L577.457 234.45C577.703 234.45 577.967 234.465 578.249 234.495C578.537 234.519 578.798 234.564 579.032 234.63C579.554 234.768 579.983 235.053 580.319 235.485C580.661 235.911 580.832 236.451 580.832 237.105C580.832 237.471 580.775 237.789 580.661 238.059C580.553 238.329 580.397 238.563 580.193 238.761C580.103 238.851 580.004 238.932 579.896 239.004C579.788 239.076 579.68 239.133 579.572 239.175C579.782 239.211 579.995 239.292 580.211 239.418C580.553 239.604 580.82 239.865 581.012 240.201C581.21 240.537 581.309 240.966 581.309 241.488C581.309 242.148 581.15 242.694 580.832 243.126C580.514 243.552 580.076 243.846 579.518 244.008C579.284 244.074 579.026 244.119 578.744 244.143C578.462 244.161 578.189 244.17 577.925 244.17H573.317ZM574.937 242.865H577.835C577.961 242.865 578.111 242.853 578.285 242.829C578.465 242.805 578.624 242.775 578.762 242.739C579.074 242.649 579.299 242.481 579.437 242.235C579.581 241.989 579.653 241.722 579.653 241.434C579.653 241.05 579.545 240.738 579.329 240.498C579.119 240.258 578.84 240.108 578.492 240.048C578.366 240.012 578.228 239.991 578.078 239.985C577.934 239.979 577.805 239.976 577.691 239.976H574.937V242.865ZM574.937 238.653H577.349C577.517 238.653 577.694 238.644 577.88 238.626C578.066 238.602 578.228 238.563 578.366 238.509C578.642 238.407 578.843 238.239 578.969 238.005C579.101 237.765 579.167 237.504 579.167 237.222C579.167 236.91 579.095 236.637 578.951 236.403C578.813 236.163 578.6 235.998 578.312 235.908C578.12 235.836 577.904 235.797 577.664 235.791C577.43 235.779 577.28 235.773 577.214 235.773L574.937 235.773V238.653ZM585.88 244.44C585.154 244.44 584.545 244.308 584.053 244.044C583.567 243.774 583.198 243.42 582.946 242.982C582.7 242.544 582.577 242.064 582.577 241.542C582.577 241.032 582.673 240.591 582.865 240.219C583.063 239.841 583.339 239.529 583.693 239.283C584.047 239.031 584.47 238.833 584.962 238.689C585.424 238.563 585.94 238.455 586.51 238.365C587.086 238.269 587.668 238.182 588.256 238.104C588.844 238.026 589.393 237.951 589.903 237.879L589.327 238.212C589.345 237.348 589.171 236.709 588.805 236.295C588.445 235.881 587.821 235.674 586.933 235.674C586.345 235.674 585.829 235.809 585.385 236.079C584.947 236.343 584.638 236.775 584.458 237.375L582.937 236.916C583.171 236.064 583.624 235.395 584.296 234.909C584.968 234.423 585.853 234.18 586.951 234.18C587.833 234.18 588.589 234.339 589.219 234.657C589.855 234.969 590.311 235.443 590.587 236.079C590.725 236.379 590.812 236.706 590.848 237.06C590.884 237.408 590.902 237.774 590.902 238.158V244.17H589.48V241.839L589.813 242.055C589.447 242.841 588.934 243.435 588.274 243.837C587.62 244.239 586.822 244.44 585.88 244.44ZM586.123 243.099C586.699 243.099 587.197 242.997 587.617 242.793C588.043 242.583 588.385 242.31 588.643 241.974C588.901 241.632 589.069 241.26 589.147 240.858C589.237 240.558 589.285 240.225 589.291 239.859C589.303 239.487 589.309 239.202 589.309 239.004L589.867 239.247C589.345 239.319 588.832 239.388 588.328 239.454C587.824 239.52 587.347 239.592 586.897 239.67C586.447 239.742 586.042 239.829 585.682 239.931C585.418 240.015 585.169 240.123 584.935 240.255C584.707 240.387 584.521 240.558 584.377 240.768C584.239 240.972 584.17 241.227 584.17 241.533C584.17 241.797 584.236 242.049 584.368 242.289C584.506 242.529 584.716 242.724 584.998 242.874C585.286 243.024 585.661 243.099 586.123 243.099ZM599.245 244.17V240.651H597.148C596.902 240.651 596.629 240.642 596.329 240.624C596.035 240.6 595.759 240.567 595.501 240.525C594.799 240.393 594.205 240.084 593.719 239.598C593.239 239.112 592.999 238.44 592.999 237.582C592.999 236.748 593.224 236.079 593.674 235.575C594.13 235.065 594.691 234.735 595.357 234.585C595.657 234.513 595.96 234.474 596.266 234.468C596.578 234.456 596.842 234.45 597.058 234.45H600.847L600.856 244.17H599.245ZM592.702 244.17L595.285 240.21H597.013L594.43 244.17H592.702ZM597.031 239.328H599.245V235.773H597.031C596.893 235.773 596.71 235.779 596.482 235.791C596.26 235.803 596.047 235.839 595.843 235.899C595.651 235.953 595.462 236.052 595.276 236.196C595.096 236.34 594.946 236.526 594.826 236.754C594.706 236.982 594.646 237.252 594.646 237.564C594.646 238.014 594.772 238.38 595.024 238.662C595.276 238.938 595.582 239.124 595.942 239.22C596.14 239.268 596.335 239.298 596.527 239.31C596.725 239.322 596.893 239.328 597.031 239.328Z" fill="black"/>
<path d="M230.599 586.609C229.309 586.609 228.214 586.324 227.314 585.754C226.414 585.184 225.727 584.392 225.253 583.378C224.785 582.364 224.551 581.191 224.551 579.859C224.551 578.527 224.785 577.354 225.253 576.34C225.727 575.326 226.414 574.534 227.314 573.964C228.214 573.394 229.309 573.109 230.599 573.109C232.099 573.109 233.332 573.49 234.298 574.252C235.27 575.014 235.939 576.04 236.305 577.33L234.676 577.762C234.412 576.796 233.941 576.034 233.263 575.476C232.585 574.918 231.697 574.639 230.599 574.639C229.633 574.639 228.829 574.858 228.187 575.296C227.545 575.734 227.062 576.346 226.738 577.132C226.414 577.912 226.249 578.821 226.243 579.859C226.237 580.891 226.396 581.8 226.72 582.586C227.044 583.366 227.53 583.978 228.178 584.422C228.826 584.86 229.633 585.079 230.599 585.079C231.697 585.079 232.585 584.8 233.263 584.242C233.941 583.678 234.412 582.916 234.676 581.956L236.305 582.388C235.939 583.672 235.27 584.698 234.298 585.466C233.332 586.228 232.099 586.609 230.599 586.609ZM238.27 586.339V576.619H246.235V586.339H244.633V578.14H239.872V586.339H238.27ZM251.519 586.609C250.793 586.609 250.184 586.477 249.692 586.213C249.206 585.943 248.837 585.589 248.585 585.151C248.339 584.713 248.216 584.233 248.216 583.711C248.216 583.201 248.312 582.76 248.504 582.388C248.702 582.01 248.978 581.698 249.332 581.452C249.686 581.2 250.109 581.002 250.601 580.858C251.063 580.732 251.579 580.624 252.149 580.534C252.725 580.438 253.307 580.351 253.895 580.273C254.483 580.195 255.032 580.12 255.542 580.048L254.966 580.381C254.984 579.517 254.81 578.878 254.444 578.464C254.084 578.05 253.46 577.843 252.572 577.843C251.984 577.843 251.468 577.978 251.024 578.248C250.586 578.512 250.277 578.944 250.097 579.544L248.576 579.085C248.81 578.233 249.263 577.564 249.935 577.078C250.607 576.592 251.492 576.349 252.59 576.349C253.472 576.349 254.228 576.508 254.858 576.826C255.494 577.138 255.95 577.612 256.226 578.248C256.364 578.548 256.451 578.875 256.487 579.229C256.523 579.577 256.541 579.943 256.541 580.327V586.339H255.119V584.008L255.452 584.224C255.086 585.01 254.573 585.604 253.913 586.006C253.259 586.408 252.461 586.609 251.519 586.609ZM251.762 585.268C252.338 585.268 252.836 585.166 253.256 584.962C253.682 584.752 254.024 584.479 254.282 584.143C254.54 583.801 254.708 583.429 254.786 583.027C254.876 582.727 254.924 582.394 254.93 582.028C254.942 581.656 254.948 581.371 254.948 581.173L255.506 581.416C254.984 581.488 254.471 581.557 253.967 581.623C253.463 581.689 252.986 581.761 252.536 581.839C252.086 581.911 251.681 581.998 251.321 582.1C251.057 582.184 250.808 582.292 250.574 582.424C250.346 582.556 250.16 582.727 250.016 582.937C249.878 583.141 249.809 583.396 249.809 583.702C249.809 583.966 249.875 584.218 250.007 584.458C250.145 584.698 250.355 584.893 250.637 585.043C250.925 585.193 251.3 585.268 251.762 585.268ZM257.981 586.339V584.962C258.341 585.028 258.614 585.016 258.8 584.926C258.992 584.83 259.133 584.665 259.223 584.431C259.319 584.191 259.397 583.891 259.457 583.531C259.559 582.961 259.646 582.325 259.718 581.623C259.796 580.921 259.865 580.153 259.925 579.319C259.991 578.479 260.051 577.579 260.105 576.619H266.9V586.339H265.298V578.14H261.563C261.527 578.692 261.482 579.259 261.428 579.841C261.38 580.423 261.329 580.99 261.275 581.542C261.221 582.088 261.161 582.598 261.095 583.072C261.035 583.54 260.969 583.945 260.897 584.287C260.783 584.875 260.624 585.346 260.42 585.7C260.216 586.048 259.922 586.273 259.538 586.375C259.154 586.483 258.635 586.471 257.981 586.339ZM269.428 586.339L269.419 576.619H271.03V580.138H273.127C273.409 580.138 273.697 580.144 273.991 580.156C274.285 580.168 274.54 580.195 274.756 580.237C275.26 580.333 275.701 580.501 276.079 580.741C276.457 580.981 276.751 581.308 276.961 581.722C277.171 582.13 277.276 582.637 277.276 583.243C277.276 584.083 277.057 584.749 276.619 585.241C276.187 585.727 275.62 586.051 274.918 586.213C274.678 586.267 274.402 586.303 274.09 586.321C273.784 586.333 273.493 586.339 273.217 586.339H269.428ZM271.03 585.016H273.244C273.424 585.016 273.625 585.01 273.847 584.998C274.069 584.986 274.267 584.956 274.441 584.908C274.747 584.818 275.02 584.641 275.26 584.377C275.506 584.113 275.629 583.735 275.629 583.243C275.629 582.745 275.509 582.361 275.269 582.091C275.035 581.821 274.726 581.644 274.342 581.56C274.168 581.518 273.985 581.491 273.793 581.479C273.601 581.467 273.418 581.461 273.244 581.461H271.03V585.016ZM278.981 586.339V576.619H280.583V580.714H285.695V576.619H287.297V586.339H285.695V582.235H280.583V586.339H278.981ZM295.821 586.339V582.82H293.724C293.478 582.82 293.205 582.811 292.905 582.793C292.611 582.769 292.335 582.736 292.077 582.694C291.375 582.562 290.781 582.253 290.295 581.767C289.815 581.281 289.575 580.609 289.575 579.751C289.575 578.917 289.8 578.248 290.25 577.744C290.706 577.234 291.267 576.904 291.933 576.754C292.233 576.682 292.536 576.643 292.842 576.637C293.154 576.625 293.418 576.619 293.634 576.619H297.423L297.432 586.339H295.821ZM289.278 586.339L291.861 582.379H293.589L291.006 586.339H289.278ZM293.607 581.497H295.821V577.942H293.607C293.469 577.942 293.286 577.948 293.058 577.96C292.836 577.972 292.623 578.008 292.419 578.068C292.227 578.122 292.038 578.221 291.852 578.365C291.672 578.509 291.522 578.695 291.402 578.923C291.282 579.151 291.222 579.421 291.222 579.733C291.222 580.183 291.348 580.549 291.6 580.831C291.852 581.107 292.158 581.293 292.518 581.389C292.716 581.437 292.911 581.467 293.103 581.479C293.301 581.491 293.469 581.497 293.607 581.497Z" fill="black"/>
<path d="M156.416 330.533V317.573H166.532V330.533H164.93V319.094H158.018V330.533H156.416ZM173.519 330.803C172.607 330.803 171.839 330.578 171.215 330.128C170.591 329.672 170.117 329.057 169.793 328.283C169.475 327.503 169.316 326.63 169.316 325.664C169.316 324.686 169.475 323.81 169.793 323.036C170.117 322.262 170.591 321.653 171.215 321.209C171.845 320.765 172.616 320.543 173.528 320.543C174.428 320.543 175.202 320.768 175.85 321.218C176.504 321.662 177.005 322.271 177.353 323.045C177.701 323.819 177.875 324.692 177.875 325.664C177.875 326.636 177.701 327.509 177.353 328.283C177.005 329.057 176.504 329.672 175.85 330.128C175.202 330.578 174.425 330.803 173.519 330.803ZM169.046 334.853V320.813H170.477V327.968H170.657V334.853H169.046ZM173.321 329.336C173.963 329.336 174.494 329.174 174.914 328.85C175.334 328.526 175.649 328.088 175.859 327.536C176.069 326.978 176.174 326.354 176.174 325.664C176.174 324.98 176.069 324.362 175.859 323.81C175.655 323.258 175.337 322.82 174.905 322.496C174.479 322.172 173.936 322.01 173.276 322.01C172.646 322.01 172.124 322.166 171.71 322.478C171.296 322.784 170.987 323.213 170.783 323.765C170.579 324.311 170.477 324.944 170.477 325.664C170.477 326.372 170.576 327.005 170.774 327.563C170.978 328.115 171.29 328.55 171.71 328.868C172.13 329.18 172.667 329.336 173.321 329.336ZM187.804 320.813V330.533H186.256V323.369L181.162 330.533H179.839V320.813H181.387V327.878L186.49 320.813H187.804ZM189.244 330.533L192.961 325.619L189.325 320.813H191.233L193.897 324.377L196.534 320.813H198.442L194.806 325.619L198.532 330.533H196.615L193.897 326.861L191.161 330.533H189.244ZM203.763 330.803C202.797 330.803 201.963 330.584 201.261 330.146C200.565 329.708 200.028 329.102 199.65 328.328C199.272 327.554 199.083 326.666 199.083 325.664C199.083 324.644 199.275 323.75 199.659 322.982C200.043 322.214 200.586 321.617 201.288 321.191C201.99 320.759 202.815 320.543 203.763 320.543C204.735 320.543 205.572 320.762 206.274 321.2C206.976 321.632 207.513 322.235 207.885 323.009C208.263 323.777 208.452 324.662 208.452 325.664C208.452 326.678 208.263 327.572 207.885 328.346C207.507 329.114 206.967 329.717 206.265 330.155C205.563 330.587 204.729 330.803 203.763 330.803ZM203.763 329.282C204.771 329.282 205.521 328.946 206.013 328.274C206.505 327.602 206.751 326.732 206.751 325.664C206.751 324.566 206.502 323.693 206.004 323.045C205.506 322.391 204.759 322.064 203.763 322.064C203.085 322.064 202.527 322.217 202.089 322.523C201.651 322.829 201.324 323.252 201.108 323.792C200.892 324.332 200.784 324.956 200.784 325.664C200.784 326.756 201.036 327.632 201.54 328.292C202.044 328.952 202.785 329.282 203.763 329.282ZM209.125 330.533L213.049 325.673L209.314 320.813H211.096L214.705 325.583V320.813H216.163V325.583L219.772 320.813H221.554L217.819 325.673L221.743 330.533H219.88L216.163 325.763V330.533H214.705V325.763L210.988 330.533H209.125ZM225.589 330.803C224.863 330.803 224.254 330.671 223.762 330.407C223.276 330.137 222.907 329.783 222.655 329.345C222.409 328.907 222.286 328.427 222.286 327.905C222.286 327.395 222.382 326.954 222.574 326.582C222.772 326.204 223.048 325.892 223.402 325.646C223.756 325.394 224.179 325.196 224.671 325.052C225.133 324.926 225.649 324.818 226.219 324.728C226.795 324.632 227.377 324.545 227.965 324.467C228.553 324.389 229.102 324.314 229.612 324.242L229.036 324.575C229.054 323.711 228.88 323.072 228.514 322.658C228.154 322.244 227.53 322.037 226.642 322.037C226.054 322.037 225.538 322.172 225.094 322.442C224.656 322.706 224.347 323.138 224.167 323.738L222.646 323.279C222.88 322.427 223.333 321.758 224.005 321.272C224.677 320.786 225.562 320.543 226.66 320.543C227.542 320.543 228.298 320.702 228.928 321.02C229.564 321.332 230.02 321.806 230.296 322.442C230.434 322.742 230.521 323.069 230.557 323.423C230.593 323.771 230.611 324.137 230.611 324.521V330.533H229.189V328.202L229.522 328.418C229.156 329.204 228.643 329.798 227.983 330.2C227.329 330.602 226.531 330.803 225.589 330.803ZM225.832 329.462C226.408 329.462 226.906 329.36 227.326 329.156C227.752 328.946 228.094 328.673 228.352 328.337C228.61 327.995 228.778 327.623 228.856 327.221C228.946 326.921 228.994 326.588 229 326.222C229.012 325.85 229.018 325.565 229.018 325.367L229.576 325.61C229.054 325.682 228.541 325.751 228.037 325.817C227.533 325.883 227.056 325.955 226.606 326.033C226.156 326.105 225.751 326.192 225.391 326.294C225.127 326.378 224.878 326.486 224.644 326.618C224.416 326.75 224.23 326.921 224.086 327.131C223.948 327.335 223.879 327.59 223.879 327.896C223.879 328.16 223.945 328.412 224.077 328.652C224.215 328.892 224.425 329.087 224.707 329.237C224.995 329.387 225.37 329.462 225.832 329.462ZM238.954 330.533V327.014H236.857C236.611 327.014 236.338 327.005 236.038 326.987C235.744 326.963 235.468 326.93 235.21 326.888C234.508 326.756 233.914 326.447 233.428 325.961C232.948 325.475 232.708 324.803 232.708 323.945C232.708 323.111 232.933 322.442 233.383 321.938C233.839 321.428 234.4 321.098 235.066 320.948C235.366 320.876 235.669 320.837 235.975 320.831C236.287 320.819 236.551 320.813 236.767 320.813H240.556L240.565 330.533H238.954ZM232.411 330.533L234.994 326.573H236.722L234.139 330.533H232.411ZM236.74 325.691H238.954V322.136H236.74C236.602 322.136 236.419 322.142 236.191 322.154C235.969 322.166 235.756 322.202 235.552 322.262C235.36 322.316 235.171 322.415 234.985 322.559C234.805 322.703 234.655 322.889 234.535 323.117C234.415 323.345 234.355 323.615 234.355 323.927C234.355 324.377 234.481 324.743 234.733 325.025C234.985 325.301 235.291 325.487 235.651 325.583C235.849 325.631 236.044 325.661 236.236 325.673C236.434 325.685 236.602 325.691 236.74 325.691Z" fill="black"/>
<path d="M468.238 463.902V450.942H473.287C474.061 450.942 474.721 451.101 475.267 451.419C475.819 451.737 476.239 452.157 476.527 452.679C476.821 453.195 476.968 453.753 476.968 454.353C476.968 455.055 476.788 455.67 476.428 456.198C476.068 456.726 475.582 457.089 474.97 457.287L474.952 456.846C475.786 457.068 476.434 457.476 476.896 458.07C477.358 458.664 477.589 459.372 477.589 460.194C477.589 460.95 477.433 461.604 477.121 462.156C476.815 462.708 476.371 463.137 475.789 463.443C475.213 463.749 474.529 463.902 473.737 463.902H468.238ZM469.858 462.372H473.431C473.911 462.372 474.34 462.285 474.718 462.111C475.096 461.931 475.393 461.679 475.609 461.355C475.831 461.031 475.942 460.641 475.942 460.185C475.942 459.747 475.843 459.354 475.645 459.006C475.453 458.658 475.18 458.382 474.826 458.178C474.478 457.968 474.073 457.863 473.611 457.863H469.858V462.372ZM469.858 456.351H473.269C473.653 456.351 473.998 456.27 474.304 456.108C474.616 455.94 474.862 455.706 475.042 455.406C475.228 455.106 475.321 454.755 475.321 454.353C475.321 453.795 475.132 453.339 474.754 452.985C474.376 452.631 473.881 452.454 473.269 452.454H469.858V456.351ZM482.146 464.172C481.42 464.172 480.811 464.04 480.319 463.776C479.833 463.506 479.464 463.152 479.212 462.714C478.966 462.276 478.843 461.796 478.843 461.274C478.843 460.764 478.939 460.323 479.131 459.951C479.329 459.573 479.605 459.261 479.959 459.015C480.313 458.763 480.736 458.565 481.228 458.421C481.69 458.295 482.206 458.187 482.776 458.097C483.352 458.001 483.934 457.914 484.522 457.836C485.11 457.758 485.659 457.683 486.169 457.611L485.593 457.944C485.611 457.08 485.437 456.441 485.071 456.027C484.711 455.613 484.087 455.406 483.199 455.406C482.611 455.406 482.095 455.541 481.651 455.811C481.213 456.075 480.904 456.507 480.724 457.107L479.203 456.648C479.437 455.796 479.89 455.127 480.562 454.641C481.234 454.155 482.119 453.912 483.217 453.912C484.099 453.912 484.855 454.071 485.485 454.389C486.121 454.701 486.577 455.175 486.853 455.811C486.991 456.111 487.078 456.438 487.114 456.792C487.15 457.14 487.168 457.506 487.168 457.89V463.902H485.746V461.571L486.079 461.787C485.713 462.573 485.2 463.167 484.54 463.569C483.886 463.971 483.088 464.172 482.146 464.172ZM482.389 462.831C482.965 462.831 483.463 462.729 483.883 462.525C484.309 462.315 484.651 462.042 484.909 461.706C485.167 461.364 485.335 460.992 485.413 460.59C485.503 460.29 485.551 459.957 485.557 459.591C485.569 459.219 485.575 458.934 485.575 458.736L486.133 458.979C485.611 459.051 485.098 459.12 484.594 459.186C484.09 459.252 483.613 459.324 483.163 459.402C482.713 459.474 482.308 459.561 481.948 459.663C481.684 459.747 481.435 459.855 481.201 459.987C480.973 460.119 480.787 460.29 480.643 460.5C480.505 460.704 480.436 460.959 480.436 461.265C480.436 461.529 480.502 461.781 480.634 462.021C480.772 462.261 480.982 462.456 481.264 462.606C481.552 462.756 481.927 462.831 482.389 462.831ZM489.499 463.902V454.182H491.101V458.277H496.213V454.182H497.815V463.902H496.213V459.798H491.101V463.902H489.499ZM500.327 463.902V454.182H501.929V458.277H507.041V454.182H508.643V463.902H507.041V459.798H501.929V463.902H500.327ZM513.927 464.172C513.201 464.172 512.592 464.04 512.1 463.776C511.614 463.506 511.245 463.152 510.993 462.714C510.747 462.276 510.624 461.796 510.624 461.274C510.624 460.764 510.72 460.323 510.912 459.951C511.11 459.573 511.386 459.261 511.74 459.015C512.094 458.763 512.517 458.565 513.009 458.421C513.471 458.295 513.987 458.187 514.557 458.097C515.133 458.001 515.715 457.914 516.303 457.836C516.891 457.758 517.44 457.683 517.95 457.611L517.374 457.944C517.392 457.08 517.218 456.441 516.852 456.027C516.492 455.613 515.868 455.406 514.98 455.406C514.392 455.406 513.876 455.541 513.432 455.811C512.994 456.075 512.685 456.507 512.505 457.107L510.984 456.648C511.218 455.796 511.671 455.127 512.343 454.641C513.015 454.155 513.9 453.912 514.998 453.912C515.88 453.912 516.636 454.071 517.266 454.389C517.902 454.701 518.358 455.175 518.634 455.811C518.772 456.111 518.859 456.438 518.895 456.792C518.931 457.14 518.949 457.506 518.949 457.89V463.902H517.527V461.571L517.86 461.787C517.494 462.573 516.981 463.167 516.321 463.569C515.667 463.971 514.869 464.172 513.927 464.172ZM514.17 462.831C514.746 462.831 515.244 462.729 515.664 462.525C516.09 462.315 516.432 462.042 516.69 461.706C516.948 461.364 517.116 460.992 517.194 460.59C517.284 460.29 517.332 459.957 517.338 459.591C517.35 459.219 517.356 458.934 517.356 458.736L517.914 458.979C517.392 459.051 516.879 459.12 516.375 459.186C515.871 459.252 515.394 459.324 514.944 459.402C514.494 459.474 514.089 459.561 513.729 459.663C513.465 459.747 513.216 459.855 512.982 459.987C512.754 460.119 512.568 460.29 512.424 460.5C512.286 460.704 512.217 460.959 512.217 461.265C512.217 461.529 512.283 461.781 512.415 462.021C512.553 462.261 512.763 462.456 513.045 462.606C513.333 462.756 513.708 462.831 514.17 462.831ZM527.292 463.902V460.383H525.195C524.949 460.383 524.676 460.374 524.376 460.356C524.082 460.332 523.806 460.299 523.548 460.257C522.846 460.125 522.252 459.816 521.766 459.33C521.286 458.844 521.046 458.172 521.046 457.314C521.046 456.48 521.271 455.811 521.721 455.307C522.177 454.797 522.738 454.467 523.404 454.317C523.704 454.245 524.007 454.206 524.313 454.2C524.625 454.188 524.889 454.182 525.105 454.182H528.894L528.903 463.902H527.292ZM520.749 463.902L523.332 459.942H525.06L522.477 463.902H520.749ZM525.078 459.06H527.292V455.505H525.078C524.94 455.505 524.757 455.511 524.529 455.523C524.307 455.535 524.094 455.571 523.89 455.631C523.698 455.685 523.509 455.784 523.323 455.928C523.143 456.072 522.993 456.258 522.873 456.486C522.753 456.714 522.693 456.984 522.693 457.296C522.693 457.746 522.819 458.112 523.071 458.394C523.323 458.67 523.629 458.856 523.989 458.952C524.187 459 524.382 459.03 524.574 459.042C524.772 459.054 524.94 459.06 525.078 459.06Z" fill="black"/>
</svg>
