<svg width="554" height="516" viewBox="0 0 554 516" fill="none" xmlns="http://www.w3.org/2000/svg">
<mask id="path-1-inside-1_1017:10109" fill="white">
<path fill-rule="evenodd" clip-rule="evenodd" d="M0.574707 0H317.951V90.1146H554V269.553H500.762V422.685H306.563V515.147H90.762V348.551H0.666351V179.686H0.574707V0Z"/>
</mask>
<path d="M317.951 0H318.764V-0.813173H317.951V0ZM0.574707 0V-0.813173H-0.238466V0H0.574707ZM317.951 90.1146H317.138V90.9278H317.951V90.1146ZM554 90.1146H554.813V89.3015H554V90.1146ZM554 269.553V270.367H554.813V269.553H554ZM500.762 269.553V268.74H499.948V269.553H500.762ZM500.762 422.685V423.498H501.575V422.685H500.762ZM306.563 422.685V421.872H305.75V422.685H306.563ZM306.563 515.147V515.96H307.376V515.147H306.563ZM90.762 515.147H89.9488V515.96H90.762V515.147ZM90.762 348.551H91.5752V347.738H90.762V348.551ZM0.666351 348.551H-0.146822V349.365H0.666351V348.551ZM0.666351 179.686H1.47952V178.873H0.666351V179.686ZM0.574707 179.686H-0.238466V180.499H0.574707V179.686ZM317.951 -0.813173H0.574707V0.813173H317.951V-0.813173ZM318.764 90.1146V0H317.138V90.1146H318.764ZM317.951 90.9278H554V89.3015H317.951V90.9278ZM553.187 90.1146V269.553H554.813V90.1146H553.187ZM554 268.74H500.762V270.367H554V268.74ZM501.575 422.685V269.553H499.948V422.685H501.575ZM306.563 423.498H500.762V421.872H306.563V423.498ZM307.376 515.147V422.685H305.75V515.147H307.376ZM90.762 515.96H306.563V514.334H90.762V515.96ZM89.9488 348.551V515.147H91.5752V348.551H89.9488ZM0.666351 349.365H90.762V347.738H0.666351V349.365ZM-0.146822 179.686V348.551H1.47952V179.686H-0.146822ZM0.574707 180.499H0.666351V178.873H0.574707V180.499ZM-0.238466 0V179.686H1.38788V0H-0.238466Z" fill="white" mask="url(#path-1-inside-1_1017:10109)"/>
<path d="M121.389 98.2012V85.2412H122.991V91.3252L128.661 85.2412H130.677L124.791 91.5322L131.136 98.2012H129.066L122.991 91.8652V98.2012H121.389ZM132.935 102.521L134.816 97.4092L134.843 98.9212L130.595 88.4812H132.278L135.608 96.8782H135.032L138.155 88.4812H139.784L134.492 102.521H132.935ZM140.19 98.2012L143.907 93.2872L140.271 88.4812H142.179L144.843 92.0452L147.48 88.4812H149.388L145.752 93.2872L149.478 98.2012H147.561L144.843 94.5292L142.107 98.2012H140.19ZM150.912 98.2012V88.4812H152.514V92.5762H157.626V88.4812H159.228V98.2012H157.626V94.0972H152.514V98.2012H150.912ZM167.752 98.2012V94.6822H165.655C165.409 94.6822 165.136 94.6732 164.836 94.6552C164.542 94.6312 164.266 94.5982 164.008 94.5562C163.306 94.4242 162.712 94.1152 162.226 93.6292C161.746 93.1432 161.506 92.4712 161.506 91.6132C161.506 90.7792 161.731 90.1102 162.181 89.6062C162.637 89.0962 163.198 88.7662 163.864 88.6162C164.164 88.5442 164.467 88.5052 164.773 88.4992C165.085 88.4872 165.349 88.4812 165.565 88.4812H169.354L169.363 98.2012H167.752ZM161.209 98.2012L163.792 94.2412H165.52L162.937 98.2012H161.209ZM165.538 93.3592H167.752V89.8042H165.538C165.4 89.8042 165.217 89.8102 164.989 89.8222C164.767 89.8342 164.554 89.8702 164.35 89.9302C164.158 89.9842 163.969 90.0832 163.783 90.2272C163.603 90.3712 163.453 90.5572 163.333 90.7852C163.213 91.0132 163.153 91.2832 163.153 91.5952C163.153 92.0452 163.279 92.4112 163.531 92.6932C163.783 92.9692 164.089 93.1552 164.449 93.2512C164.647 93.2992 164.842 93.3292 165.034 93.3412C165.232 93.3532 165.4 93.3592 165.538 93.3592Z" fill="white"/>
<path d="M396.395 186.837V173.877H394.775L388.016 184.002V173.877H386.396V186.837H388.016L394.775 176.703V186.837H396.395ZM398.912 186.837V177.117H405.662V178.638H400.514V186.837H398.912ZM411.831 187.107C410.919 187.107 410.151 186.882 409.527 186.432C408.903 185.976 408.429 185.361 408.105 184.587C407.787 183.807 407.628 182.934 407.628 181.968C407.628 180.99 407.787 180.114 408.105 179.34C408.429 178.566 408.903 177.957 409.527 177.513C410.157 177.069 410.928 176.847 411.84 176.847C412.74 176.847 413.514 177.072 414.162 177.522C414.816 177.966 415.317 178.575 415.665 179.349C416.013 180.123 416.187 180.996 416.187 181.968C416.187 182.94 416.013 183.813 415.665 184.587C415.317 185.361 414.816 185.976 414.162 186.432C413.514 186.882 412.737 187.107 411.831 187.107ZM407.358 191.157V177.117H408.789V184.272H408.969V191.157H407.358ZM411.633 185.64C412.275 185.64 412.806 185.478 413.226 185.154C413.646 184.83 413.961 184.392 414.171 183.84C414.381 183.282 414.486 182.658 414.486 181.968C414.486 181.284 414.381 180.666 414.171 180.114C413.967 179.562 413.649 179.124 413.217 178.8C412.791 178.476 412.248 178.314 411.588 178.314C410.958 178.314 410.436 178.47 410.022 178.782C409.608 179.088 409.299 179.517 409.095 180.069C408.891 180.615 408.789 181.248 408.789 181.968C408.789 182.676 408.888 183.309 409.086 183.867C409.29 184.419 409.602 184.854 410.022 185.172C410.442 185.484 410.979 185.64 411.633 185.64ZM422.3 187.107C421.334 187.107 420.5 186.888 419.798 186.45C419.102 186.012 418.565 185.406 418.187 184.632C417.809 183.858 417.62 182.97 417.62 181.968C417.62 180.948 417.812 180.054 418.196 179.286C418.58 178.518 419.123 177.921 419.825 177.495C420.527 177.063 421.352 176.847 422.3 176.847C423.272 176.847 424.109 177.066 424.811 177.504C425.513 177.936 426.05 178.539 426.422 179.313C426.8 180.081 426.989 180.966 426.989 181.968C426.989 182.982 426.8 183.876 426.422 184.65C426.044 185.418 425.504 186.021 424.802 186.459C424.1 186.891 423.266 187.107 422.3 187.107ZM422.3 185.586C423.308 185.586 424.058 185.25 424.55 184.578C425.042 183.906 425.288 183.036 425.288 181.968C425.288 180.87 425.039 179.997 424.541 179.349C424.043 178.695 423.296 178.368 422.3 178.368C421.622 178.368 421.064 178.521 420.626 178.827C420.188 179.133 419.861 179.556 419.645 180.096C419.429 180.636 419.321 181.26 419.321 181.968C419.321 183.06 419.573 183.936 420.077 184.596C420.581 185.256 421.322 185.586 422.3 185.586ZM428.962 186.837V177.117H433.102C433.348 177.117 433.612 177.132 433.894 177.162C434.182 177.186 434.443 177.231 434.677 177.297C435.199 177.435 435.628 177.72 435.964 178.152C436.306 178.578 436.477 179.118 436.477 179.772C436.477 180.138 436.42 180.456 436.306 180.726C436.198 180.996 436.042 181.23 435.838 181.428C435.748 181.518 435.649 181.599 435.541 181.671C435.433 181.743 435.325 181.8 435.217 181.842C435.427 181.878 435.64 181.959 435.856 182.085C436.198 182.271 436.465 182.532 436.657 182.868C436.855 183.204 436.954 183.633 436.954 184.155C436.954 184.815 436.795 185.361 436.477 185.793C436.159 186.219 435.721 186.513 435.163 186.675C434.929 186.741 434.671 186.786 434.389 186.81C434.107 186.828 433.834 186.837 433.57 186.837H428.962ZM430.582 185.532H433.48C433.606 185.532 433.756 185.52 433.93 185.496C434.11 185.472 434.269 185.442 434.407 185.406C434.719 185.316 434.944 185.148 435.082 184.902C435.226 184.656 435.298 184.389 435.298 184.101C435.298 183.717 435.19 183.405 434.974 183.165C434.764 182.925 434.485 182.775 434.137 182.715C434.011 182.679 433.873 182.658 433.723 182.652C433.579 182.646 433.45 182.643 433.336 182.643H430.582V185.532ZM430.582 181.32H432.994C433.162 181.32 433.339 181.311 433.525 181.293C433.711 181.269 433.873 181.23 434.011 181.176C434.287 181.074 434.488 180.906 434.614 180.672C434.746 180.432 434.812 180.171 434.812 179.889C434.812 179.577 434.74 179.304 434.596 179.07C434.458 178.83 434.245 178.665 433.957 178.575C433.765 178.503 433.549 178.464 433.309 178.458C433.075 178.446 432.925 178.44 432.859 178.44H430.582V181.32ZM441.525 187.107C440.799 187.107 440.19 186.975 439.698 186.711C439.212 186.441 438.843 186.087 438.591 185.649C438.345 185.211 438.222 184.731 438.222 184.209C438.222 183.699 438.318 183.258 438.51 182.886C438.708 182.508 438.984 182.196 439.338 181.95C439.692 181.698 440.115 181.5 440.607 181.356C441.069 181.23 441.585 181.122 442.155 181.032C442.731 180.936 443.313 180.849 443.901 180.771C444.489 180.693 445.038 180.618 445.548 180.546L444.972 180.879C444.99 180.015 444.816 179.376 444.45 178.962C444.09 178.548 443.466 178.341 442.578 178.341C441.99 178.341 441.474 178.476 441.03 178.746C440.592 179.01 440.283 179.442 440.103 180.042L438.582 179.583C438.816 178.731 439.269 178.062 439.941 177.576C440.613 177.09 441.498 176.847 442.596 176.847C443.478 176.847 444.234 177.006 444.864 177.324C445.5 177.636 445.956 178.11 446.232 178.746C446.37 179.046 446.457 179.373 446.493 179.727C446.529 180.075 446.547 180.441 446.547 180.825V186.837H445.125V184.506L445.458 184.722C445.092 185.508 444.579 186.102 443.919 186.504C443.265 186.906 442.467 187.107 441.525 187.107ZM441.768 185.766C442.344 185.766 442.842 185.664 443.262 185.46C443.688 185.25 444.03 184.977 444.288 184.641C444.546 184.299 444.714 183.927 444.792 183.525C444.882 183.225 444.93 182.892 444.936 182.526C444.948 182.154 444.954 181.869 444.954 181.671L445.512 181.914C444.99 181.986 444.477 182.055 443.973 182.121C443.469 182.187 442.992 182.259 442.542 182.337C442.092 182.409 441.687 182.496 441.327 182.598C441.063 182.682 440.814 182.79 440.58 182.922C440.352 183.054 440.166 183.225 440.022 183.435C439.884 183.639 439.815 183.894 439.815 184.2C439.815 184.464 439.881 184.716 440.013 184.956C440.151 185.196 440.361 185.391 440.643 185.541C440.931 185.691 441.306 185.766 441.768 185.766ZM454.89 186.837V183.318H452.793C452.547 183.318 452.274 183.309 451.974 183.291C451.68 183.267 451.404 183.234 451.146 183.192C450.444 183.06 449.85 182.751 449.364 182.265C448.884 181.779 448.644 181.107 448.644 180.249C448.644 179.415 448.869 178.746 449.319 178.242C449.775 177.732 450.336 177.402 451.002 177.252C451.302 177.18 451.605 177.141 451.911 177.135C452.223 177.123 452.487 177.117 452.703 177.117L456.492 177.117L456.501 186.837H454.89ZM448.347 186.837L450.93 182.877H452.658L450.075 186.837H448.347ZM452.676 181.995H454.89V178.44L452.676 178.44C452.538 178.44 452.355 178.446 452.127 178.458C451.905 178.47 451.692 178.506 451.488 178.566C451.296 178.62 451.107 178.719 450.921 178.863C450.741 179.007 450.591 179.193 450.471 179.421C450.351 179.649 450.291 179.919 450.291 180.231C450.291 180.681 450.417 181.047 450.669 181.329C450.921 181.605 451.227 181.791 451.587 181.887C451.785 181.935 451.98 181.965 452.172 181.977C452.37 181.989 452.538 181.995 452.676 181.995Z" fill="white"/>
<path d="M164.227 441.63C162.937 441.63 161.842 441.345 160.942 440.775C160.042 440.205 159.355 439.413 158.881 438.399C158.413 437.385 158.179 436.212 158.179 434.88C158.179 433.548 158.413 432.375 158.881 431.361C159.355 430.347 160.042 429.555 160.942 428.985C161.842 428.415 162.937 428.13 164.227 428.13C165.727 428.13 166.96 428.511 167.926 429.273C168.898 430.035 169.567 431.061 169.933 432.351L168.304 432.783C168.04 431.817 167.569 431.055 166.891 430.497C166.213 429.939 165.325 429.66 164.227 429.66C163.261 429.66 162.457 429.879 161.815 430.317C161.173 430.755 160.69 431.367 160.366 432.153C160.042 432.933 159.877 433.842 159.871 434.88C159.865 435.912 160.024 436.821 160.348 437.607C160.672 438.387 161.158 438.999 161.806 439.443C162.454 439.881 163.261 440.1 164.227 440.1C165.325 440.1 166.213 439.821 166.891 439.263C167.569 438.699 168.04 437.937 168.304 436.977L169.933 437.409C169.567 438.693 168.898 439.719 167.926 440.487C166.96 441.249 165.727 441.63 164.227 441.63ZM171.898 441.36V431.64H179.863V441.36H178.261V433.161H173.5V441.36H171.898ZM185.147 441.63C184.421 441.63 183.812 441.498 183.32 441.234C182.834 440.964 182.465 440.61 182.213 440.172C181.967 439.734 181.844 439.254 181.844 438.732C181.844 438.222 181.94 437.781 182.132 437.409C182.33 437.031 182.606 436.719 182.96 436.473C183.314 436.221 183.737 436.023 184.229 435.879C184.691 435.753 185.207 435.645 185.777 435.555C186.353 435.459 186.935 435.372 187.523 435.294C188.111 435.216 188.66 435.141 189.17 435.069L188.594 435.402C188.612 434.538 188.438 433.899 188.072 433.485C187.712 433.071 187.088 432.864 186.2 432.864C185.612 432.864 185.096 432.999 184.652 433.269C184.214 433.533 183.905 433.965 183.725 434.565L182.204 434.106C182.438 433.254 182.891 432.585 183.563 432.099C184.235 431.613 185.12 431.37 186.218 431.37C187.1 431.37 187.856 431.529 188.486 431.847C189.122 432.159 189.578 432.633 189.854 433.269C189.992 433.569 190.079 433.896 190.115 434.25C190.151 434.598 190.169 434.964 190.169 435.348V441.36H188.747V439.029L189.08 439.245C188.714 440.031 188.201 440.625 187.541 441.027C186.887 441.429 186.089 441.63 185.147 441.63ZM185.39 440.289C185.966 440.289 186.464 440.187 186.884 439.983C187.31 439.773 187.652 439.5 187.91 439.164C188.168 438.822 188.336 438.45 188.414 438.048C188.504 437.748 188.552 437.415 188.558 437.049C188.57 436.677 188.576 436.392 188.576 436.194L189.134 436.437C188.612 436.509 188.099 436.578 187.595 436.644C187.091 436.71 186.614 436.782 186.164 436.86C185.714 436.932 185.309 437.019 184.949 437.121C184.685 437.205 184.436 437.313 184.202 437.445C183.974 437.577 183.788 437.748 183.644 437.958C183.506 438.162 183.437 438.417 183.437 438.723C183.437 438.987 183.503 439.239 183.635 439.479C183.773 439.719 183.983 439.914 184.265 440.064C184.553 440.214 184.928 440.289 185.39 440.289ZM191.609 441.36V439.983C191.969 440.049 192.242 440.037 192.428 439.947C192.62 439.851 192.761 439.686 192.851 439.452C192.947 439.212 193.025 438.912 193.085 438.552C193.187 437.982 193.274 437.346 193.346 436.644C193.424 435.942 193.493 435.174 193.553 434.34C193.619 433.5 193.679 432.6 193.733 431.64H200.528V441.36H198.926V433.161H195.191C195.155 433.713 195.11 434.28 195.056 434.862C195.008 435.444 194.957 436.011 194.903 436.563C194.849 437.109 194.789 437.619 194.723 438.093C194.663 438.561 194.597 438.966 194.525 439.308C194.411 439.896 194.252 440.367 194.048 440.721C193.844 441.069 193.55 441.294 193.166 441.396C192.782 441.504 192.263 441.492 191.609 441.36ZM203.055 441.36L203.046 431.64H204.657V435.159H206.754C207.036 435.159 207.324 435.165 207.618 435.177C207.912 435.189 208.167 435.216 208.383 435.258C208.887 435.354 209.328 435.522 209.706 435.762C210.084 436.002 210.378 436.329 210.588 436.743C210.798 437.151 210.903 437.658 210.903 438.264C210.903 439.104 210.684 439.77 210.246 440.262C209.814 440.748 209.247 441.072 208.545 441.234C208.305 441.288 208.029 441.324 207.717 441.342C207.411 441.354 207.12 441.36 206.844 441.36H203.055ZM204.657 440.037H206.871C207.051 440.037 207.252 440.031 207.474 440.019C207.696 440.007 207.894 439.977 208.068 439.929C208.374 439.839 208.647 439.662 208.887 439.398C209.133 439.134 209.256 438.756 209.256 438.264C209.256 437.766 209.136 437.382 208.896 437.112C208.662 436.842 208.353 436.665 207.969 436.581C207.795 436.539 207.612 436.512 207.42 436.5C207.228 436.488 207.045 436.482 206.871 436.482H204.657V440.037ZM212.609 441.36V431.64H214.211V435.735H219.323V431.64H220.925V441.36H219.323V437.256H214.211V441.36H212.609ZM229.449 441.36V437.841H227.352C227.106 437.841 226.833 437.832 226.533 437.814C226.239 437.79 225.963 437.757 225.705 437.715C225.003 437.583 224.409 437.274 223.923 436.788C223.443 436.302 223.203 435.63 223.203 434.772C223.203 433.938 223.428 433.269 223.878 432.765C224.334 432.255 224.895 431.925 225.561 431.775C225.861 431.703 226.164 431.664 226.47 431.658C226.782 431.646 227.046 431.64 227.262 431.64H231.051L231.06 441.36H229.449ZM222.906 441.36L225.489 437.4H227.217L224.634 441.36H222.906ZM227.235 436.518H229.449V432.963H227.235C227.097 432.963 226.914 432.969 226.686 432.981C226.464 432.993 226.251 433.029 226.047 433.089C225.855 433.143 225.666 433.242 225.48 433.386C225.3 433.53 225.15 433.716 225.03 433.944C224.91 434.172 224.85 434.442 224.85 434.754C224.85 435.204 224.976 435.57 225.228 435.852C225.48 436.128 225.786 436.314 226.146 436.41C226.344 436.458 226.539 436.488 226.731 436.5C226.929 436.512 227.097 436.518 227.235 436.518Z" fill="white"/>
<path d="M106.077 251.077V238.117H116.193V251.077H114.591V239.638H107.679V251.077H106.077ZM123.18 251.347C122.268 251.347 121.5 251.122 120.876 250.672C120.252 250.216 119.778 249.601 119.454 248.827C119.136 248.047 118.977 247.174 118.977 246.208C118.977 245.23 119.136 244.354 119.454 243.58C119.778 242.806 120.252 242.197 120.876 241.753C121.506 241.309 122.277 241.087 123.189 241.087C124.089 241.087 124.863 241.312 125.511 241.762C126.165 242.206 126.666 242.815 127.014 243.589C127.362 244.363 127.536 245.236 127.536 246.208C127.536 247.18 127.362 248.053 127.014 248.827C126.666 249.601 126.165 250.216 125.511 250.672C124.863 251.122 124.086 251.347 123.18 251.347ZM118.707 255.397V241.357H120.138V248.512H120.318V255.397H118.707ZM122.982 249.88C123.624 249.88 124.155 249.718 124.575 249.394C124.995 249.07 125.31 248.632 125.52 248.08C125.73 247.522 125.835 246.898 125.835 246.208C125.835 245.524 125.73 244.906 125.52 244.354C125.316 243.802 124.998 243.364 124.566 243.04C124.14 242.716 123.597 242.554 122.937 242.554C122.307 242.554 121.785 242.71 121.371 243.022C120.957 243.328 120.648 243.757 120.444 244.309C120.24 244.855 120.138 245.488 120.138 246.208C120.138 246.916 120.237 247.549 120.435 248.107C120.639 248.659 120.951 249.094 121.371 249.412C121.791 249.724 122.328 249.88 122.982 249.88ZM137.465 241.357V251.077H135.917V243.913L130.823 251.077H129.5V241.357H131.048V248.422L136.151 241.357H137.465ZM138.905 251.077L142.622 246.163L138.986 241.357H140.894L143.558 244.921L146.195 241.357H148.103L144.467 246.163L148.193 251.077H146.276L143.558 247.405L140.822 251.077H138.905ZM153.424 251.347C152.458 251.347 151.624 251.128 150.922 250.69C150.226 250.252 149.689 249.646 149.311 248.872C148.933 248.098 148.744 247.21 148.744 246.208C148.744 245.188 148.936 244.294 149.32 243.526C149.704 242.758 150.247 242.161 150.949 241.735C151.651 241.303 152.476 241.087 153.424 241.087C154.396 241.087 155.233 241.306 155.935 241.744C156.637 242.176 157.174 242.779 157.546 243.553C157.924 244.321 158.113 245.206 158.113 246.208C158.113 247.222 157.924 248.116 157.546 248.89C157.168 249.658 156.628 250.261 155.926 250.699C155.224 251.131 154.39 251.347 153.424 251.347ZM153.424 249.826C154.432 249.826 155.182 249.49 155.674 248.818C156.166 248.146 156.412 247.276 156.412 246.208C156.412 245.11 156.163 244.237 155.665 243.589C155.167 242.935 154.42 242.608 153.424 242.608C152.746 242.608 152.188 242.761 151.75 243.067C151.312 243.373 150.985 243.796 150.769 244.336C150.553 244.876 150.445 245.5 150.445 246.208C150.445 247.3 150.697 248.176 151.201 248.836C151.705 249.496 152.446 249.826 153.424 249.826ZM158.927 251.077L162.851 246.217L159.116 241.357H160.898L164.507 246.127V241.357H165.965V246.127L169.574 241.357H171.356L167.621 246.217L171.545 251.077H169.682L165.965 246.307V251.077H164.507V246.307L160.79 251.077H158.927ZM175.391 251.347C174.665 251.347 174.056 251.215 173.564 250.951C173.078 250.681 172.709 250.327 172.457 249.889C172.211 249.451 172.088 248.971 172.088 248.449C172.088 247.939 172.184 247.498 172.376 247.126C172.574 246.748 172.85 246.436 173.204 246.19C173.558 245.938 173.981 245.74 174.473 245.596C174.935 245.47 175.451 245.362 176.021 245.272C176.597 245.176 177.179 245.089 177.767 245.011C178.355 244.933 178.904 244.858 179.414 244.786L178.838 245.119C178.856 244.255 178.682 243.616 178.316 243.202C177.956 242.788 177.332 242.581 176.444 242.581C175.856 242.581 175.34 242.716 174.896 242.986C174.458 243.25 174.149 243.682 173.969 244.282L172.448 243.823C172.682 242.971 173.135 242.302 173.807 241.816C174.479 241.33 175.364 241.087 176.462 241.087C177.344 241.087 178.1 241.246 178.73 241.564C179.366 241.876 179.822 242.35 180.098 242.986C180.236 243.286 180.323 243.613 180.359 243.967C180.395 244.315 180.413 244.681 180.413 245.065V251.077H178.991V248.746L179.324 248.962C178.958 249.748 178.445 250.342 177.785 250.744C177.131 251.146 176.333 251.347 175.391 251.347ZM175.634 250.006C176.21 250.006 176.708 249.904 177.128 249.7C177.554 249.49 177.896 249.217 178.154 248.881C178.412 248.539 178.58 248.167 178.658 247.765C178.748 247.465 178.796 247.132 178.802 246.766C178.814 246.394 178.82 246.109 178.82 245.911L179.378 246.154C178.856 246.226 178.343 246.295 177.839 246.361C177.335 246.427 176.858 246.499 176.408 246.577C175.958 246.649 175.553 246.736 175.193 246.838C174.929 246.922 174.68 247.03 174.446 247.162C174.218 247.294 174.032 247.465 173.888 247.675C173.75 247.879 173.681 248.134 173.681 248.44C173.681 248.704 173.747 248.956 173.879 249.196C174.017 249.436 174.227 249.631 174.509 249.781C174.797 249.931 175.172 250.006 175.634 250.006ZM188.756 251.077V247.558H186.659C186.413 247.558 186.14 247.549 185.84 247.531C185.546 247.507 185.27 247.474 185.012 247.432C184.31 247.3 183.716 246.991 183.23 246.505C182.75 246.019 182.51 245.347 182.51 244.489C182.51 243.655 182.735 242.986 183.185 242.482C183.641 241.972 184.202 241.642 184.868 241.492C185.168 241.42 185.471 241.381 185.777 241.375C186.089 241.363 186.353 241.357 186.569 241.357H190.358L190.367 251.077H188.756ZM182.213 251.077L184.796 247.117L186.524 247.117L183.941 251.077H182.213ZM186.542 246.235H188.756V242.68H186.542C186.404 242.68 186.221 242.686 185.993 242.698C185.771 242.71 185.558 242.746 185.354 242.806C185.162 242.86 184.973 242.959 184.787 243.103C184.607 243.247 184.457 243.433 184.337 243.661C184.217 243.889 184.157 244.159 184.157 244.471C184.157 244.921 184.283 245.287 184.535 245.569C184.787 245.845 185.093 246.031 185.453 246.127C185.651 246.175 185.846 246.205 186.038 246.217C186.236 246.229 186.404 246.235 186.542 246.235Z" fill="white"/>
<path d="M341.106 350.285V337.325H346.155C346.929 337.325 347.589 337.484 348.135 337.802C348.687 338.12 349.107 338.54 349.395 339.062C349.689 339.578 349.836 340.136 349.836 340.736C349.836 341.438 349.656 342.053 349.296 342.581C348.936 343.109 348.45 343.472 347.838 343.67L347.82 343.229C348.654 343.451 349.302 343.859 349.764 344.453C350.226 345.047 350.457 345.755 350.457 346.577C350.457 347.333 350.301 347.987 349.989 348.539C349.683 349.091 349.239 349.52 348.657 349.826C348.081 350.132 347.397 350.285 346.605 350.285H341.106ZM342.726 348.755H346.299C346.779 348.755 347.208 348.668 347.586 348.494C347.964 348.314 348.261 348.062 348.477 347.738C348.699 347.414 348.81 347.024 348.81 346.568C348.81 346.13 348.711 345.737 348.513 345.389C348.321 345.041 348.048 344.765 347.694 344.561C347.346 344.351 346.941 344.246 346.479 344.246H342.726V348.755ZM342.726 342.734H346.137C346.521 342.734 346.866 342.653 347.172 342.491C347.484 342.323 347.73 342.089 347.91 341.789C348.096 341.489 348.189 341.138 348.189 340.736C348.189 340.178 348 339.722 347.622 339.368C347.244 339.014 346.749 338.837 346.137 338.837H342.726V342.734ZM355.013 350.555C354.287 350.555 353.678 350.423 353.186 350.159C352.7 349.889 352.331 349.535 352.079 349.097C351.833 348.659 351.71 348.179 351.71 347.657C351.71 347.147 351.806 346.706 351.998 346.334C352.196 345.956 352.472 345.644 352.826 345.398C353.18 345.146 353.603 344.948 354.095 344.804C354.557 344.678 355.073 344.57 355.643 344.48C356.219 344.384 356.801 344.297 357.389 344.219C357.977 344.141 358.526 344.066 359.036 343.994L358.46 344.327C358.478 343.463 358.304 342.824 357.938 342.41C357.578 341.996 356.954 341.789 356.066 341.789C355.478 341.789 354.962 341.924 354.518 342.194C354.08 342.458 353.771 342.89 353.591 343.49L352.07 343.031C352.304 342.179 352.757 341.51 353.429 341.024C354.101 340.538 354.986 340.295 356.084 340.295C356.966 340.295 357.722 340.454 358.352 340.772C358.988 341.084 359.444 341.558 359.72 342.194C359.858 342.494 359.945 342.821 359.981 343.175C360.017 343.523 360.035 343.889 360.035 344.273V350.285H358.613V347.954L358.946 348.17C358.58 348.956 358.067 349.55 357.407 349.952C356.753 350.354 355.955 350.555 355.013 350.555ZM355.256 349.214C355.832 349.214 356.33 349.112 356.75 348.908C357.176 348.698 357.518 348.425 357.776 348.089C358.034 347.747 358.202 347.375 358.28 346.973C358.37 346.673 358.418 346.34 358.424 345.974C358.436 345.602 358.442 345.317 358.442 345.119L359 345.362C358.478 345.434 357.965 345.503 357.461 345.569C356.957 345.635 356.48 345.707 356.03 345.785C355.58 345.857 355.175 345.944 354.815 346.046C354.551 346.13 354.302 346.238 354.068 346.37C353.84 346.502 353.654 346.673 353.51 346.883C353.372 347.087 353.303 347.342 353.303 347.648C353.303 347.912 353.369 348.164 353.501 348.404C353.639 348.644 353.849 348.839 354.131 348.989C354.419 349.139 354.794 349.214 355.256 349.214ZM362.366 350.285V340.565H363.968V344.66H369.08V340.565H370.682V350.285H369.08V346.181H363.968V350.285H362.366ZM373.194 350.285V340.565H374.796V344.66H379.908V340.565H381.51V350.285H379.908V346.181H374.796V350.285H373.194ZM386.795 350.555C386.069 350.555 385.46 350.423 384.968 350.159C384.482 349.889 384.113 349.535 383.861 349.097C383.615 348.659 383.492 348.179 383.492 347.657C383.492 347.147 383.588 346.706 383.78 346.334C383.978 345.956 384.254 345.644 384.608 345.398C384.962 345.146 385.385 344.948 385.877 344.804C386.339 344.678 386.855 344.57 387.425 344.48C388.001 344.384 388.583 344.297 389.171 344.219C389.759 344.141 390.308 344.066 390.818 343.994L390.242 344.327C390.26 343.463 390.086 342.824 389.72 342.41C389.36 341.996 388.736 341.789 387.848 341.789C387.26 341.789 386.744 341.924 386.3 342.194C385.862 342.458 385.553 342.89 385.373 343.49L383.852 343.031C384.086 342.179 384.539 341.51 385.211 341.024C385.883 340.538 386.768 340.295 387.866 340.295C388.748 340.295 389.504 340.454 390.134 340.772C390.77 341.084 391.226 341.558 391.502 342.194C391.64 342.494 391.727 342.821 391.763 343.175C391.799 343.523 391.817 343.889 391.817 344.273V350.285H390.395V347.954L390.728 348.17C390.362 348.956 389.849 349.55 389.189 349.952C388.535 350.354 387.737 350.555 386.795 350.555ZM387.038 349.214C387.614 349.214 388.112 349.112 388.532 348.908C388.958 348.698 389.3 348.425 389.558 348.089C389.816 347.747 389.984 347.375 390.062 346.973C390.152 346.673 390.2 346.34 390.206 345.974C390.218 345.602 390.224 345.317 390.224 345.119L390.782 345.362C390.26 345.434 389.747 345.503 389.243 345.569C388.739 345.635 388.262 345.707 387.812 345.785C387.362 345.857 386.957 345.944 386.597 346.046C386.333 346.13 386.084 346.238 385.85 346.37C385.622 346.502 385.436 346.673 385.292 346.883C385.154 347.087 385.085 347.342 385.085 347.648C385.085 347.912 385.151 348.164 385.283 348.404C385.421 348.644 385.631 348.839 385.913 348.989C386.201 349.139 386.576 349.214 387.038 349.214ZM400.16 350.285V346.766H398.063C397.817 346.766 397.544 346.757 397.244 346.739C396.95 346.715 396.674 346.682 396.416 346.64C395.714 346.508 395.12 346.199 394.634 345.713C394.154 345.227 393.914 344.555 393.914 343.697C393.914 342.863 394.139 342.194 394.589 341.69C395.045 341.18 395.606 340.85 396.272 340.7C396.572 340.628 396.875 340.589 397.181 340.583C397.493 340.571 397.757 340.565 397.973 340.565H401.762L401.771 350.285H400.16ZM393.617 350.285L396.2 346.325H397.928L395.345 350.285H393.617ZM397.946 345.443H400.16V341.888H397.946C397.808 341.888 397.625 341.894 397.397 341.906C397.175 341.918 396.962 341.954 396.758 342.014C396.566 342.068 396.377 342.167 396.191 342.311C396.011 342.455 395.861 342.641 395.741 342.869C395.621 343.097 395.561 343.367 395.561 343.679C395.561 344.129 395.687 344.495 395.939 344.777C396.191 345.053 396.497 345.239 396.857 345.335C397.055 345.383 397.25 345.413 397.442 345.425C397.64 345.437 397.808 345.443 397.946 345.443Z" fill="white"/>
</svg>
