<svg width="745" height="693" viewBox="0 0 745 693" fill="none" xmlns="http://www.w3.org/2000/svg">
<mask id="path-1-inside-1_2561_34316" fill="white">
<path fill-rule="evenodd" clip-rule="evenodd" d="M0.46875 0.138672H427.135V121.285H744.469V362.514H672.899V568.378H411.826V692.679H121.713V468.716H0.591797V241.7H0.46875V0.138672Z"/>
</mask>
<path d="M427.135 0.138672H427.948V-0.674501H427.135V0.138672ZM0.46875 0.138672V-0.674501H-0.344423V0.138672H0.46875ZM427.135 121.285H426.322V122.098H427.135V121.285ZM744.469 121.285H745.282V120.472H744.469V121.285ZM744.469 362.514V363.328H745.282V362.514H744.469ZM672.899 362.514V361.701H672.085V362.514H672.899ZM672.899 568.378V569.191H673.712V568.378H672.899ZM411.826 568.378V567.565H411.012V568.378H411.826ZM411.826 692.679V693.492H412.639V692.679H411.826ZM121.713 692.679H120.9V693.492H121.713V692.679ZM121.713 468.716H122.526V467.902H121.713V468.716ZM0.591797 468.716H-0.221376V469.529H0.591797V468.716ZM0.591797 241.7H1.40497V240.887H0.591797V241.7ZM0.46875 241.7H-0.344423V242.513H0.46875V241.7ZM427.135 -0.674501H0.46875V0.951845H427.135V-0.674501ZM427.948 121.285V0.138672H426.322V121.285H427.948ZM427.135 122.098H744.469V120.472H427.135V122.098ZM743.656 121.285V362.514H745.282V121.285H743.656ZM744.469 361.701H672.899V363.328H744.469V361.701ZM673.712 568.378V362.514H672.085V568.378H673.712ZM411.826 569.191H672.899V567.565H411.826V569.191ZM412.639 692.679V568.378H411.012V692.679H412.639ZM121.713 693.492H411.826V691.866H121.713V693.492ZM120.9 468.716V692.679H122.526V468.716H120.9ZM0.591797 469.529H121.713V467.902H0.591797V469.529ZM-0.221376 241.7V468.716H1.40497V241.7H-0.221376ZM0.46875 242.513H0.591797V240.887H0.46875V242.513ZM-0.344423 0.138672V241.7H1.28192V0.138672H-0.344423Z" fill="black" mask="url(#path-1-inside-1_2561_34316)"/>
<path d="M171.147 124.581V111.621H172.749V117.705L178.419 111.621H180.435L174.549 117.912L180.894 124.581H178.824L172.749 118.245V124.581H171.147ZM182.692 128.901L184.573 123.789L184.6 125.301L180.352 114.861H182.035L185.365 123.258H184.789L187.912 114.861H189.541L184.249 128.901H182.692ZM189.948 124.581L193.665 119.667L190.029 114.861H191.937L194.601 118.425L197.238 114.861H199.146L195.51 119.667L199.236 124.581H197.319L194.601 120.909L191.865 124.581H189.948ZM200.669 124.581V114.861H202.271V118.956H207.383V114.861H208.985V124.581H207.383V120.477H202.271V124.581H200.669ZM217.509 124.581V121.062H215.412C215.166 121.062 214.893 121.053 214.593 121.035C214.299 121.011 214.023 120.978 213.765 120.936C213.063 120.804 212.469 120.495 211.983 120.009C211.503 119.523 211.263 118.851 211.263 117.993C211.263 117.159 211.488 116.49 211.938 115.986C212.394 115.476 212.955 115.146 213.621 114.996C213.921 114.924 214.224 114.885 214.53 114.879C214.842 114.867 215.106 114.861 215.322 114.861H219.111L219.12 124.581H217.509ZM210.966 124.581L213.549 120.621H215.277L212.694 124.581H210.966ZM215.295 119.739H217.509V116.184H215.295C215.157 116.184 214.974 116.19 214.746 116.202C214.524 116.214 214.311 116.25 214.107 116.31C213.915 116.364 213.726 116.463 213.54 116.607C213.36 116.751 213.21 116.937 213.09 117.165C212.97 117.393 212.91 117.663 212.91 117.975C212.91 118.425 213.036 118.791 213.288 119.073C213.54 119.349 213.846 119.535 214.206 119.631C214.404 119.679 214.599 119.709 214.791 119.721C214.989 119.733 215.157 119.739 215.295 119.739Z" fill="black"/>
<path d="M541.219 243.738V230.778H539.599L532.84 240.903V230.778H531.22V243.738H532.84L539.599 233.604V243.738H541.219ZM543.735 243.738V234.018H550.485V235.539H545.337V243.738H543.735ZM556.654 244.008C555.742 244.008 554.974 243.783 554.35 243.333C553.726 242.877 553.252 242.262 552.928 241.488C552.61 240.708 552.451 239.835 552.451 238.869C552.451 237.891 552.61 237.015 552.928 236.241C553.252 235.467 553.726 234.858 554.35 234.414C554.98 233.97 555.751 233.748 556.663 233.748C557.563 233.748 558.337 233.973 558.985 234.423C559.639 234.867 560.14 235.476 560.488 236.25C560.836 237.024 561.01 237.897 561.01 238.869C561.01 239.841 560.836 240.714 560.488 241.488C560.14 242.262 559.639 242.877 558.985 243.333C558.337 243.783 557.56 244.008 556.654 244.008ZM552.181 248.058V234.018H553.612V241.173H553.792V248.058H552.181ZM556.456 242.541C557.098 242.541 557.629 242.379 558.049 242.055C558.469 241.731 558.784 241.293 558.994 240.741C559.204 240.183 559.309 239.559 559.309 238.869C559.309 238.185 559.204 237.567 558.994 237.015C558.79 236.463 558.472 236.025 558.04 235.701C557.614 235.377 557.071 235.215 556.411 235.215C555.781 235.215 555.259 235.371 554.845 235.683C554.431 235.989 554.122 236.418 553.918 236.97C553.714 237.516 553.612 238.149 553.612 238.869C553.612 239.577 553.711 240.21 553.909 240.768C554.113 241.32 554.425 241.755 554.845 242.073C555.265 242.385 555.802 242.541 556.456 242.541ZM567.123 244.008C566.157 244.008 565.323 243.789 564.621 243.351C563.925 242.913 563.388 242.307 563.01 241.533C562.632 240.759 562.443 239.871 562.443 238.869C562.443 237.849 562.635 236.955 563.019 236.187C563.403 235.419 563.946 234.822 564.648 234.396C565.35 233.964 566.175 233.748 567.123 233.748C568.095 233.748 568.932 233.967 569.634 234.405C570.336 234.837 570.873 235.44 571.245 236.214C571.623 236.982 571.812 237.867 571.812 238.869C571.812 239.883 571.623 240.777 571.245 241.551C570.867 242.319 570.327 242.922 569.625 243.36C568.923 243.792 568.089 244.008 567.123 244.008ZM567.123 242.487C568.131 242.487 568.881 242.151 569.373 241.479C569.865 240.807 570.111 239.937 570.111 238.869C570.111 237.771 569.862 236.898 569.364 236.25C568.866 235.596 568.119 235.269 567.123 235.269C566.445 235.269 565.887 235.422 565.449 235.728C565.011 236.034 564.684 236.457 564.468 236.997C564.252 237.537 564.144 238.161 564.144 238.869C564.144 239.961 564.396 240.837 564.9 241.497C565.404 242.157 566.145 242.487 567.123 242.487ZM573.785 243.738V234.018L577.925 234.018C578.171 234.018 578.435 234.033 578.717 234.063C579.005 234.087 579.266 234.132 579.5 234.198C580.022 234.336 580.451 234.621 580.787 235.053C581.129 235.479 581.3 236.019 581.3 236.673C581.3 237.039 581.243 237.357 581.129 237.627C581.021 237.897 580.865 238.131 580.661 238.329C580.571 238.419 580.472 238.5 580.364 238.572C580.256 238.644 580.148 238.701 580.04 238.743C580.25 238.779 580.463 238.86 580.679 238.986C581.021 239.172 581.288 239.433 581.48 239.769C581.678 240.105 581.777 240.534 581.777 241.056C581.777 241.716 581.618 242.262 581.3 242.694C580.982 243.12 580.544 243.414 579.986 243.576C579.752 243.642 579.494 243.687 579.212 243.711C578.93 243.729 578.657 243.738 578.393 243.738H573.785ZM575.405 242.433H578.303C578.429 242.433 578.579 242.421 578.753 242.397C578.933 242.373 579.092 242.343 579.23 242.307C579.542 242.217 579.767 242.049 579.905 241.803C580.049 241.557 580.121 241.29 580.121 241.002C580.121 240.618 580.013 240.306 579.797 240.066C579.587 239.826 579.308 239.676 578.96 239.616C578.834 239.58 578.696 239.559 578.546 239.553C578.402 239.547 578.273 239.544 578.159 239.544H575.405V242.433ZM575.405 238.221H577.817C577.985 238.221 578.162 238.212 578.348 238.194C578.534 238.17 578.696 238.131 578.834 238.077C579.11 237.975 579.311 237.807 579.437 237.573C579.569 237.333 579.635 237.072 579.635 236.79C579.635 236.478 579.563 236.205 579.419 235.971C579.281 235.731 579.068 235.566 578.78 235.476C578.588 235.404 578.372 235.365 578.132 235.359C577.898 235.347 577.748 235.341 577.682 235.341L575.405 235.341V238.221ZM586.348 244.008C585.622 244.008 585.013 243.876 584.521 243.612C584.035 243.342 583.666 242.988 583.414 242.55C583.168 242.112 583.045 241.632 583.045 241.11C583.045 240.6 583.141 240.159 583.333 239.787C583.531 239.409 583.807 239.097 584.161 238.851C584.515 238.599 584.938 238.401 585.43 238.257C585.892 238.131 586.408 238.023 586.978 237.933C587.554 237.837 588.136 237.75 588.724 237.672C589.312 237.594 589.861 237.519 590.371 237.447L589.795 237.78C589.813 236.916 589.639 236.277 589.273 235.863C588.913 235.449 588.289 235.242 587.401 235.242C586.813 235.242 586.297 235.377 585.853 235.647C585.415 235.911 585.106 236.343 584.926 236.943L583.405 236.484C583.639 235.632 584.092 234.963 584.764 234.477C585.436 233.991 586.321 233.748 587.419 233.748C588.301 233.748 589.057 233.907 589.687 234.225C590.323 234.537 590.779 235.011 591.055 235.647C591.193 235.947 591.28 236.274 591.316 236.628C591.352 236.976 591.37 237.342 591.37 237.726V243.738H589.948V241.407L590.281 241.623C589.915 242.409 589.402 243.003 588.742 243.405C588.088 243.807 587.29 244.008 586.348 244.008ZM586.591 242.667C587.167 242.667 587.665 242.565 588.085 242.361C588.511 242.151 588.853 241.878 589.111 241.542C589.369 241.2 589.537 240.828 589.615 240.426C589.705 240.126 589.753 239.793 589.759 239.427C589.771 239.055 589.777 238.77 589.777 238.572L590.335 238.815C589.813 238.887 589.3 238.956 588.796 239.022C588.292 239.088 587.815 239.16 587.365 239.238C586.915 239.31 586.51 239.397 586.15 239.499C585.886 239.583 585.637 239.691 585.403 239.823C585.175 239.955 584.989 240.126 584.845 240.336C584.707 240.54 584.638 240.795 584.638 241.101C584.638 241.365 584.704 241.617 584.836 241.857C584.974 242.097 585.184 242.292 585.466 242.442C585.754 242.592 586.129 242.667 586.591 242.667ZM599.713 243.738V240.219H597.616C597.37 240.219 597.097 240.21 596.797 240.192C596.503 240.168 596.227 240.135 595.969 240.093C595.267 239.961 594.673 239.652 594.187 239.166C593.707 238.68 593.467 238.008 593.467 237.15C593.467 236.316 593.692 235.647 594.142 235.143C594.598 234.633 595.159 234.303 595.825 234.153C596.125 234.081 596.428 234.042 596.734 234.036C597.046 234.024 597.31 234.018 597.526 234.018H601.315L601.324 243.738H599.713ZM593.17 243.738L595.753 239.778H597.481L594.898 243.738H593.17ZM597.499 238.896H599.713V235.341H597.499C597.361 235.341 597.178 235.347 596.95 235.359C596.728 235.371 596.515 235.407 596.311 235.467C596.119 235.521 595.93 235.62 595.744 235.764C595.564 235.908 595.414 236.094 595.294 236.322C595.174 236.55 595.114 236.82 595.114 237.132C595.114 237.582 595.24 237.948 595.492 238.23C595.744 238.506 596.05 238.692 596.41 238.788C596.608 238.836 596.803 238.866 596.995 238.878C597.193 238.89 597.361 238.896 597.499 238.896Z" fill="black"/>
<path d="M231.068 586.177C229.778 586.177 228.683 585.892 227.783 585.322C226.883 584.752 226.196 583.96 225.722 582.946C225.254 581.932 225.02 580.759 225.02 579.427C225.02 578.095 225.254 576.922 225.722 575.908C226.196 574.894 226.883 574.102 227.783 573.532C228.683 572.962 229.778 572.677 231.068 572.677C232.568 572.677 233.801 573.058 234.767 573.82C235.739 574.582 236.408 575.608 236.774 576.898L235.145 577.33C234.881 576.364 234.41 575.602 233.732 575.044C233.054 574.486 232.166 574.207 231.068 574.207C230.102 574.207 229.298 574.426 228.656 574.864C228.014 575.302 227.531 575.914 227.207 576.7C226.883 577.48 226.718 578.389 226.712 579.427C226.706 580.459 226.865 581.368 227.189 582.154C227.513 582.934 227.999 583.546 228.647 583.99C229.295 584.428 230.102 584.647 231.068 584.647C232.166 584.647 233.054 584.368 233.732 583.81C234.41 583.246 234.881 582.484 235.145 581.524L236.774 581.956C236.408 583.24 235.739 584.266 234.767 585.034C233.801 585.796 232.568 586.177 231.068 586.177ZM238.739 585.907V576.187H246.704V585.907H245.102V577.708H240.341V585.907H238.739ZM251.988 586.177C251.262 586.177 250.653 586.045 250.161 585.781C249.675 585.511 249.306 585.157 249.054 584.719C248.808 584.281 248.685 583.801 248.685 583.279C248.685 582.769 248.781 582.328 248.973 581.956C249.171 581.578 249.447 581.266 249.801 581.02C250.155 580.768 250.578 580.57 251.07 580.426C251.532 580.3 252.048 580.192 252.618 580.102C253.194 580.006 253.776 579.919 254.364 579.841C254.952 579.763 255.501 579.688 256.011 579.616L255.435 579.949C255.453 579.085 255.279 578.446 254.913 578.032C254.553 577.618 253.929 577.411 253.041 577.411C252.453 577.411 251.937 577.546 251.493 577.816C251.055 578.08 250.746 578.512 250.566 579.112L249.045 578.653C249.279 577.801 249.732 577.132 250.404 576.646C251.076 576.16 251.961 575.917 253.059 575.917C253.941 575.917 254.697 576.076 255.327 576.394C255.963 576.706 256.419 577.18 256.695 577.816C256.833 578.116 256.92 578.443 256.956 578.797C256.992 579.145 257.01 579.511 257.01 579.895V585.907H255.588V583.576L255.921 583.792C255.555 584.578 255.042 585.172 254.382 585.574C253.728 585.976 252.93 586.177 251.988 586.177ZM252.231 584.836C252.807 584.836 253.305 584.734 253.725 584.53C254.151 584.32 254.493 584.047 254.751 583.711C255.009 583.369 255.177 582.997 255.255 582.595C255.345 582.295 255.393 581.962 255.399 581.596C255.411 581.224 255.417 580.939 255.417 580.741L255.975 580.984C255.453 581.056 254.94 581.125 254.436 581.191C253.932 581.257 253.455 581.329 253.005 581.407C252.555 581.479 252.15 581.566 251.79 581.668C251.526 581.752 251.277 581.86 251.043 581.992C250.815 582.124 250.629 582.295 250.485 582.505C250.347 582.709 250.278 582.964 250.278 583.27C250.278 583.534 250.344 583.786 250.476 584.026C250.614 584.266 250.824 584.461 251.106 584.611C251.394 584.761 251.769 584.836 252.231 584.836ZM258.45 585.907V584.53C258.81 584.596 259.083 584.584 259.269 584.494C259.461 584.398 259.602 584.233 259.692 583.999C259.788 583.759 259.866 583.459 259.926 583.099C260.028 582.529 260.115 581.893 260.187 581.191C260.265 580.489 260.334 579.721 260.394 578.887C260.46 578.047 260.52 577.147 260.574 576.187H267.369V585.907H265.767V577.708H262.032C261.996 578.26 261.951 578.827 261.897 579.409C261.849 579.991 261.798 580.558 261.744 581.11C261.69 581.656 261.63 582.166 261.564 582.64C261.504 583.108 261.438 583.513 261.366 583.855C261.252 584.443 261.093 584.914 260.889 585.268C260.685 585.616 260.391 585.841 260.007 585.943C259.623 586.051 259.104 586.039 258.45 585.907ZM269.896 585.907L269.887 576.187H271.498V579.706H273.595C273.877 579.706 274.165 579.712 274.459 579.724C274.753 579.736 275.008 579.763 275.224 579.805C275.728 579.901 276.169 580.069 276.547 580.309C276.925 580.549 277.219 580.876 277.429 581.29C277.639 581.698 277.744 582.205 277.744 582.811C277.744 583.651 277.525 584.317 277.087 584.809C276.655 585.295 276.088 585.619 275.386 585.781C275.146 585.835 274.87 585.871 274.558 585.889C274.252 585.901 273.961 585.907 273.685 585.907H269.896ZM271.498 584.584H273.712C273.892 584.584 274.093 584.578 274.315 584.566C274.537 584.554 274.735 584.524 274.909 584.476C275.215 584.386 275.488 584.209 275.728 583.945C275.974 583.681 276.097 583.303 276.097 582.811C276.097 582.313 275.977 581.929 275.737 581.659C275.503 581.389 275.194 581.212 274.81 581.128C274.636 581.086 274.453 581.059 274.261 581.047C274.069 581.035 273.886 581.029 273.712 581.029H271.498V584.584ZM279.45 585.907V576.187H281.052V580.282H286.164V576.187H287.766V585.907H286.164V581.803H281.052V585.907H279.45ZM296.29 585.907V582.388H294.193C293.947 582.388 293.674 582.379 293.374 582.361C293.08 582.337 292.804 582.304 292.546 582.262C291.844 582.13 291.25 581.821 290.764 581.335C290.284 580.849 290.044 580.177 290.044 579.319C290.044 578.485 290.269 577.816 290.719 577.312C291.175 576.802 291.736 576.472 292.402 576.322C292.702 576.25 293.005 576.211 293.311 576.205C293.623 576.193 293.887 576.187 294.103 576.187H297.892L297.901 585.907H296.29ZM289.747 585.907L292.33 581.947H294.058L291.475 585.907H289.747ZM294.076 581.065H296.29V577.51H294.076C293.938 577.51 293.755 577.516 293.527 577.528C293.305 577.54 293.092 577.576 292.888 577.636C292.696 577.69 292.507 577.789 292.321 577.933C292.141 578.077 291.991 578.263 291.871 578.491C291.751 578.719 291.691 578.989 291.691 579.301C291.691 579.751 291.817 580.117 292.069 580.399C292.321 580.675 292.627 580.861 292.987 580.957C293.185 581.005 293.38 581.035 293.572 581.047C293.77 581.059 293.938 581.065 294.076 581.065Z" fill="black"/>
<path d="M156.885 330.101V317.141H167.001V330.101H165.399V318.662H158.487V330.101H156.885ZM173.987 330.371C173.075 330.371 172.307 330.146 171.683 329.696C171.059 329.24 170.585 328.625 170.261 327.851C169.943 327.071 169.784 326.198 169.784 325.232C169.784 324.254 169.943 323.378 170.261 322.604C170.585 321.83 171.059 321.221 171.683 320.777C172.313 320.333 173.084 320.111 173.996 320.111C174.896 320.111 175.67 320.336 176.318 320.786C176.972 321.23 177.473 321.839 177.821 322.613C178.169 323.387 178.343 324.26 178.343 325.232C178.343 326.204 178.169 327.077 177.821 327.851C177.473 328.625 176.972 329.24 176.318 329.696C175.67 330.146 174.893 330.371 173.987 330.371ZM169.514 334.421V320.381H170.945V327.536H171.125V334.421H169.514ZM173.789 328.904C174.431 328.904 174.962 328.742 175.382 328.418C175.802 328.094 176.117 327.656 176.327 327.104C176.537 326.546 176.642 325.922 176.642 325.232C176.642 324.548 176.537 323.93 176.327 323.378C176.123 322.826 175.805 322.388 175.373 322.064C174.947 321.74 174.404 321.578 173.744 321.578C173.114 321.578 172.592 321.734 172.178 322.046C171.764 322.352 171.455 322.781 171.251 323.333C171.047 323.879 170.945 324.512 170.945 325.232C170.945 325.94 171.044 326.573 171.242 327.131C171.446 327.683 171.758 328.118 172.178 328.436C172.598 328.748 173.135 328.904 173.789 328.904ZM188.272 320.381V330.101H186.724V322.937L181.63 330.101H180.307V320.381H181.855V327.446L186.958 320.381H188.272ZM189.713 330.101L193.43 325.187L189.794 320.381H191.702L194.366 323.945L197.003 320.381H198.911L195.275 325.187L199.001 330.101H197.084L194.366 326.429L191.63 330.101H189.713ZM204.232 330.371C203.266 330.371 202.432 330.152 201.73 329.714C201.034 329.276 200.497 328.67 200.119 327.896C199.741 327.122 199.552 326.234 199.552 325.232C199.552 324.212 199.744 323.318 200.128 322.55C200.512 321.782 201.055 321.185 201.757 320.759C202.459 320.327 203.284 320.111 204.232 320.111C205.204 320.111 206.041 320.33 206.743 320.768C207.445 321.2 207.982 321.803 208.354 322.577C208.732 323.345 208.921 324.23 208.921 325.232C208.921 326.246 208.732 327.14 208.354 327.914C207.976 328.682 207.436 329.285 206.734 329.723C206.032 330.155 205.198 330.371 204.232 330.371ZM204.232 328.85C205.24 328.85 205.99 328.514 206.482 327.842C206.974 327.17 207.22 326.3 207.22 325.232C207.22 324.134 206.971 323.261 206.473 322.613C205.975 321.959 205.228 321.632 204.232 321.632C203.554 321.632 202.996 321.785 202.558 322.091C202.12 322.397 201.793 322.82 201.577 323.36C201.361 323.9 201.253 324.524 201.253 325.232C201.253 326.324 201.505 327.2 202.009 327.86C202.513 328.52 203.254 328.85 204.232 328.85ZM209.594 330.101L213.518 325.241L209.783 320.381H211.565L215.174 325.151V320.381H216.632V325.151L220.241 320.381H222.023L218.288 325.241L222.212 330.101H220.349L216.632 325.331V330.101H215.174V325.331L211.457 330.101H209.594ZM226.058 330.371C225.332 330.371 224.723 330.239 224.231 329.975C223.745 329.705 223.376 329.351 223.124 328.913C222.878 328.475 222.755 327.995 222.755 327.473C222.755 326.963 222.851 326.522 223.043 326.15C223.241 325.772 223.517 325.46 223.871 325.214C224.225 324.962 224.648 324.764 225.14 324.62C225.602 324.494 226.118 324.386 226.688 324.296C227.264 324.2 227.846 324.113 228.434 324.035C229.022 323.957 229.571 323.882 230.081 323.81L229.505 324.143C229.523 323.279 229.349 322.64 228.983 322.226C228.623 321.812 227.999 321.605 227.111 321.605C226.523 321.605 226.007 321.74 225.563 322.01C225.125 322.274 224.816 322.706 224.636 323.306L223.115 322.847C223.349 321.995 223.802 321.326 224.474 320.84C225.146 320.354 226.031 320.111 227.129 320.111C228.011 320.111 228.767 320.27 229.397 320.588C230.033 320.9 230.489 321.374 230.765 322.01C230.903 322.31 230.99 322.637 231.026 322.991C231.062 323.339 231.08 323.705 231.08 324.089V330.101H229.658V327.77L229.991 327.986C229.625 328.772 229.112 329.366 228.452 329.768C227.798 330.17 227 330.371 226.058 330.371ZM226.301 329.03C226.877 329.03 227.375 328.928 227.795 328.724C228.221 328.514 228.563 328.241 228.821 327.905C229.079 327.563 229.247 327.191 229.325 326.789C229.415 326.489 229.463 326.156 229.469 325.79C229.481 325.418 229.487 325.133 229.487 324.935L230.045 325.178C229.523 325.25 229.01 325.319 228.506 325.385C228.002 325.451 227.525 325.523 227.075 325.601C226.625 325.673 226.22 325.76 225.86 325.862C225.596 325.946 225.347 326.054 225.113 326.186C224.885 326.318 224.699 326.489 224.555 326.699C224.417 326.903 224.348 327.158 224.348 327.464C224.348 327.728 224.414 327.98 224.546 328.22C224.684 328.46 224.894 328.655 225.176 328.805C225.464 328.955 225.839 329.03 226.301 329.03ZM239.423 330.101V326.582H237.326C237.08 326.582 236.807 326.573 236.507 326.555C236.213 326.531 235.937 326.498 235.679 326.456C234.977 326.324 234.383 326.015 233.897 325.529C233.417 325.043 233.177 324.371 233.177 323.513C233.177 322.679 233.402 322.01 233.852 321.506C234.308 320.996 234.869 320.666 235.535 320.516C235.835 320.444 236.138 320.405 236.444 320.399C236.756 320.387 237.02 320.381 237.236 320.381H241.025L241.034 330.101H239.423ZM232.88 330.101L235.463 326.141H237.191L234.608 330.101H232.88ZM237.209 325.259H239.423V321.704H237.209C237.071 321.704 236.888 321.71 236.66 321.722C236.438 321.734 236.225 321.77 236.021 321.83C235.829 321.884 235.64 321.983 235.454 322.127C235.274 322.271 235.124 322.457 235.004 322.685C234.884 322.913 234.824 323.183 234.824 323.495C234.824 323.945 234.95 324.311 235.202 324.593C235.454 324.869 235.76 325.055 236.12 325.151C236.318 325.199 236.513 325.229 236.705 325.241C236.903 325.253 237.071 325.259 237.209 325.259Z" fill="black"/>
<path d="M468.707 463.471V450.511H473.756C474.53 450.511 475.19 450.67 475.736 450.988C476.288 451.306 476.708 451.726 476.996 452.248C477.29 452.764 477.437 453.322 477.437 453.922C477.437 454.624 477.257 455.239 476.897 455.767C476.537 456.295 476.051 456.658 475.439 456.856L475.421 456.415C476.255 456.637 476.903 457.045 477.365 457.639C477.827 458.233 478.058 458.941 478.058 459.763C478.058 460.519 477.902 461.173 477.59 461.725C477.284 462.277 476.84 462.706 476.258 463.012C475.682 463.318 474.998 463.471 474.206 463.471H468.707ZM470.327 461.941H473.9C474.38 461.941 474.809 461.854 475.187 461.68C475.565 461.5 475.862 461.248 476.078 460.924C476.3 460.6 476.411 460.21 476.411 459.754C476.411 459.316 476.312 458.923 476.114 458.575C475.922 458.227 475.649 457.951 475.295 457.747C474.947 457.537 474.542 457.432 474.08 457.432H470.327V461.941ZM470.327 455.92H473.738C474.122 455.92 474.467 455.839 474.773 455.677C475.085 455.509 475.331 455.275 475.511 454.975C475.697 454.675 475.79 454.324 475.79 453.922C475.79 453.364 475.601 452.908 475.223 452.554C474.845 452.2 474.35 452.023 473.738 452.023H470.327V455.92ZM482.615 463.741C481.889 463.741 481.28 463.609 480.788 463.345C480.302 463.075 479.933 462.721 479.681 462.283C479.435 461.845 479.312 461.365 479.312 460.843C479.312 460.333 479.408 459.892 479.6 459.52C479.798 459.142 480.074 458.83 480.428 458.584C480.782 458.332 481.205 458.134 481.697 457.99C482.159 457.864 482.675 457.756 483.245 457.666C483.821 457.57 484.403 457.483 484.991 457.405C485.579 457.327 486.128 457.252 486.638 457.18L486.062 457.513C486.08 456.649 485.906 456.01 485.54 455.596C485.18 455.182 484.556 454.975 483.668 454.975C483.08 454.975 482.564 455.11 482.12 455.38C481.682 455.644 481.373 456.076 481.193 456.676L479.672 456.217C479.906 455.365 480.359 454.696 481.031 454.21C481.703 453.724 482.588 453.481 483.686 453.481C484.568 453.481 485.324 453.64 485.954 453.958C486.59 454.27 487.046 454.744 487.322 455.38C487.46 455.68 487.547 456.007 487.583 456.361C487.619 456.709 487.637 457.075 487.637 457.459V463.471H486.215V461.14L486.548 461.356C486.182 462.142 485.669 462.736 485.009 463.138C484.355 463.54 483.557 463.741 482.615 463.741ZM482.858 462.4C483.434 462.4 483.932 462.298 484.352 462.094C484.778 461.884 485.12 461.611 485.378 461.275C485.636 460.933 485.804 460.561 485.882 460.159C485.972 459.859 486.02 459.526 486.026 459.16C486.038 458.788 486.044 458.503 486.044 458.305L486.602 458.548C486.08 458.62 485.567 458.689 485.063 458.755C484.559 458.821 484.082 458.893 483.632 458.971C483.182 459.043 482.777 459.13 482.417 459.232C482.153 459.316 481.904 459.424 481.67 459.556C481.442 459.688 481.256 459.859 481.112 460.069C480.974 460.273 480.905 460.528 480.905 460.834C480.905 461.098 480.971 461.35 481.103 461.59C481.241 461.83 481.451 462.025 481.733 462.175C482.021 462.325 482.396 462.4 482.858 462.4ZM489.968 463.471V453.751H491.57V457.846H496.682V453.751H498.284V463.471H496.682V459.367H491.57V463.471H489.968ZM500.796 463.471V453.751H502.398V457.846H507.51V453.751H509.112V463.471H507.51V459.367H502.398V463.471H500.796ZM514.396 463.741C513.67 463.741 513.061 463.609 512.569 463.345C512.083 463.075 511.714 462.721 511.462 462.283C511.216 461.845 511.093 461.365 511.093 460.843C511.093 460.333 511.189 459.892 511.381 459.52C511.579 459.142 511.855 458.83 512.209 458.584C512.563 458.332 512.986 458.134 513.478 457.99C513.94 457.864 514.456 457.756 515.026 457.666C515.602 457.57 516.184 457.483 516.772 457.405C517.36 457.327 517.909 457.252 518.419 457.18L517.843 457.513C517.861 456.649 517.687 456.01 517.321 455.596C516.961 455.182 516.337 454.975 515.449 454.975C514.861 454.975 514.345 455.11 513.901 455.38C513.463 455.644 513.154 456.076 512.974 456.676L511.453 456.217C511.687 455.365 512.14 454.696 512.812 454.21C513.484 453.724 514.369 453.481 515.467 453.481C516.349 453.481 517.105 453.64 517.735 453.958C518.371 454.27 518.827 454.744 519.103 455.38C519.241 455.68 519.328 456.007 519.364 456.361C519.4 456.709 519.418 457.075 519.418 457.459V463.471H517.996V461.14L518.329 461.356C517.963 462.142 517.45 462.736 516.79 463.138C516.136 463.54 515.338 463.741 514.396 463.741ZM514.639 462.4C515.215 462.4 515.713 462.298 516.133 462.094C516.559 461.884 516.901 461.611 517.159 461.275C517.417 460.933 517.585 460.561 517.663 460.159C517.753 459.859 517.801 459.526 517.807 459.16C517.819 458.788 517.825 458.503 517.825 458.305L518.383 458.548C517.861 458.62 517.348 458.689 516.844 458.755C516.34 458.821 515.863 458.893 515.413 458.971C514.963 459.043 514.558 459.13 514.198 459.232C513.934 459.316 513.685 459.424 513.451 459.556C513.223 459.688 513.037 459.859 512.893 460.069C512.755 460.273 512.686 460.528 512.686 460.834C512.686 461.098 512.752 461.35 512.884 461.59C513.022 461.83 513.232 462.025 513.514 462.175C513.802 462.325 514.177 462.4 514.639 462.4ZM527.761 463.471V459.952H525.664C525.418 459.952 525.145 459.943 524.845 459.925C524.551 459.901 524.275 459.868 524.017 459.826C523.315 459.694 522.721 459.385 522.235 458.899C521.755 458.413 521.515 457.741 521.515 456.883C521.515 456.049 521.74 455.38 522.19 454.876C522.646 454.366 523.207 454.036 523.873 453.886C524.173 453.814 524.476 453.775 524.782 453.769C525.094 453.757 525.358 453.751 525.574 453.751H529.363L529.372 463.471H527.761ZM521.218 463.471L523.801 459.511H525.529L522.946 463.471H521.218ZM525.547 458.629H527.761V455.074H525.547C525.409 455.074 525.226 455.08 524.998 455.092C524.776 455.104 524.563 455.14 524.359 455.2C524.167 455.254 523.978 455.353 523.792 455.497C523.612 455.641 523.462 455.827 523.342 456.055C523.222 456.283 523.162 456.553 523.162 456.865C523.162 457.315 523.288 457.681 523.54 457.963C523.792 458.239 524.098 458.425 524.458 458.521C524.656 458.569 524.851 458.599 525.043 458.611C525.241 458.623 525.409 458.629 525.547 458.629Z" fill="black"/>
</svg>
