<svg width="232" height="43" fill="none" xmlns="http://www.w3.org/2000/svg"><path d="M57.871 6.148h-6.035V42.08h6.035V6.148ZM81.567 20.24c-2.135-1.777-5.2-2.585-8.273-2.472-4.61.186-8.661 2.101-10.432 6.602l5.224 1.455c1.464-2.538 3.785-2.586 5.596-2.586 1.326 0 2.475.323 3.372.97.939.646 1.4 1.43 1.4 2.335v1.107H71.32c-2.798 0-4.998.622-6.583 1.89-1.601 1.27-2.41 3.023-2.41 5.245 0 2.352.85 4.25 2.564 5.705 1.698 1.407 3.873 2.15 6.51 2.15 3.073 0 5.733-1.18 7.545-3.321v2.747h5.572V26.431c.008-2.473-.979-4.525-2.952-6.19Zm-3.114 11.985c0 1.406-.638 2.586-1.9 3.531-1.262.946-2.701 1.406-4.359 1.406-2.2 0-3.785-1.042-3.785-2.634 0-1.479 1.448-2.4 3.785-2.4h6.26v.097Zm40.325-14.467c-3.565-.024-6.444 1.18-8.662 3.63-1.419-2.425-3.838-3.63-7.201-3.63-3.226 0-5.879 1.06-7.952 3.234v-2.725h-6.08v23.817h6.08V29.4c0-1.755.525-3.234 1.621-4.415 1.073-1.155 2.492-1.73 4.186-1.73 2.79 0 4.435 1.593 4.435 4.342v14.479h6.057V29.4c0-1.755.548-3.234 1.645-4.415 1.121-1.155 2.516-1.73 4.226-1.73 2.79 0 4.411 1.593 4.411 4.342v14.479h6.056V25.98c0-2.514-.774-4.527-2.379-6.007-1.58-1.471-3.726-2.215-6.443-2.215Zm24.421 0c-3.619 0-6.592 1.155-8.935 3.53-2.335 2.335-3.506 5.308-3.506 8.936 0 3.579 1.171 6.536 3.506 8.886 2.335 2.351 5.316 3.53 8.935 3.53 3.62 0 6.577-1.179 8.911-3.53 2.335-2.35 3.531-5.307 3.531-8.886 0-3.628-1.188-6.6-3.531-8.936-2.342-2.375-5.299-3.53-8.911-3.53Zm4.557 17.426c-1.212 1.293-2.747 1.939-4.557 1.939-1.858 0-3.344-.646-4.556-1.939-1.212-1.317-1.81-2.981-1.81-4.96 0-2.028.598-3.717 1.786-5.01 1.211-1.316 2.722-1.962 4.58-1.962 1.859 0 3.394.646 4.581 1.963 1.188 1.292 1.786 2.98 1.786 5.009 0 1.987-.598 3.651-1.81 4.96Zm24.597-17.444c-3.023 0-5.568 1.043-7.556 3.145V6.148h-6.094v35.916h6.094v-2.611c1.996 2.125 4.533 3.184 7.556 3.184 3.208 0 5.891-1.18 7.952-3.532 2.061-2.352 3.096-5.31 3.096-8.892 0-3.63-1.035-6.604-3.096-8.94-2.061-2.377-4.744-3.533-7.952-3.533Zm3.184 17.436c-1.188 1.294-2.634 1.94-4.421 1.94-1.81 0-3.297-.646-4.493-1.94-1.172-1.317-1.762-2.982-1.762-4.963 0-2.029.598-3.718 1.762-5.012 1.188-1.317 2.683-1.964 4.493-1.964 1.762 0 3.233.647 4.421 1.964 1.188 1.294 1.786 2.983 1.786 5.012.008 1.989-.59 3.654-1.786 4.963Zm14.373-28.84c-1.06 0-1.916.346-2.585 1.037-.693.667-1.044 1.56-1.044 2.596 0 1.053.326 1.905 1.02 2.596.668.667 1.549 1.013 2.609 1.013 1.044 0 1.893-.346 2.569-1.013.694-.691 1.044-1.535 1.044-2.596 0-1.037-.35-1.929-1.044-2.596-.668-.691-1.525-1.037-2.569-1.037Zm3.054 11.883h-6.128V42.08h6.128V18.22Zm38.059 6.996c-2.653-8.318-14.193-9.754-19.96-3.921-2.33 2.307-3.524 5.276-3.524 8.898 0 3.526 1.145 6.455 3.428 8.786 2.282 2.332 5.282 3.477 8.984 3.477 4.088 0 8.637-1.726 10.58-5.397l-4.758-2.259c-.871 1.775-3.5 2.348-5.258 2.348-3.677 0-6.105-1.985-6.879-5.05h17.944c.25-2.824.016-5.06-.557-6.882Zm-17.161 2.194a5.159 5.159 0 0 1 1.185-2.51c1.46-1.685 3.775-2.306 5.944-1.96 1.21.21 2.355.718 3.266 1.525.823.759 1.347 1.751 1.484 2.953h-11.879v-.008Zm-9.386-21.261h-6.128V42.08h6.128V6.148ZM40.808 34.557c.04.165.072.327.093.482.112.636.133 1.222.094 1.747-.155 2.053-1.1 3.226-2.445 3.884-1.396.68-3.24.841-5.056.841h-4.52c-.194-1.305-1.132-1.478-2.366-1.255a10.7 10.7 0 0 0 .49-.431c1.305-1.14 4.239-4.038 3.922-6.34-.345-2.567-3.484-2.322-5.738-1.57V18.631l-6.167-3.37-6.156 3.37v13.282c-2.25-.751-5.4-.996-5.75 1.572-.305 2.3 2.622 5.199 3.924 6.339.205.183.366.32.5.431-1.478-.277-2.528.032-2.395 2.136h24.249c1.938 0 3.916-.176 5.483-.935 1.622-.802 2.773-2.19 2.945-4.602a7.75 7.75 0 0 0-.1-1.964c-.033-.194-.072-.392-.112-.596l.223-.072a1.16 1.16 0 0 0 .784-1.428l-.633-2.19-.755.227-.428-1.478-2.14.626.428 1.478-.758.233.633 2.18a1.15 1.15 0 0 0 1.416.79l.335-.104Z" fill="#000"/><path fill-rule="evenodd" clip-rule="evenodd" d="M17.2 13.99c0 1.067.866 1.93 1.916 1.93 1.06 0 1.916-.863 1.916-1.93H17.2Z" fill="#000"/><path fill-rule="evenodd" clip-rule="evenodd" d="M13.673 3.326H24.56l1.55-2.323a2.345 2.345 0 0 1 1.622-.985c.834-.105 1.65.266 2.323.84 2.333 2.004 1.61 5.046.082 7.099.45.543-1.571 1.305-.949 1.654l4.045 2.269c0 9.553-3.944 13.365-14.106 18.327C8.517 24.777 5 21.994 5 11.412l4.045-1.83c.216-.093-1.244-1.654-1.09-1.83C6.529 5.706 5.929 2.8 8.18.859c.67-.575 1.498-.946 2.332-.841.644.093 1.244.431 1.611.985l1.55 2.323Z" fill="#FF5D20"/><path fill-rule="evenodd" clip-rule="evenodd" d="M15.622 6.777h6.994c.672 0 1.211.543 1.211 1.223v12.729c0 .68-.54 1.222-1.212 1.222h-6.993a1.22 1.22 0 0 1-1.212-1.223V8a1.217 1.217 0 0 1 1.212-1.223Z" fill="#fff"/><path d="M25.425 8.955h-4.138v1.201l.794 1.327v.01c.184.3.417.616.684.824.093.072.183.122.233.122h2.427a.246.246 0 0 0 .194-.082h.011a.304.304 0 0 0 .072-.194V9.236a.262.262 0 0 0-.083-.195.271.271 0 0 0-.194-.086Zm-8.482 1.201v-1.2h-4.139a.282.282 0 0 0-.194.082.263.263 0 0 0-.082.194v2.927a.282.282 0 0 0 .277.277h2.427c.06 0 .143-.05.244-.123.255-.204.49-.524.672-.823v-.01l.795-1.324Zm-4.139-3.811h12.618c.794 0 1.51.327 2.028.852a2.88 2.88 0 0 1 .834 2.035v2.927c0 .791-.327 1.51-.834 2.035h-.011a2.829 2.829 0 0 1-2.017.841h-2.427c-.694 0-1.306-.266-1.823-.668-.529-.421-.957-.996-1.284-1.532l-.773-1.273-.766 1.273c-.327.536-.766 1.111-1.294 1.532-.522.399-1.122.668-1.823.668h-2.427c-.784 0-1.5-.32-2.018-.84a2.873 2.873 0 0 1-.834-2.036V9.232c0-.802.317-1.52.834-2.035a2.853 2.853 0 0 1 2.018-.852Z" fill="#000"/><path d="M11.4 7.794H7.895v2.467H11.4V7.794Zm18.742 0h-3.505v2.467h3.505V7.794Z" fill="#000"/><path fill-rule="evenodd" clip-rule="evenodd" d="M17.2 18.294c0 1.057.866 1.92 1.916 1.92 1.06 0 1.916-.863 1.916-1.92H17.2Z" fill="#000"/></svg>