<svg width="136" height="116" viewBox="0 0 136 116" fill="none" xmlns="http://www.w3.org/2000/svg">
<rect x="1.66797" y="97.5996" width="132.664" height="16.026" rx="8.01302" stroke="black" stroke-width="3"/>
<rect x="8.44336" y="102.718" width="120.774" height="5.79053" rx="2.89527" fill="black"/>
<path fill-rule="evenodd" clip-rule="evenodd" d="M52.0453 56.4054H97.424C98.8379 56.4054 99.7415 57.0674 100.319 58.0858C101.473 59.2315 102.946 59.9019 104.485 60.1396C106.225 60.4111 108.049 60.1396 109.622 59.4012C110.25 59.1042 110.818 58.7477 111.312 58.3404C112.659 57.2371 113.521 55.7519 113.872 54.1394C114.224 52.5185 114.048 50.7787 113.312 49.1747C113.027 48.5467 112.659 47.9441 112.199 47.3755C111.429 46.408 110.45 45.5424 109.371 44.7361C108.25 43.9044 107.037 43.1491 105.824 42.4277C102.343 40.357 99.775 38.8124 98.0097 36.2918C96.236 33.7628 95.3659 30.4021 95.3659 24.7923V21.0666H94.7134C93.2493 21.0666 92.0529 19.853 92.0529 18.3679V13.0382H93.8851V9.42285H99.0722V13.0382H100.904V18.3679C100.904 19.853 99.708 21.0666 98.2439 21.0666H97.5244V24.7923C97.5244 29.9013 98.2523 32.8802 99.7582 35.0188C101.264 37.166 103.657 38.6002 106.903 40.5352C108.183 41.299 109.463 42.0968 110.634 42.9709C111.848 43.8705 112.952 44.8634 113.855 45.9922C114.433 46.7135 114.893 47.4689 115.253 48.2581C116.19 50.3119 116.407 52.5439 115.964 54.6147C115.512 56.6939 114.391 58.6204 112.651 60.0462C112.015 60.5724 111.295 61.0307 110.501 61.4041C108.551 62.3206 106.292 62.6601 104.134 62.3206C103.105 62.1594 102.101 61.8454 101.155 61.3701C101.356 63.4833 101.164 65.7917 101.189 67.2599C101.197 68.0916 101.222 68.9233 101.273 69.7465C101.348 69.8144 101.423 69.8908 101.507 69.9587C103.272 71.5712 107.547 71.7324 109.154 71.7918C109.446 71.8003 109.656 71.8088 109.756 71.8258C110.091 71.8682 110.333 72.038 110.501 72.2671C110.542 72.318 110.576 72.3774 110.601 72.4368C110.509 74.6094 110.434 79.6251 111.379 83.2235C111.689 84.3862 112.065 85.3791 112.467 86.2193C113.763 88.9266 114.968 90.1317 112.433 92.822C111.906 92.771 109.898 93.2293 107.748 90.3354C104.82 86.3805 106.97 83.2914 103.933 79.0989C102.837 77.5883 101.532 77.4864 97.1898 77.13C96.6543 77.0876 96.0687 77.0366 95.4329 76.9857C96.3782 79.9476 98.5033 81.7553 99.7666 82.7822C100.729 83.5629 99.9005 84.8444 99.457 85.8713C97.8507 89.6225 96.0269 93.2548 94.2114 96.9041H86.824C86.0375 93.5009 87.6857 92.2449 90.8983 92.2618C91.7768 91.0482 92.4879 87.7045 92.329 86.3211C92.1031 84.4286 90.4131 82.9095 88.8653 82.0353C87.3427 81.1782 84.8161 79.7439 81.8209 75.2714C75.7303 78.4285 67.6735 82.2814 58.7885 83.0622C60.6375 88.8162 62.0263 95.0115 60.0351 96.6834C57.1822 96.6834 54.3293 96.6834 51.4764 96.6834C50.3386 94.1968 52.1122 91.7611 54.5385 91.7951C54.5803 91.5659 54.5636 91.167 54.4381 90.5051C53.7186 86.6606 51.3425 83.7412 48.5566 81.2291C47.7869 80.5332 47.0674 79.8457 46.3981 79.1498C40.8429 81.4837 35.0952 83.843 34.4008 85.2009C37.2621 89.5631 36.1745 90.3863 33.5893 92.3382C26.6285 87.8063 28.3771 82.1372 34.2669 77.8004L41.3616 72.5811C39.9142 69.8399 39.4875 67.3448 39.454 65.2655H52.0202V56.4054H52.0453Z" fill="black"/>
<path fill-rule="evenodd" clip-rule="evenodd" d="M46.5087 69.985C70.632 58.3137 79.9946 48.0792 79.9946 25.5714H62.571C63.5831 24.3908 73.9553 14.5884 74.5963 13.1042C76.3086 9.16595 76.1315 4.7386 72.6395 1.70271C69.5524 -0.978992 65.9254 -0.422412 63.7071 2.8749L61.1261 6.71193H31.8576L29.2766 2.8749C27.0583 -0.422412 23.4398 -0.970559 20.3442 1.70271C16.8522 4.7386 16.6751 9.16595 18.3874 13.1042C19.0115 14.5378 24.7434 24.4161 25.7133 25.5714H12.9807C12.9891 50.4657 21.3395 57.2005 46.5087 69.985Z" fill="#FF5D20"/>
<path fill-rule="evenodd" clip-rule="evenodd" d="M38.5363 16.1523H54.4633C55.9797 16.1523 57.222 17.3744 57.222 18.8661V48.4311C57.222 49.9228 55.9797 51.1448 54.4633 51.1448H38.5363C37.0199 51.1448 35.7776 49.9228 35.7776 48.4311V18.8661C35.7691 17.3744 37.0113 16.1523 38.5363 16.1523Z" fill="white"/>
<path fill-rule="evenodd" clip-rule="evenodd" d="M42.4592 44.416C42.4671 46.6494 44.2647 48.4536 46.4801 48.4536C48.6955 48.4536 50.493 46.6494 50.5009 44.416H42.4592Z" fill="black"/>
<rect x="19.6897" y="16.1504" width="52.2708" height="9.42105" fill="black"/>
</svg>
