<svg width="91" height="133" viewBox="0 0 91 133" fill="none" xmlns="http://www.w3.org/2000/svg">
<path d="M85.9337 114.635C86.0247 115.015 86.0991 115.387 86.1488 115.743C86.4052 117.207 86.4548 118.531 86.3638 119.763C86.0081 124.487 83.8325 127.184 80.7387 128.697C77.5291 130.261 73.2855 130.633 69.1081 130.633H58.7181C58.2715 127.63 56.1124 127.233 53.2751 127.746C53.5812 127.49 53.9534 127.175 54.4001 126.753C57.4029 124.131 64.153 117.464 63.4251 112.17C62.6309 106.263 55.4093 106.826 50.2226 108.555V77.9971L36.0358 70.2461L21.8738 77.9971V108.555C16.6954 106.826 9.44897 106.263 8.64657 112.17C7.94343 117.464 14.677 124.131 17.6716 126.753C18.1431 127.175 18.5153 127.49 18.8214 127.746C15.4215 127.109 13.006 127.821 13.3121 132.66H13.8498H20.3186H34.6957H36.0358H51.7695H58.2218H58.7843H69.0998C73.5585 132.66 78.1082 132.254 81.69 130.509C85.4456 128.664 88.0927 125.471 88.4897 119.896C88.6056 118.547 88.5394 117.034 88.2581 115.404C88.1836 114.957 88.0927 114.486 88.0017 114.006L88.5146 113.865C89.9209 113.46 90.715 111.971 90.318 110.581L88.8621 105.544L87.1248 106.065L86.1405 102.665L81.2186 104.104L82.2029 107.504L80.4409 108.025L81.8968 113.038C82.2939 114.436 83.7746 115.263 85.156 114.858L85.9337 114.635Z" fill="black"/>
<path fill-rule="evenodd" clip-rule="evenodd" d="M31.6248 67.3174C31.6248 69.7742 33.6183 71.7596 36.0338 71.7596C38.4741 71.7596 40.4429 69.7742 40.4429 67.3174H31.6248Z" fill="black"/>
<path fill-rule="evenodd" clip-rule="evenodd" d="M23.5344 42.7822H48.5577H71.0664H71.4386C72.026 46.1159 69.3045 49.7805 64.7547 51.8816C63.82 52.4524 62.8521 52.8743 61.967 53.23C64.2171 55.8771 66.4671 58.6648 68.5599 61.3864C68.5599 79.5604 64.035 87.7416 51.6102 95.9145C47.3666 98.818 42.2296 101.614 36.1081 104.609L36.0585 104.633L36.0089 104.609C29.8875 101.606 24.7504 98.818 20.5068 95.9145C8.05717 87.7333 3.55711 79.5604 3.55711 61.3864C5.6417 58.6648 7.89168 55.8771 10.1252 53.23C9.2566 52.8743 8.29705 52.4524 7.36229 51.8816C2.78777 49.7805 0.0910505 46.1159 0.653559 42.7822H16.503H23.5344Z" fill="#FF5D20"/>
<path fill-rule="evenodd" clip-rule="evenodd" d="M27.9808 50.7256H44.0703C45.6172 50.7256 46.858 51.9747 46.858 53.5381V82.8217C46.858 84.3851 45.6172 85.6342 44.0703 85.6342H27.9808C26.4588 85.6342 25.1931 84.3851 25.1931 82.8217V53.5381C25.1931 51.9747 26.4588 50.7256 27.9808 50.7256Z" fill="white"/>
<path fill-rule="evenodd" clip-rule="evenodd" d="M31.6248 77.2197C31.6248 79.6518 33.6183 81.6371 36.0338 81.6371C38.4741 81.6371 40.4429 79.6518 40.4429 77.2197H31.6248Z" fill="black"/>
<path fill-rule="evenodd" clip-rule="evenodd" d="M36.0307 0C41.1925 0 45.3866 4.22709 45.3866 9.4303C45.3866 15.6262 41.3332 14.3688 41.3332 23.7329C41.3332 24.3451 40.8204 25.1475 40.1586 25.1475H31.9525C31.2494 25.1475 30.7531 24.3699 30.7531 23.7329C30.7531 14.3771 26.6997 15.6262 26.6997 9.4303C26.6914 4.23536 30.8688 0 36.0307 0Z" fill="#FF5D20"/>
<path fill-rule="evenodd" clip-rule="evenodd" d="M33.8994 28.7461H34.131H37.9528H38.1844V30.9879C38.1844 31.0127 38.1844 31.0375 38.1844 31.0375V31.1119V31.1616L38.1596 31.2112V31.2857V31.3353L38.1347 31.3849V31.4346L38.1099 31.509V31.5586L38.0851 31.6083V31.6579L38.0603 31.7075L38.0355 31.7572L38.0106 31.8068V31.8812L37.9859 31.9309L37.961 31.9805L37.9362 32.0301L37.9114 32.0798L37.8866 32.1046L37.8369 32.1542L37.8121 32.2039L37.7874 32.2535L37.7625 32.3031L37.7377 32.3528L37.688 32.3776L37.6633 32.4272L37.6136 32.4768L37.5887 32.5017L37.5392 32.5513L37.5143 32.6009L37.4647 32.6257L37.4399 32.6754C37.4151 32.6754 37.415 32.7002 37.3902 32.7002L37.3406 32.7498L37.3158 32.7746L37.2662 32.7995L37.2165 32.8491L37.1669 32.8739L37.1173 32.8987L37.0924 32.9235C37.0676 32.9484 37.0428 32.9484 37.0428 32.9484L36.9932 32.9732L36.9436 33.0228H36.8939L36.8443 33.0476L36.7946 33.0724L36.7451 33.0973L36.6954 33.1221L36.6458 33.1469H36.5713L36.5217 33.1717L36.472 33.1965H36.4224L36.3727 33.2213H36.3066L36.2569 33.2462H36.2073H36.1577H36.0915H36.0418L35.9923 33.271H35.9178H35.8682L35.8186 33.2462H35.7523H35.7028H35.6531H35.5786L35.529 33.2213H35.4794L35.4297 33.1965H35.3553L35.3057 33.1717L35.256 33.1469H35.2063L35.1568 33.1221L35.1071 33.0973L35.0575 33.0724L35.0078 33.0476L34.9582 33.0228H34.9086L34.859 32.9732L34.8093 32.9484L34.7597 32.9235L34.71 32.8987L34.6604 32.8739L34.6108 32.8491L34.5859 32.7995L34.5363 32.7746L34.4867 32.7498L34.4371 32.7002L34.4122 32.6754C34.3874 32.6506 34.3875 32.6506 34.3627 32.6257L34.3378 32.6009L34.2881 32.5513L34.2386 32.5017C34.2386 32.5017 34.2385 32.4768 34.2137 32.4768L34.1889 32.4272C34.1641 32.4272 34.1641 32.4024 34.1393 32.3776L34.1145 32.3528L34.0896 32.3031L34.04 32.2535L34.0152 32.2039L33.9904 32.1542L33.9655 32.1046L33.9408 32.0798C33.916 32.055 33.9159 32.0301 33.9159 32.0301L33.8911 31.9805L33.8662 31.9309L33.8415 31.8812L33.8167 31.8068L33.7918 31.7572L33.767 31.7075V31.6579L33.7422 31.6083V31.5586L33.7174 31.509V31.4346H33.6926V31.3849V31.3353L33.6677 31.2857V31.2112V31.1616V31.1119V31.0375V30.9879V28.7461H33.8994Z" fill="black"/>
<path fill-rule="evenodd" clip-rule="evenodd" d="M32.1604 25.1494H39.8949V30.7993C39.8949 31.2212 39.564 31.5521 39.1669 31.5521H32.8801C32.483 31.5521 32.1521 31.2212 32.1521 30.7993V25.1494H32.1604Z" fill="black"/>
</svg>
