<svg width="128" height="96" viewBox="0 0 128 96" fill="none" xmlns="http://www.w3.org/2000/svg">
<path fill-rule="evenodd" clip-rule="evenodd" d="M50.3911 95.3343H71.4024H75.5054C76.9613 95.3343 77.2425 94.4161 76.8207 93.1588C76.4484 92.0503 76.2334 92.3067 76.3988 90.6523L77.3336 82.0492C77.3584 81.6935 77.408 81.3626 77.4494 81.0814L77.4742 81.1062C77.5238 80.188 77.6148 79.3111 77.7058 78.5749C77.5652 78.4591 77.4494 78.335 77.3336 78.2192C77.3088 78.1944 77.2591 78.1447 77.2425 78.1282C77.0109 77.7725 76.6553 77.392 76.1424 76.9453C67.9116 69.6906 54.2872 58.3907 50.3993 55.1977V85.8296C50.7964 85.8544 51.1934 85.8792 51.5988 85.904C51.9048 87.8894 52.8893 89.0971 53.7578 89.7589C52.6825 89.6679 51.5574 89.5686 50.4076 89.5686V95.3343H50.3911ZM48.0666 95.3343H50.3911V89.5686C49.3157 89.5686 48.232 89.6431 47.107 89.8499C47.0822 89.8499 47.0574 89.8499 47.0325 89.8499C47.1732 88.5015 47.2642 87.0622 47.3386 85.598C48.3726 85.689 49.3818 85.7634 50.3828 85.8379V55.206C49.7045 54.6352 49.3074 54.3291 49.3074 54.3291L46.8671 55.6775C45.8083 54.8006 45.2292 54.3291 45.2292 54.3291L41.2668 56.4799L38.7107 55.7933L21.4053 62.1298L24.739 75.7706C25.5166 76.7385 26.3603 77.6401 27.2703 78.4425C27.4854 83.29 27.5515 87.757 27.3199 90.3793C24.9954 90.7598 23.7298 91.7277 24.2261 95.3426H26.807H32.0599C33.4413 92.2902 33.9128 87.5171 34.0286 82.5538C36.2787 83.4968 38.6693 84.1834 41.1096 84.6798C41.3247 86.6651 41.4157 88.5594 41.3247 90.1394C39.0002 90.8922 38.0406 92.1247 38.5618 95.3426H42.7558H43.1529H43.5086H43.9801H45.618H46.015H48.0666V95.3343Z" fill="black"/>
<path fill-rule="evenodd" clip-rule="evenodd" d="M32.967 69.1952C56.6255 57.6637 65.8159 48.796 65.8159 26.5355L58.0069 16.9646C59.0161 15.8065 59.8847 14.4333 60.5134 12.9443C62.201 9.06463 62.0107 4.6721 58.5943 1.69411C55.5666 -0.977807 52.0013 -0.407024 49.8506 2.8274L47.3193 6.63261H18.6148L16.0835 2.8274C13.8996 -0.407024 10.3591 -0.977807 7.31498 1.69411C3.89029 4.6721 3.72484 9.06463 5.39582 12.9443C6.03278 14.3588 6.85172 15.7072 7.81129 16.8405L0.118164 25.4436C0.118164 50.0781 8.29938 56.5553 32.967 69.1952Z" fill="#FF5D20"/>
<path fill-rule="evenodd" clip-rule="evenodd" d="M25.3213 15.5908H40.6828C42.1635 15.5908 43.3547 16.7986 43.3547 18.2627V47.5215C43.3547 49.0105 42.1552 50.2182 40.6828 50.2182H25.3213C23.8406 50.2182 22.6494 49.0105 22.6494 47.5215V18.2627C22.6494 16.7986 23.8406 15.5908 25.3213 15.5908Z" fill="white"/>
<path fill-rule="evenodd" clip-rule="evenodd" d="M28.7881 43.8809C28.7881 46.2219 30.6907 48.1079 33.0069 48.1079C35.3231 48.1079 37.2009 46.2136 37.2009 43.8809H28.7881Z" fill="black"/>
<path fill-rule="evenodd" clip-rule="evenodd" d="M76.7195 77.7959C76.7195 77.6552 76.6947 77.5146 76.6451 77.374C76.2894 78.8133 72.8729 78.7885 73.5264 80.8235C73.5761 80.4926 75.1891 81.4108 75.2388 81.0799C75.2636 80.8648 77.067 81.1709 77.067 80.9145C78.9861 81.9816 81.1451 82.3538 83.238 82.1884C84.5036 82.0726 85.7693 81.7417 86.9191 81.2454C88.0689 80.7242 89.1443 80.0376 90.0377 79.169C91.8411 77.4236 92.9247 75.0081 92.6848 72.146C92.4698 69.8794 91.5846 67.8444 90.2942 66.0742C89.0533 64.3287 87.4568 62.8398 85.8603 61.6072C84.5698 60.5897 83.3042 59.7377 82.1047 58.9353C82.0799 58.9105 82.0799 58.9105 82.0551 58.8857C81.5835 58.5796 81.1368 58.2735 80.6984 57.9674C78.7048 56.5943 76.521 55.0391 74.8582 53.1944C73.2865 51.4489 72.1863 49.3892 72.236 46.9075C72.236 45.6998 72.5917 44.5665 73.2452 43.6731C73.8822 42.8211 74.7672 42.1593 75.9419 41.8036C76.3638 41.6629 76.8601 41.5637 77.3978 41.4975C77.6294 41.4727 77.8445 41.4479 78.0761 41.4479V39.2227C77.7452 39.2475 77.4392 39.2723 77.1579 39.3137C76.4796 39.3881 75.8675 39.5039 75.305 39.6694C73.6671 40.1657 72.4014 41.1087 71.508 42.3413C70.5733 43.6152 70.0769 45.2034 70.0521 46.8827C70.0273 50.0261 71.3426 52.5574 73.2617 54.6834C75.0651 56.7183 77.3896 58.348 79.4493 59.7873C79.896 60.0934 80.3675 60.3995 80.8308 60.7303C80.8556 60.7552 80.8804 60.7552 80.9052 60.78C82.146 61.6072 83.4365 62.484 84.5367 63.3526C85.9926 64.4859 87.4403 65.8095 88.5239 67.3481C89.5993 68.8371 90.3521 70.4915 90.4927 72.3362C90.683 74.4622 89.8557 76.2572 88.5239 77.556C87.8208 78.2426 86.977 78.8051 86.0423 79.2104C85.1075 79.6157 84.0983 79.8722 83.0394 79.9632C80.839 80.1534 78.5642 79.5827 76.7774 78.0523C76.7691 77.9613 76.7443 77.8951 76.7195 77.7959Z" fill="black"/>
<path fill-rule="evenodd" clip-rule="evenodd" d="M92.501 41.4494H92.6416V41.7803C92.6416 43.2693 93.8411 44.5018 95.2887 44.477L99.4165 44.4522V42.5827L103.875 42.5578V37.2636L99.4165 37.2885V35.4189L95.2887 35.4438C93.8328 35.4686 92.6416 36.6929 92.6416 38.1819V39.2242H92.501V41.4494Z" fill="black"/>
<path d="M92.6172 39.2227H78.083V41.4479H92.6172V39.2227Z" fill="black"/>
<path fill-rule="evenodd" clip-rule="evenodd" d="M100.261 22.4717H126.616C127.319 22.4717 127.882 23.0425 127.882 23.7456V94.0592C127.882 94.7706 127.319 95.3331 126.616 95.3331H100.261C99.5825 95.3331 98.9951 94.7623 98.9951 94.0592V23.7456C98.9951 23.0342 99.5825 22.4717 100.261 22.4717Z" fill="black"/>
<path d="M120.171 45.2295H106.737V49.6055H120.171V45.2295Z" fill="white"/>
<path d="M120.171 52.8906H106.737V57.2666H120.171V52.8906Z" fill="white"/>
<path d="M120.171 60.542H106.737V64.918H120.171V60.542Z" fill="white"/>
<path d="M120.171 68.2012H106.737V72.5772H120.171V68.2012Z" fill="white"/>
</svg>
