<svg width="88" height="98" viewBox="0 0 88 98" fill="none" xmlns="http://www.w3.org/2000/svg">
<path d="M82.9514 79.5162C83.0424 79.8968 83.1169 80.2691 83.1665 80.6249C83.423 82.0892 83.4726 83.4378 83.3816 84.6456C83.0259 89.3697 80.85 92.0667 77.7558 93.5807C74.5458 95.1444 70.3016 95.5167 66.1237 95.5167H55.7242C55.2775 92.5135 53.1181 92.1164 50.2804 92.6293C50.5865 92.3729 50.9588 92.0585 51.4056 91.6365C54.4088 89.0139 61.1597 82.3457 60.4317 77.0508C59.6374 71.1437 52.4149 71.7063 47.2276 73.4354V42.8741L33.039 35.1221L18.8752 42.8741V73.4354C13.6962 71.7063 6.44883 71.1437 5.64633 77.0508C4.94311 82.3457 11.6775 89.0139 14.6724 91.6365C15.144 92.0585 15.5163 92.3729 15.8224 92.6293C12.4221 91.9923 10.0063 92.7038 10.3124 97.5436H10.8502H17.3199H31.6987H33.039H48.7747H55.2278H55.7904H66.1071C70.5664 97.5436 75.1167 97.1382 78.7238 95.3926C82.455 93.5476 85.1025 90.3542 85.4996 84.8028C85.6154 83.4295 85.5492 81.9155 85.2679 80.2856C85.1935 79.8389 85.1025 79.3839 85.0115 78.9123L85.5244 78.7468C86.9308 78.3414 87.7251 76.8523 87.328 75.4624L85.8719 70.424L84.1345 70.9452L83.15 67.5449L78.2274 68.9844L79.2119 72.3847L77.4663 72.9225L78.9223 77.9361C79.3195 79.3342 80.8004 80.1615 82.182 79.7562L82.9514 79.5162Z" fill="black"/>
<path fill-rule="evenodd" clip-rule="evenodd" d="M28.6382 32.1904C28.6382 34.6476 30.632 36.6332 33.0478 36.6332C35.4884 36.6332 37.4574 34.6476 37.4574 32.1904H28.6382Z" fill="black"/>
<path fill-rule="evenodd" clip-rule="evenodd" d="M20.5249 7.65177H45.5762L49.142 2.30726C50.0107 1.03318 51.3923 0.247227 52.8732 0.0403966C54.7926 -0.199527 56.6706 0.652613 58.2177 1.97633C63.587 6.58452 61.9241 13.5837 58.408 18.3077C59.4422 19.5569 54.7926 21.3109 56.2239 22.1134L65.5312 27.3338C65.5312 49.3158 56.4555 58.0854 33.0754 69.5025C8.66105 57.0099 0.569824 50.6064 0.569824 26.2583L9.87721 22.0472C10.3736 21.8321 7.01467 18.2415 7.37042 17.8361C4.08595 13.1286 2.70432 6.44388 7.88336 1.97633C9.43046 0.652613 11.3333 -0.199527 13.2527 0.0403966C14.7336 0.255501 16.1152 1.03318 16.9591 2.30726L20.5249 7.65177Z" fill="#FF5D20"/>
<path fill-rule="evenodd" clip-rule="evenodd" d="M25.0103 15.5957H41.1017C42.6488 15.5957 43.8898 16.845 43.8898 18.4086V47.6958C43.8898 49.2595 42.6488 50.5088 41.1017 50.5088H25.0103C23.488 50.5088 22.2222 49.2595 22.2222 47.6958V18.4086C22.2139 16.8532 23.4797 15.5957 25.0103 15.5957Z" fill="white"/>
<path d="M47.5719 20.6069H38.0494V23.3702L39.8778 26.423V26.4479C40.2997 27.1345 40.8375 27.8626 41.4497 28.3424C41.6648 28.5079 41.8716 28.6237 41.9875 28.6237H47.5719C47.7622 28.6237 47.9276 28.5493 48.0186 28.4334H48.0435C48.1345 28.3176 48.2089 28.177 48.2089 27.9867V21.2523C48.2089 21.062 48.1345 20.9213 48.0186 20.8055C47.9028 20.6897 47.7539 20.6069 47.5719 20.6069ZM28.0553 23.3702V20.6069H18.5328C18.3674 20.6069 18.2019 20.6814 18.0861 20.7972C17.9703 20.9131 17.8958 21.0537 17.8958 21.244V27.9784C17.8958 28.1439 17.9703 28.3093 18.0861 28.4252C18.2019 28.541 18.3674 28.6154 18.5328 28.6154H24.1173C24.2579 28.6154 24.4482 28.4996 24.6799 28.3341C25.2673 27.8626 25.805 27.1263 26.2269 26.4396V26.4148L28.0553 23.3702ZM18.5328 14.6006C28.2456 14.6006 37.8591 14.6006 47.5636 14.6006C49.392 14.6006 51.0384 15.3534 52.2297 16.5613C53.4045 17.7444 54.1491 19.3991 54.1491 21.244V27.9784C54.1491 29.7985 53.3962 31.4532 52.2297 32.661H52.2049C51.0053 33.8689 49.3672 34.597 47.5636 34.597H41.9792C40.3825 34.597 38.976 33.9848 37.7847 33.0582C36.5685 32.0902 35.584 30.7665 34.8311 29.5338L33.0524 26.605L31.2902 29.5338C30.5373 30.7665 29.528 32.0902 28.3118 33.0582C27.1122 33.9765 25.7306 34.597 24.1173 34.597H18.5328C16.7293 34.597 15.0829 33.8607 13.8916 32.661C12.6919 31.4532 11.9722 29.7985 11.9722 27.9784V21.244C11.9722 19.3991 12.7002 17.7444 13.8916 16.5613C15.0912 15.3617 16.7293 14.6006 18.5328 14.6006Z" fill="black"/>
<path d="M15.2944 17.9355H7.22803V23.611H15.2944V17.9355Z" fill="black"/>
<path d="M58.4233 17.9355H50.3569V23.611H58.4233V17.9355Z" fill="black"/>
<path fill-rule="evenodd" clip-rule="evenodd" d="M28.6382 42.0957C28.6382 44.528 30.632 46.5136 33.0478 46.5136C35.4884 46.5136 37.4574 44.528 37.4574 42.0957H28.6382Z" fill="black"/>
</svg>
