<svg width="117" height="117" viewBox="0 0 117 117" fill="none" xmlns="http://www.w3.org/2000/svg">
<path d="M58.4307 0.611335C90.4973 0.595878 116.504 26.5799 116.504 58.6309C116.504 90.6665 90.4586 116.651 58.3998 116.62C26.372 116.589 0.449783 90.5352 0.496156 58.43C0.542528 26.5567 26.5265 0.626792 58.4307 0.611335ZM6.16905 61.2819C6.91101 87.861 30.3368 113.304 62.2256 111.094C77.7835 110.012 90.5127 103.025 100.12 90.6975C106.782 82.1417 110.43 72.4267 110.886 61.2819C107.508 61.2819 104.517 61.2819 101.526 61.2819C99.4394 61.2819 98.396 60.2617 98.2724 58.1595C98.1642 56.3432 97.9709 54.5347 97.7314 52.7262C94.779 30.3901 72.1183 14.6931 50.1455 19.7477C32.1608 23.8903 19.7948 38.5594 18.7592 56.977C18.5427 60.8877 18.1409 61.2587 14.0678 61.2742C11.5096 61.2896 8.95912 61.2819 6.16905 61.2819ZM110.708 55.7713C110.716 33.2111 90.7987 5.61955 57.8279 6.03691C24.9035 6.45426 6.12267 34.3318 6.30816 55.7636C8.61133 55.7636 10.9068 55.7636 13.1867 55.7636C16.0232 29.2231 36.1643 15.0332 54.8137 13.5802C65.0775 12.7764 74.6379 15.1414 83.2245 20.8683C95.6755 29.1767 102.199 41.1099 103.698 55.7713C106.287 55.7713 108.497 55.7713 110.708 55.7713Z" fill="black"/>
<path d="M74.0359 76.9556C74.0359 80.7041 74.0823 84.4602 74.0282 88.2087C73.8968 96.9344 67.0646 103.743 58.4934 103.743C49.9223 103.743 43.0669 96.9267 42.9819 88.201C42.9123 80.4877 42.9123 72.7667 42.9819 65.0534C43.0669 56.3277 49.9223 49.5264 58.5012 49.5264C67.0723 49.5264 73.8968 56.3354 74.0205 65.0611C74.0823 69.026 74.0359 72.9908 74.0359 76.9556ZM48.2992 76.461C48.2992 80.2094 48.2529 83.9579 48.307 87.6986C48.4074 93.8197 52.7046 98.341 58.4007 98.3951C64.0736 98.457 68.5949 93.9279 68.6722 87.8763C68.7649 80.3872 68.7649 72.8903 68.6722 65.3935C68.5949 59.3264 64.1045 54.8128 58.4239 54.8592C52.7278 54.9133 48.4152 59.4269 48.3147 65.5403C48.2529 69.1805 48.2992 72.8208 48.2992 76.461Z" fill="black"/>
<path d="M61.1507 64.8909C61.0271 66.4985 60.2387 67.5573 58.6234 67.6346C57.0158 67.7119 55.9879 66.769 55.9029 65.1614C55.8256 63.5538 56.7531 62.5336 58.3684 62.4332C60.0146 62.3481 60.8493 63.3683 61.1507 64.8909Z" fill="black"/>
</svg>
