<svg width="117" height="117" viewBox="0 0 117 117" fill="none" xmlns="http://www.w3.org/2000/svg">
<path d="M58.4303 6.89297e-06C90.4968 -0.0154506 116.504 25.9686 116.504 58.0196C116.504 90.0552 90.4581 116.039 58.3993 116.008C26.3715 115.977 0.449295 89.9238 0.495668 57.8187C0.54204 25.9454 26.526 0.0154644 58.4303 6.89297e-06ZM6.16856 60.6706C6.91052 87.2497 30.3363 112.693 62.2251 110.482C77.783 109.4 90.5122 102.413 100.119 90.0861C106.781 81.5304 110.429 71.8154 110.885 60.6706C107.508 60.6706 104.517 60.6706 101.526 60.6706C99.4389 60.6706 98.3955 59.6504 98.2719 57.5482C98.1637 55.7319 97.9705 53.9234 97.7309 52.1149C94.7785 29.7788 72.1178 14.0818 50.1451 19.1364C32.1603 23.279 19.7943 37.9481 18.7587 56.3657C18.5423 60.2764 18.1404 60.6474 14.0673 60.6628C11.5091 60.6783 8.95863 60.6706 6.16856 60.6706ZM110.707 55.16C110.715 32.5998 90.7982 5.00823 57.8274 5.42558C24.903 5.84293 6.12219 33.7205 6.30768 55.1523C8.61084 55.1523 10.9063 55.1523 13.1862 55.1523C16.0227 28.6118 36.1638 14.4218 54.8132 12.9688C65.077 12.165 74.6374 14.53 83.224 20.257C95.675 28.5654 102.198 40.4986 103.697 55.16C106.287 55.16 108.497 55.16 110.707 55.16Z" fill="white"/>
<path d="M74.0344 76.3443C74.0344 80.0928 74.0808 83.8489 74.0267 87.5974C73.8953 96.3231 67.0631 103.132 58.492 103.132C49.9208 103.132 43.0654 96.3154 42.9804 87.5896C42.9108 79.8763 42.9108 72.1553 42.9804 64.4421C43.0654 55.7163 49.9208 48.915 58.4997 48.915C67.0709 48.915 73.8953 55.7241 74.019 64.4498C74.0808 68.4146 74.0344 72.3795 74.0344 76.3443ZM48.2978 75.8497C48.2978 79.5981 48.2514 83.3465 48.3055 87.0873C48.406 93.2084 52.7031 97.7297 58.3992 97.7838C64.0721 97.8456 68.5934 93.3166 68.6707 87.265C68.7634 79.7759 68.7634 72.279 68.6707 64.7821C68.5934 58.7151 64.103 54.2015 58.4224 54.2479C52.7263 54.302 48.4137 58.8155 48.3132 64.929C48.2514 68.5692 48.2978 72.2094 48.2978 75.8497Z" fill="white"/>
<path d="M61.1507 64.2801C61.0271 65.8876 60.2387 66.9465 58.6234 67.0238C57.0158 67.1011 55.9879 66.1581 55.9029 64.5506C55.8256 62.943 56.7531 61.9228 58.3684 61.8223C60.0146 61.7373 60.8493 62.7575 61.1507 64.2801Z" fill="white"/>
</svg>
