<svg width="102" height="114" viewBox="0 0 102 114" fill="none" xmlns="http://www.w3.org/2000/svg">
<path d="M67.1412 70.2327C66.6518 81.2616 60.8352 87.9393 51.8852 88.2329C46.8657 88.403 42.7064 86.6022 39.3363 83.0006C36.0452 79.4763 35.0666 75.1868 35.3033 70.2327C34.0169 70.2327 32.9514 70.2327 31.8859 70.2327C24.2224 70.2327 16.5668 70.2095 8.90333 70.2404C5.92002 70.2559 3.59177 69.0889 1.95804 66.6929C-0.393882 63.2459 0.174368 59.3507 3.59966 56.3133C8.87176 51.6451 14.2465 47.0697 19.5738 42.4634C25.2248 37.5711 30.8836 32.6865 36.6371 27.7092C36.6371 25.7616 36.6135 23.8448 36.645 21.9204C36.7161 16.6417 39.8178 13.5579 45.1767 13.442C46.1396 13.4188 47.1103 13.442 48.4678 13.442C48.4678 10.8915 48.4678 8.57287 48.4678 6.24652C48.4678 5.49683 48.4441 4.74714 48.4757 3.99745C48.5704 1.76385 49.4543 0.650908 51.1117 0.612264C52.7691 0.57362 53.803 1.73293 53.8741 3.87379C53.9372 5.90645 53.8899 7.94685 53.8899 9.97951C53.8899 11.0229 53.8899 12.074 53.8899 13.442C55.1448 13.442 56.0997 13.4265 57.0547 13.442C62.603 13.5502 65.6574 16.6108 65.7126 22.1213C65.7284 23.9376 65.7126 25.7538 65.7126 27.7015C71.3794 32.6092 77.0303 37.5015 82.6812 42.3861C88.0086 47.0001 93.3517 51.5987 98.6712 56.2283C101.134 58.3768 102.388 60.9737 101.489 64.2584C100.471 67.9605 97.5899 70.1863 93.5569 70.2172C86.0039 70.2713 78.4509 70.2327 70.9058 70.2404C69.722 70.2327 68.5381 70.2327 67.1412 70.2327ZM62.0032 31.62C55.7525 31.62 49.628 31.6895 43.5035 31.5813C41.412 31.5427 39.8257 32.1069 38.2393 33.4903C28.4449 42.0383 18.5399 50.4781 8.69813 58.9797C7.44324 60.0617 5.50961 60.9428 6.21993 63.0759C6.99338 65.4023 9.148 64.8999 10.9553 64.8999C37.7578 64.9154 64.5525 64.9076 91.355 64.9076C92.231 64.9076 93.1229 64.9849 93.9752 64.8381C96.1772 64.4516 96.9585 62.4808 95.6326 60.7495C95.309 60.3245 94.875 59.9844 94.4646 59.6289C83.7072 50.3621 72.9578 41.0799 62.0032 31.62ZM61.2061 70.48C54.537 70.48 47.8522 70.48 41.2147 70.48C40.2913 75.0632 41.8935 78.9662 45.5713 81.223C49.3754 83.5571 53.219 83.5029 56.9758 81.1148C60.6536 78.7652 62.1532 74.9627 61.2061 70.48ZM42.0829 26.1557C48.2705 26.1557 54.1187 26.1557 60.2906 26.1557C60.2906 24.5404 60.3695 23.0642 60.2669 21.6035C60.1327 19.6945 59.3435 18.8366 57.402 18.798C53.2506 18.7052 49.0913 18.7052 44.9399 18.798C43.0142 18.8443 42.2328 19.71 42.0987 21.6267C42.0039 23.0101 42.0829 24.4013 42.0829 26.1557Z" fill="black"/>
<path d="M53.8832 104.904C53.8832 106.929 53.9542 108.954 53.8595 110.978C53.7727 112.88 52.7151 113.954 51.1682 113.946C49.6134 113.939 48.5322 112.864 48.5006 110.955C48.4217 106.905 48.4217 102.856 48.5006 98.8057C48.5401 96.9045 49.6292 95.8379 51.184 95.8379C52.7388 95.8456 53.7806 96.9199 53.8595 98.8212C53.9542 100.846 53.8832 102.879 53.8832 104.904Z" fill="black"/>
<path d="M72.0096 87.0273C72.9567 87.607 73.7696 87.9471 74.3536 88.5035C77.2422 91.255 80.1072 94.0296 82.909 96.8738C84.448 98.435 84.4559 99.8957 83.1615 101.04C81.9777 102.083 80.6439 102.021 79.1443 100.599C76.1689 97.7858 73.2803 94.8797 70.3522 92.0124C69.4051 91.0849 69.0579 89.9102 69.7524 88.8127C70.2023 88.0862 71.1572 87.6688 72.0096 87.0273Z" fill="black"/>
<path d="M30.4329 87.1665C31.1985 87.7693 32.3113 88.2176 32.5402 88.9364C32.8164 89.7943 32.6823 91.1391 32.1377 91.8346C30.8986 93.4345 29.3122 94.7793 27.8521 96.2168C26.2421 97.8012 24.6636 99.4397 22.9746 100.939C21.6566 102.106 20.2518 102.091 19.1705 101.132C17.963 100.066 17.8841 98.5818 19.2415 97.1984C22.1775 94.1996 25.2082 91.2782 28.2546 88.3799C28.7519 87.8853 29.5174 87.6534 30.4329 87.1665Z" fill="black"/>
</svg>
