<svg width="100" height="114" viewBox="0 0 100 114" fill="none" xmlns="http://www.w3.org/2000/svg">
<path d="M65.5492 69.6214C65.07 80.6503 59.3739 87.3279 50.6095 87.6216C45.6941 87.7916 41.621 85.9908 38.3209 82.3892C35.098 78.8649 34.1396 74.5755 34.3715 69.6214C33.1117 69.6214 32.0683 69.6214 31.0249 69.6214C23.5203 69.6214 16.0235 69.5982 8.51885 69.6291C5.59739 69.6446 3.31741 68.4775 1.71756 66.0816C-0.585598 62.6346 -0.0291291 58.7393 3.32514 55.7019C8.48794 51.0338 13.7512 46.4584 18.9681 41.852C24.5019 36.9598 30.0434 32.0752 35.6776 27.0979C35.6776 25.1502 35.6544 23.2335 35.6854 21.3091C35.7549 16.0303 38.7923 12.9466 44.0401 12.8306C44.983 12.8075 45.9337 12.8306 47.263 12.8306C47.263 10.2802 47.263 7.96154 47.263 5.63519C47.263 4.8855 47.2398 4.13581 47.2707 3.38613C47.3635 1.15252 48.2291 0.0395795 49.8521 0.000935837C51.4752 -0.0377078 52.4876 1.1216 52.5572 3.26246C52.619 5.29512 52.5726 7.33552 52.5726 9.36818C52.5726 10.4116 52.5726 11.4627 52.5726 12.8306C53.8015 12.8306 54.7367 12.8152 55.6719 12.8306C61.1052 12.9388 64.0962 15.9994 64.1503 21.51C64.1657 23.3263 64.1503 25.1425 64.1503 27.0902C69.6995 31.9979 75.2333 36.8902 80.7671 41.7748C85.984 46.3888 91.2163 50.9874 96.4255 55.6169C98.8368 57.7655 100.066 60.3624 99.1846 63.6471C98.1876 67.3491 95.3666 69.575 91.4173 69.6059C84.0209 69.66 76.6245 69.6214 69.2358 69.6291C68.0765 69.6214 66.9172 69.6214 65.5492 69.6214ZM60.5178 31.0086C54.3966 31.0086 48.3991 31.0782 42.4016 30.97C40.3535 30.9313 38.8 31.4955 37.2466 32.879C27.6552 41.427 17.9556 49.8667 8.3179 58.3684C7.08903 59.4504 5.1955 60.3314 5.89108 62.4646C6.6485 64.7909 8.75844 64.2886 10.5283 64.2886C36.7751 64.304 63.0142 64.2963 89.2609 64.2963C90.1188 64.2963 90.9922 64.3736 91.8269 64.2267C93.9832 63.8403 94.7483 61.8694 93.4499 60.1382C93.133 59.7131 92.708 59.3731 92.3061 59.0176C81.7718 49.7508 71.2453 40.4686 60.5178 31.0086ZM59.7372 69.8687C53.2064 69.8687 46.6602 69.8687 40.1603 69.8687C39.256 74.4519 40.825 78.3549 44.4266 80.6116C48.1518 82.9457 51.9157 82.8916 55.5946 80.5034C59.1962 78.1539 60.6646 74.3514 59.7372 69.8687ZM41.0104 25.5444C47.0698 25.5444 52.7968 25.5444 58.8406 25.5444C58.8406 23.9291 58.9179 22.4529 58.8175 20.9922C58.6861 19.0832 57.9132 18.2253 56.0119 18.1866C51.9466 18.0939 47.8736 18.0939 43.8083 18.1866C41.9224 18.233 41.1573 19.0986 41.0259 21.0154C40.9332 22.3988 41.0104 23.79 41.0104 25.5444Z" fill="white"/>
<path d="M52.565 104.292C52.565 106.317 52.6346 108.342 52.5419 110.367C52.4568 112.268 51.4212 113.343 49.9064 113.335C48.3838 113.327 47.325 112.253 47.294 110.344C47.2168 106.294 47.2168 102.244 47.294 98.1944C47.3327 96.2931 48.3993 95.2266 49.9218 95.2266C51.4444 95.2343 52.4646 96.3086 52.5419 98.2098C52.6346 100.235 52.565 102.267 52.565 104.292Z" fill="white"/>
<path d="M70.3166 86.416C71.244 86.9957 72.0401 87.3357 72.612 87.8922C75.4407 90.6436 78.2462 93.4183 80.9899 96.2624C82.497 97.8236 82.5048 99.2844 81.2372 100.428C80.0779 101.472 78.7718 101.41 77.3033 99.9877C74.3896 97.1744 71.5609 94.2684 68.6935 91.4011C67.7661 90.4736 67.426 89.2989 68.1061 88.2014C68.5467 87.4749 69.4818 87.0575 70.3166 86.416Z" fill="white"/>
<path d="M29.6028 86.5547C30.3525 87.1575 31.4423 87.6058 31.6664 88.3246C31.9369 89.1824 31.8055 90.5272 31.2722 91.2228C30.0588 92.8227 28.5053 94.1675 27.0755 95.605C25.4989 97.1894 23.9531 98.8279 22.2992 100.327C21.0085 101.494 19.6327 101.479 18.5739 100.52C17.3914 99.4539 17.3141 97.97 18.6435 96.5866C21.5186 93.5878 24.4864 90.6664 27.4697 87.7681C27.9566 87.2734 28.7063 87.0416 29.6028 86.5547Z" fill="white"/>
</svg>
