<svg width="155" height="96" viewBox="0 0 155 96" fill="none" xmlns="http://www.w3.org/2000/svg">
<path d="M64.1741 81.8155C63.5481 79.0254 62.8448 76.6759 62.5279 74.2723C62.0796 70.8716 62.9375 67.6565 64.6456 64.6809C68.9737 57.1377 73.0467 49.4398 77.6762 42.0898C83.295 33.1554 91.557 28.2863 102.246 28.0854C109.781 27.9462 117.325 28.2013 124.86 28.0235C138.169 27.7144 151.772 38.0245 154.152 52.8791C156.61 68.2284 148.27 81.6532 134.9 86.6614C133.068 87.3493 131.615 88.2381 130.255 89.6215C121.9 98.1309 108.614 97.3425 101.434 90.7886C99.6722 89.181 97.8327 88.6477 95.545 88.6554C84.5239 88.7173 73.5104 88.7482 62.4893 88.6477C54.8842 88.5781 48.8867 83.9796 46.6608 76.7068C45.1151 71.6754 46.1043 66.9841 48.7708 62.5555C54.2195 53.4897 59.6606 44.4162 65.0861 35.3349C68.1312 30.2339 71.2459 25.1639 74.121 19.9702C74.9943 18.3935 75.5199 16.4613 75.6358 14.6605C75.86 11.1285 74.0669 8.55484 70.8749 7.0632C67.7062 5.57928 64.1896 6.22849 61.6855 8.79443C60.6885 9.81463 59.8924 11.0667 59.1814 12.3187C45.9189 35.6131 32.6795 58.9307 19.4248 82.2329C18.2809 84.2423 17.0907 86.2286 15.8 88.4236C10.6526 88.4236 5.50531 88.4236 0.0488281 88.4236C0.0488281 86.3755 0.0488281 84.5747 0.0488281 82.3024C4.04458 82.3024 7.89349 82.3024 11.897 82.3024C14.0688 78.5231 16.0937 75.0374 18.0877 71.5286C30.044 50.491 42.0081 29.4533 53.9335 8.39254C57.0714 2.85104 61.6005 -0.0704242 68.1003 0.14598C77.5603 0.462858 84.3538 9.58276 81.6642 18.6718C81.0537 20.7276 80.0103 22.6907 78.9128 24.5456C70.7976 38.2718 62.6129 51.9517 54.4668 65.6547C51.5454 70.5702 51.7772 75.3466 55.0851 78.894C57.5429 81.4909 60.4489 82.7043 64.1741 81.8155ZM94.7567 81.6609C93.2342 75.0606 93.4738 68.8081 97.1604 63.1583C100.847 57.4932 106.072 54.1389 112.819 53.4047C118.36 52.8018 123.454 54.1389 127.936 57.5473C134.629 62.6328 137.072 69.5809 136.268 78.3221C137.752 77.5724 138.702 77.2633 139.444 76.6836C146.632 71.0494 149.863 60.6774 147.312 51.6116C144.746 42.4917 137.126 35.5049 127.843 34.7552C119.929 34.1138 111.945 34.1138 103.993 34.2142C95.1895 34.3224 87.8472 37.8158 83.1327 45.4518C78.4955 52.9641 74.1287 60.6542 70.0016 68.4525C66.4927 75.0992 70.8131 81.9624 78.3409 82.1324C82.6844 82.2329 87.028 82.1788 91.3793 82.1324C92.3531 82.1169 93.3192 81.8696 94.7567 81.6609ZM100.422 74.4809C100.383 82.7352 107.022 89.9307 115.021 89.6138C124.342 89.2505 129.899 83.0907 130.139 74.3959C130.355 66.5049 123.338 60.1982 115.354 59.8195C107.154 59.4331 99.7958 67.2159 100.422 74.4809Z" fill="black"/>
</svg>
