<svg width="156" height="97" viewBox="0 0 156 97" fill="none" xmlns="http://www.w3.org/2000/svg">
<path d="M64.8594 82.2042C64.2334 79.4141 63.5301 77.0646 63.2132 74.6609C62.7649 71.2603 63.6228 68.0451 65.3309 65.0696C69.659 57.5263 73.732 49.8285 78.3615 42.4785C83.9803 33.5441 92.2423 28.675 102.931 28.474C110.467 28.3349 118.01 28.59 125.545 28.4122C138.854 28.103 152.457 38.4132 154.837 53.2678C157.295 68.6171 148.956 82.0419 135.585 87.0501C133.753 87.738 132.3 88.6268 130.94 90.0102C122.585 98.5195 109.3 97.7312 102.12 91.1772C100.358 89.5697 98.5181 89.0364 96.2303 89.0441C85.2092 89.1059 74.1957 89.1369 63.1746 89.0364C55.5695 88.9668 49.572 84.3682 47.3461 77.0955C45.8004 72.0641 46.7896 67.3727 49.4561 62.9442C54.9048 53.8784 60.3459 44.8048 65.7714 35.7236C68.8166 30.6226 71.9312 25.5526 74.8063 20.3589C75.6796 18.7822 76.2052 16.85 76.3211 15.0492C76.5453 11.5172 74.7522 8.94351 71.5602 7.45187C68.3915 5.96795 64.8749 6.61717 62.3708 9.1831C61.3738 10.2033 60.5777 11.4554 59.8667 12.7074C46.6042 36.0018 33.3648 59.3194 20.1101 82.6215C18.9662 84.631 17.776 86.6173 16.4853 88.8122C11.3379 88.8122 6.19062 88.8122 0.734131 88.8122C0.734131 86.7641 0.734131 84.9633 0.734131 82.6911C4.72989 82.6911 8.5788 82.6911 12.5823 82.6911C14.7541 78.9117 16.779 75.4261 18.773 71.9172C30.7293 50.8796 42.6934 29.842 54.6189 8.78121C57.7567 3.23971 62.2858 0.318248 68.7856 0.534652C78.2456 0.85153 85.0391 9.97143 82.3495 19.0604C81.739 21.1163 80.6956 23.0794 79.5981 24.9343C71.4829 38.6605 63.2982 52.3404 55.1521 66.0434C52.2307 70.9589 52.4625 75.7352 55.7704 79.2827C58.2282 81.8796 61.1342 83.093 64.8594 82.2042ZM95.442 82.0496C93.9195 75.4493 94.1591 69.1967 97.8457 63.547C101.532 57.8819 106.757 54.5276 113.504 53.7934C119.046 53.1905 124.139 54.5276 128.621 57.936C135.315 63.0215 137.757 69.9696 136.953 78.7108C138.437 77.9611 139.388 77.652 140.13 77.0723C147.317 71.4381 150.548 61.0661 147.997 52.0003C145.431 42.8804 137.811 35.8936 128.529 35.1439C120.615 34.5024 112.631 34.5024 104.678 34.6029C95.8748 34.7111 88.5325 38.2045 83.818 45.8405C79.1808 53.3528 74.814 61.0429 70.6869 68.8412C67.178 75.4879 71.4984 82.351 79.0262 82.5211C83.3698 82.6215 87.7133 82.5674 92.0646 82.5211C93.0384 82.5056 94.0045 82.2583 95.442 82.0496ZM101.107 74.8696C101.069 83.1239 107.708 90.3194 115.707 90.0025C125.028 89.6392 130.585 83.4794 130.824 74.7846C131.041 66.8936 124.023 60.5869 116.039 60.2082C107.839 59.8218 100.481 67.6046 101.107 74.8696Z" fill="white"/>
</svg>
