<svg width="105" height="112" viewBox="0 0 105 112" fill="none" xmlns="http://www.w3.org/2000/svg">
<path d="M57.0965 75.1649C67.5028 83.049 68.2811 96.3956 60.2169 104.964C52.6356 113.014 39.6492 113.057 31.9886 105.08C24.4361 97.2244 23.8091 83.8345 35.0154 75.1001C35.0154 74.1488 35.0154 73.039 35.0154 71.9219C35.0154 52.3055 35.0082 32.6891 35.037 13.0799C35.037 11.5665 35.1379 9.9955 35.5487 8.55418C37.0044 3.35821 41.8833 0.129646 47.2018 0.670142C52.5779 1.21784 56.7577 5.60666 57.0748 11.0837C57.1253 11.9989 57.0965 12.9214 57.0965 13.8438C57.0965 33.1504 57.0965 52.4641 57.0965 71.7706C57.0965 72.8804 57.0965 73.9975 57.0965 75.1649ZM39.9159 64.5568C39.9159 68.1529 39.8222 71.4175 39.9519 74.6749C40.0384 76.8152 39.4042 78.2421 37.5449 79.5105C33.8119 82.0544 31.7292 85.7658 31.376 90.2916C30.8283 97.282 35.3541 103.681 42.0562 105.577C48.7007 107.451 55.6695 104.503 58.9846 98.4062C62.3429 92.2302 61.0889 84.4182 55.3813 80.2312C52.6139 78.1989 51.9437 76.0513 52.1671 73.0246C52.3184 70.9923 52.2104 68.9456 52.1887 66.9061C52.1815 66.1278 52.059 65.3567 51.9869 64.564C47.9368 64.5568 44.0885 64.5568 39.9159 64.5568ZM52.0806 20.2577C47.872 20.2649 43.9516 20.2073 40.0672 20.2937C40.0672 23.7385 40.0672 26.7653 40.0672 29.9002C44.1317 29.9002 48.0521 29.9002 52.0806 29.9002C52.0806 26.7004 52.0806 23.6737 52.0806 20.2577ZM40.0384 44.6521C44.2327 44.6521 48.0738 44.6521 52.0158 44.6521C52.0158 41.4019 52.0158 38.3031 52.0158 35.1898C47.9152 35.1898 43.9948 35.1898 40.0384 35.1898C40.0384 38.4184 40.0384 41.4452 40.0384 44.6521ZM40.0528 59.5049C44.211 59.5194 48.1314 59.5914 52.196 59.4545C52.196 57.588 52.2464 56.0602 52.1815 54.5396C52.1095 52.9541 52.5203 51.3182 51.8717 49.8553C47.872 49.8553 44.0236 49.8553 40.0528 49.8553C40.0528 53.0406 40.0528 56.0674 40.0528 59.5049ZM52.1383 15.2131C52.1383 13.6348 52.2752 12.2151 52.1095 10.8315C51.7347 7.72542 49.1115 5.51299 46.0127 5.53461C42.9138 5.54902 40.3267 7.78306 39.9807 10.9035C39.8294 12.28 39.9519 13.6925 39.9519 15.2131C44.0525 15.2131 47.8864 15.2131 52.1383 15.2131Z" fill="black"/>
<path d="M104.939 31.8097C104.939 32.8619 104.975 33.2727 104.932 33.6762C104.781 35.1176 103.909 36.0616 102.691 36.1625C101.351 36.2706 100.291 35.3338 100.082 33.7339C99.8659 32.1196 99.8155 30.4765 99.5416 28.8766C97.3292 16.02 86.5265 6.34876 73.5546 5.57765C73.0429 5.54883 72.5312 5.57766 72.0268 5.5128C70.3692 5.31101 69.418 4.40297 69.418 3.06974C69.418 1.62121 70.4918 0.59067 72.3295 0.662737C74.4626 0.749216 76.6246 0.922184 78.7145 1.34737C91.8738 4.01382 102.323 14.9751 104.428 28.1992C104.637 29.6117 104.824 31.0242 104.939 31.8097Z" fill="black"/>
<path d="M14.1202 23.9401C16.2894 23.9401 18.019 23.8897 19.7414 23.9546C21.6223 24.0194 22.6745 24.9274 22.6961 26.3544C22.7177 27.7813 21.6583 28.7542 19.8134 28.8262C18.0839 28.8983 16.347 28.8406 14.531 28.8406C13.8247 30.4621 14.2139 32.098 14.1562 33.6835C14.0625 36.2346 13.2338 37.4886 11.5619 37.3949C10.0124 37.3084 9.27013 36.1626 9.24131 33.7411C9.21969 32.2277 9.23409 30.7144 9.23409 28.8406C7.94411 28.8406 6.85591 28.8406 5.76771 28.8406C4.95337 28.8406 4.13184 28.8911 3.31749 28.819C1.68159 28.6749 0.694259 27.7524 0.679845 26.4192C0.665432 25.0788 1.63834 24.0627 3.25983 23.9762C5.09031 23.8825 6.928 23.9546 8.80171 23.9546C9.62327 22.5421 9.08279 21.0863 9.22692 19.7171C9.29178 19.1117 9.19088 18.4847 9.26295 17.8794C9.44311 16.2867 10.4592 15.321 11.8069 15.3859C13.032 15.4507 14.0193 16.3588 14.0986 17.8073C14.2067 19.7171 14.1202 21.6484 14.1202 23.9401Z" fill="black"/>
<path d="M72.7258 12.9071C83.5285 13.5124 92.0179 21.8865 92.6521 32.61C92.6881 33.2153 92.7098 33.8639 92.5296 34.4188C92.1909 35.4638 91.427 36.134 90.2739 36.1484C89.1136 36.17 88.3209 35.5286 87.975 34.4837C87.7588 33.8279 87.8165 33.0784 87.7444 32.3721C86.9661 24.5746 81.0134 18.6147 73.2375 17.8364C72.733 17.7859 72.2141 17.8436 71.7169 17.7571C70.2972 17.5121 69.4252 16.5608 69.418 15.3357C69.418 13.9953 70.4197 13.044 72.0124 12.9071C72.3006 12.8854 72.6105 12.9071 72.7258 12.9071Z" fill="black"/>
<path d="M11.6929 52.1396C8.83913 52.1396 5.9853 52.2189 3.13148 52.1108C1.54603 52.0532 0.594736 50.9001 0.681216 49.5524C0.760488 48.3273 1.67574 47.4769 3.12427 47.2751C3.22516 47.2607 3.32604 47.268 3.42693 47.268C8.93279 47.268 14.4315 47.2319 19.9373 47.2896C21.7318 47.3112 22.7911 48.4282 22.6975 49.8623C22.611 51.1739 21.6237 52.0964 19.9445 52.1396C17.1916 52.2117 14.4387 52.1612 11.6929 52.1612C11.6929 52.1468 11.6929 52.1468 11.6929 52.1396Z" fill="black"/>
<path d="M80.3867 33.1578C80.4228 34.7648 79.6588 35.8963 78.3761 36.1341C77.0789 36.3791 75.7889 35.5864 75.5871 33.9937C75.2556 31.4426 73.9512 30.2823 71.4577 29.9652C70.0236 29.7779 69.2813 28.5744 69.411 27.3709C69.548 26.0665 70.6722 25.1945 72.2361 25.1728C76.2646 25.1224 80.2931 29.0644 80.3867 33.1578Z" fill="black"/>
</svg>
