<svg width="105" height="111" viewBox="0 0 105 111" fill="none" xmlns="http://www.w3.org/2000/svg">
<path d="M56.7815 74.5536C67.1879 82.4376 67.9662 95.7843 59.902 104.353C52.3206 112.403 39.3343 112.446 31.6736 104.468C24.1211 96.613 23.4941 83.2232 34.7004 74.4887C34.7004 73.5375 34.7004 72.4276 34.7004 71.3106C34.7004 51.6942 34.6932 32.0778 34.7221 12.4686C34.7221 10.9552 34.8229 9.38418 35.2337 7.94285C36.6894 2.74688 41.5684 -0.481683 46.8868 0.0588136C52.263 0.606516 56.4428 4.99533 56.7599 10.4724C56.8103 11.3876 56.7815 12.3101 56.7815 13.2325C56.7815 32.539 56.7815 51.8528 56.7815 71.1593C56.7815 72.2691 56.7815 73.3861 56.7815 74.5536ZM39.6009 63.9455C39.6009 67.5416 39.5072 70.8062 39.6369 74.0635C39.7234 76.2039 39.0893 77.6308 37.23 78.8992C33.4969 81.4431 31.4142 85.1545 31.0611 89.6803C30.5134 96.6707 35.0392 103.07 41.7413 104.965C48.3858 106.839 55.3546 103.892 58.6696 97.7949C62.0279 91.6189 60.774 83.8069 55.0663 79.6198C52.299 77.5876 51.6288 75.44 51.8522 72.4132C52.0035 70.381 51.8954 68.3343 51.8738 66.2948C51.8666 65.5165 51.7441 64.7454 51.672 63.9527C47.6219 63.9455 43.7736 63.9455 39.6009 63.9455ZM51.7657 19.6464C47.557 19.6536 43.6366 19.5959 39.7523 19.6824C39.7523 23.1272 39.7523 26.154 39.7523 29.2888C43.8168 29.2888 47.7372 29.2888 51.7657 29.2888C51.7657 26.0891 51.7657 23.0623 51.7657 19.6464ZM39.7235 44.0408C43.9177 44.0408 47.7588 44.0408 51.7009 44.0408C51.7009 40.7906 51.7009 37.6918 51.7009 34.5785C47.6003 34.5785 43.6799 34.5785 39.7235 34.5785C39.7235 37.8071 39.7235 40.8338 39.7235 44.0408ZM39.7378 58.8936C43.8961 58.908 47.8165 58.9801 51.881 58.8432C51.881 56.9766 51.9315 55.4489 51.8666 53.9283C51.7945 52.3428 52.2053 50.7069 51.5567 49.244C47.557 49.244 43.7087 49.244 39.7378 49.244C39.7378 52.4293 39.7378 55.4561 39.7378 58.8936ZM51.8234 14.6018C51.8234 13.0235 51.9603 11.6038 51.7945 10.2201C51.4198 7.11409 48.7966 4.90166 45.6977 4.92328C42.5989 4.93769 40.0117 7.17173 39.6658 10.2922C39.5145 11.6687 39.6369 13.0812 39.6369 14.6018C43.7375 14.6018 47.5715 14.6018 51.8234 14.6018Z" fill="white"/>
<path d="M104.625 31.1984C104.625 32.2506 104.661 32.6613 104.617 33.0649C104.466 34.5062 103.594 35.4503 102.376 35.5512C101.036 35.6593 99.9764 34.7224 99.7674 33.1226C99.5512 31.5083 99.5008 29.8652 99.2269 28.2653C97.0145 15.4087 86.2118 5.73743 73.2399 4.96633C72.7282 4.9375 72.2165 4.96633 71.7121 4.90147C70.0545 4.69968 69.1033 3.79164 69.1033 2.45842C69.1033 1.00989 70.1771 -0.0206577 72.0148 0.0514085C74.1479 0.137888 76.3099 0.310855 78.3998 0.736046C91.5591 3.40249 102.009 14.3637 104.113 27.5879C104.322 29.0004 104.509 30.4129 104.625 31.1984Z" fill="white"/>
<path d="M13.8053 23.3288C15.9745 23.3288 17.704 23.2784 19.4264 23.3432C21.3073 23.4081 22.3595 24.3161 22.3811 25.743C22.4028 27.1699 21.3434 28.1428 19.4985 28.2149C17.7689 28.287 16.0321 28.2293 14.216 28.2293C13.5098 29.8508 13.8989 31.4867 13.8413 33.0722C13.7476 35.6233 12.9189 36.8773 11.2469 36.7836C9.6975 36.6971 8.95519 35.5512 8.92637 33.1298C8.90475 31.6164 8.91915 30.103 8.91915 28.2293C7.62917 28.2293 6.54097 28.2293 5.45277 28.2293C4.63843 28.2293 3.8169 28.2798 3.00255 28.2077C1.36665 28.0636 0.379317 27.1411 0.364904 25.8079C0.350491 24.4675 1.3234 23.4513 2.94488 23.3649C4.77536 23.2712 6.61305 23.3432 8.48677 23.3432C9.30833 21.9307 8.76785 20.475 8.91198 19.1057C8.97684 18.5004 8.87594 17.8734 8.94801 17.2681C9.12817 15.6754 10.1443 14.7097 11.4919 14.7746C12.717 14.8394 13.7043 15.7475 13.7836 17.196C13.8917 19.1057 13.8053 21.0371 13.8053 23.3288Z" fill="white"/>
<path d="M72.4111 12.2957C83.2138 12.9011 91.7032 21.2752 92.3374 31.9986C92.3734 32.604 92.3951 33.2526 92.2149 33.8075C91.8762 34.8525 91.1123 35.5227 89.9592 35.5371C88.799 35.5587 88.0062 34.9173 87.6603 33.8723C87.4441 33.2165 87.5018 32.4671 87.4297 31.7608C86.6514 23.9633 80.6987 18.0034 72.9228 17.2251C72.4183 17.1746 71.8994 17.2323 71.4022 17.1458C69.9825 16.9008 69.1105 15.9495 69.1033 14.7244C69.1033 13.384 70.105 12.4327 71.6977 12.2957C71.9859 12.2741 72.2958 12.2957 72.4111 12.2957Z" fill="white"/>
<path d="M11.3782 51.5283C8.52443 51.5283 5.67061 51.6076 2.81679 51.4995C1.23133 51.4418 0.280039 50.2888 0.366518 48.9411C0.445791 47.716 1.36104 46.8656 2.80957 46.6638C2.91046 46.6494 3.01134 46.6566 3.11224 46.6566C8.61809 46.6566 14.1168 46.6206 19.6226 46.6782C21.4171 46.6999 22.4765 47.8169 22.3828 49.251C22.2963 50.5626 21.309 51.485 19.6298 51.5283C16.8769 51.6004 14.124 51.5499 11.3782 51.5499C11.3782 51.5355 11.3782 51.5355 11.3782 51.5283Z" fill="white"/>
<path d="M80.0718 32.5459C80.1078 34.153 79.3439 35.2845 78.0611 35.5223C76.7639 35.7673 75.474 34.9746 75.2722 33.3819C74.9407 30.8308 73.6363 29.6705 71.1428 29.3534C69.7087 29.166 68.9664 27.9625 69.0961 26.759C69.233 25.4546 70.3573 24.5826 71.9211 24.561C75.9496 24.5106 79.9781 28.4526 80.0718 32.5459Z" fill="white"/>
</svg>
