<svg width="21" height="21" fill="none" xmlns="http://www.w3.org/2000/svg"><path fill-rule="evenodd" clip-rule="evenodd" d="M13.833 3.434C11.22.884 6.977.876 4.35 3.438a6.415 6.415 0 0 0-.003 9.225c2.608 2.55 6.856 2.558 9.48-.003a6.413 6.413 0 0 0 .006-9.226ZM3.29 2.365c3.199-3.12 8.38-3.126 11.59.007a7.903 7.903 0 0 1 .005 11.36c-3.195 3.12-8.381 3.128-11.588-.007a7.905 7.905 0 0 1-.007-11.36Z" fill="#7A7A7A"/><path fill-rule="evenodd" clip-rule="evenodd" d="M19.473 20.232 12.95 13.8l1.054-1.057 6.524 6.43-1.054 1.058Z" fill="#7A7A7A"/></svg>