<svg width="26" height="27" fill="none" xmlns="http://www.w3.org/2000/svg"><path fill-rule="evenodd" clip-rule="evenodd" d="M5.25 7.876c0-4.2 3.422-7.626 7.627-7.626 4.201 0 7.623 3.428 7.623 7.626a7.636 7.636 0 0 1-3.907 6.653c5.134 1.503 8.899 6.038 8.907 11.453v.768H.25v-.778c.013-5.41 3.777-9.94 8.909-11.442A7.634 7.634 0 0 1 5.25 7.876Zm7.627 7.624c-5.914 0-10.692 4.334-11.099 9.75h22.194c-.407-5.416-5.184-9.75-11.095-9.75Zm0-13.75c-3.376 0-6.127 2.754-6.127 6.126C6.75 11.246 9.5 14 12.877 14 16.25 14 19 11.246 19 7.876c0-3.37-2.751-6.126-6.123-6.126Z" fill="#000"/></svg>