<svg width="35" height="22" viewBox="0 0 35 22" fill="none" xmlns="http://www.w3.org/2000/svg">
<path d="M22.0545 2.30127H12.6658V19.13H22.0545V2.30127Z" fill="#C4C4C4"/>
<path d="M13.1973 10.7172C13.1973 7.26292 14.7916 4.25147 17.2716 2.30288C15.5001 0.885722 13.1973 0 10.7172 0C4.7829 0 0 4.7829 0 10.7172C0 16.6516 4.7829 21.4345 10.7172 21.4345C13.1973 21.4345 15.5001 20.5487 17.3602 19.1316C14.7916 17.183 13.1973 14.083 13.1973 10.7172Z" fill="#C4C4C4"/>
<path d="M34.6318 10.7176C34.6318 16.652 29.8489 21.4349 23.9145 21.4349C21.4345 21.4349 19.1316 20.5491 17.2716 19.132C19.7516 17.1834 21.3459 14.1719 21.3459 10.7176C21.3459 7.2633 19.7516 4.25185 17.2716 2.30326C19.1316 0.886103 21.4345 0.00038147 23.9145 0.00038147C29.8489 0.00038147 34.6318 4.78328 34.6318 10.7176Z" fill="#DEDBDB"/>
</svg>
