<svg width="35" height="22" viewBox="0 0 35 22" fill="none" xmlns="http://www.w3.org/2000/svg">
<path d="M22.0527 2.30078H12.6641V19.1295H22.0527V2.30078Z" fill="#7A7A7A"/>
<path d="M13.1973 10.7172C13.1973 7.26292 14.7916 4.25147 17.2716 2.30288C15.5001 0.885722 13.1973 0 10.7172 0C4.7829 0 0 4.7829 0 10.7172C0 16.6516 4.7829 21.4345 10.7172 21.4345C13.1973 21.4345 15.5001 20.5487 17.3602 19.1316C14.7916 17.183 13.1973 14.083 13.1973 10.7172Z" fill="#7A7A7A"/>
<path d="M34.6336 10.7172C34.6336 16.6516 29.8507 21.4345 23.9164 21.4345C21.4363 21.4345 19.1335 20.5487 17.2734 19.1316C19.7535 17.183 21.3478 14.1716 21.3478 10.7172C21.3478 7.26292 19.7535 4.25147 17.2734 2.30288C19.1335 0.885722 21.4363 0 23.9164 0C29.8507 0 34.6336 4.7829 34.6336 10.7172Z" fill="#C4C4C4"/>
</svg>
