<svg width="57" height="17" viewBox="0 0 57 17" fill="none" xmlns="http://www.w3.org/2000/svg">
<path d="M41.1281 7.76868V16.1585H46.042V11.1867H51.6111C53.9534 11.1712 55.9435 9.7496 56.697 7.76868H41.1281Z" fill="#C4C4C4"/>
<path d="M40.4729 0.855118C40.7595 4.28096 44.1829 6.99211 48.3597 6.99211C48.3761 6.99211 56.9017 6.99211 56.9017 6.99211C56.9672 6.68138 57 6.35511 57 6.02107C57 3.17785 54.584 0.878423 51.5947 0.855118H40.4729Z" fill="#C4C4C4"/>
<path d="M33.2003 6.90666V6.89889V6.90666C33.2576 6.81344 33.3477 6.75906 33.4624 6.75906C33.6262 6.75906 33.749 6.88336 33.7572 7.03095V16.0811H38.6711V0.855118H33.7572C33.1348 0.878423 32.4305 1.30568 32.1684 1.8417L28.2618 9.79649C28.2536 9.82756 28.2373 9.85863 28.2209 9.8897C28.1635 9.96739 28.0653 10.0218 27.9506 10.0218C27.7704 10.0218 27.623 9.88194 27.623 9.71103V0.855118H22.7091V16.0811H27.623C28.2373 16.05 28.9252 15.6227 29.1873 15.0945L33.2003 6.92997C33.1921 6.9222 33.2003 6.91443 33.2003 6.90666Z" fill="#C4C4C4"/>
<path d="M14.8557 7.1706L11.9811 16.0809H8.44304L5.57659 7.16283C5.55202 7.023 5.42098 6.91425 5.25718 6.91425C5.077 6.91425 4.93778 7.05408 4.93778 7.21721V16.0731H0.0238647V0.847168H4.24164H5.49469C6.39557 0.847168 7.34559 1.51525 7.60767 2.33092L9.99911 9.74969C10.122 10.1226 10.3103 10.1148 10.4332 9.74969L12.8246 2.33092C13.0867 1.50748 14.0367 0.847168 14.9376 0.847168H16.1906H20.4084V16.0731H15.4945V7.21721C15.4945 7.21721 15.4945 7.21721 15.4945 7.20944C15.4945 7.03854 15.3471 6.90648 15.1751 6.90648C15.0113 6.91425 14.8803 7.023 14.8557 7.1706Z" fill="#C4C4C4"/>
</svg>
