<svg width="57" height="16" viewBox="0 0 57 16" fill="none" xmlns="http://www.w3.org/2000/svg">
<path d="M41.1282 7.09277V15.4826H46.0421V10.5108H51.6112C53.9535 10.4953 55.9436 9.0737 56.6971 7.09277H41.1282Z" fill="#7A7A7A"/>
<path d="M40.4729 0.179199C40.7595 3.60504 44.1829 6.31619 48.3597 6.31619C48.3761 6.31619 56.9017 6.31619 56.9017 6.31619C56.9673 6.00546 57 5.67919 57 5.34515C57 2.50194 54.584 0.202504 51.5947 0.179199H40.4729Z" fill="#7A7A7A"/>
<path d="M33.2004 6.23074V6.22297V6.23074C33.2578 6.13752 33.3478 6.08314 33.4625 6.08314C33.6263 6.08314 33.7492 6.20744 33.7573 6.35504V15.4052H38.6713V0.179199H33.7573C33.1349 0.202504 32.4306 0.629763 32.1685 1.16578L28.2619 9.12057C28.2538 9.15164 28.2374 9.18271 28.221 9.21379C28.1637 9.29147 28.0654 9.34585 27.9507 9.34585C27.7706 9.34585 27.6231 9.20602 27.6231 9.03512V0.179199H22.7092V15.4052H27.6231C28.2374 15.3741 28.9253 14.9468 29.1874 14.4186L33.2004 6.25405C33.1922 6.24628 33.2004 6.23851 33.2004 6.23074Z" fill="#7A7A7A"/>
<path d="M14.8558 6.49482L11.9811 15.4051H8.4431L5.57665 6.48705C5.55208 6.34722 5.42104 6.23847 5.25724 6.23847C5.07707 6.23847 4.93784 6.3783 4.93784 6.54143V15.3973H0.0239258V0.171387H4.2417H5.49475C6.39563 0.171387 7.34566 0.839465 7.60773 1.65514L9.99917 9.07391C10.122 9.44679 10.3104 9.43902 10.4332 9.07391L12.8247 1.65514C13.0867 0.831697 14.0368 0.171387 14.9377 0.171387H16.1907H20.4085V15.3973H15.4946V6.54143C15.4946 6.54143 15.4946 6.54143 15.4946 6.53366C15.4946 6.36276 15.3471 6.2307 15.1752 6.2307C15.0114 6.23847 14.8803 6.34722 14.8558 6.49482Z" fill="#7A7A7A"/>
</svg>
