<svg width="79" height="21" viewBox="0 0 79 21" fill="none" xmlns="http://www.w3.org/2000/svg">
<path d="M13.2315 1.0138C12.2517 0.348888 10.9732 0.015625 9.39597 0.015625H3.28976C2.80624 0.015625 2.53911 0.254344 2.48837 0.731324L0.00778614 16.1028C-0.0179937 16.2538 0.0202677 16.3918 0.122221 16.5174C0.22359 16.6431 0.35109 16.7056 0.503786 16.7056H3.4042C3.91291 16.7056 4.19252 16.4675 4.24385 15.9899L4.93069 11.8459C4.95577 11.6451 5.04524 11.4818 5.19794 11.356C5.35052 11.2305 5.54136 11.1484 5.77035 11.1107C5.99933 11.0734 6.21525 11.0547 6.41916 11.0547C6.62248 11.0547 6.86407 11.0673 7.14438 11.0923C7.42399 11.1174 7.60223 11.1296 7.67864 11.1296C9.86655 11.1296 11.5839 10.521 12.8308 9.30255C14.0771 8.08454 14.7009 6.39565 14.7009 4.2352C14.7009 2.75348 14.2107 1.67975 13.2315 1.0138ZM10.0831 5.62928C9.95543 6.50851 9.62508 7.0859 9.09082 7.36228C8.55644 7.639 7.79319 7.77661 6.80107 7.77661L5.54159 7.81427L6.19052 3.78298C6.24115 3.50695 6.40644 3.36876 6.68652 3.36876H7.41186C8.42906 3.36876 9.16734 3.51351 9.62531 3.80186C10.083 4.09091 10.2357 4.7002 10.0831 5.62928ZM77.6711 0.015625H74.8473C74.5667 0.015625 74.4015 0.153814 74.3511 0.43019L71.8704 16.1029L71.8321 16.1782C71.8321 16.3044 71.883 16.4232 71.9851 16.5362C72.0862 16.6491 72.2141 16.7056 72.3665 16.7056H74.8855C75.3683 16.7056 75.6356 16.4675 75.687 15.9899L78.1677 0.580469V0.543043C78.1676 0.19147 78.0017 0.015625 77.6711 0.015625ZM43.5527 6.08104C43.5527 5.95575 43.5015 5.83622 43.4004 5.72337C43.2984 5.6104 43.1836 5.55363 43.0569 5.55363H40.1181C39.8377 5.55363 39.6088 5.67984 39.4312 5.9303L35.3858 11.8079L33.7066 6.15659C33.5789 5.75503 33.2993 5.55363 32.8671 5.55363H30.0044C29.8769 5.55363 29.7624 5.61028 29.6613 5.72337C29.5592 5.83622 29.5086 5.95587 29.5086 6.08104C29.5086 6.13171 29.7567 6.87229 30.2527 8.30391C30.7487 9.73589 31.283 11.2806 31.8555 12.9384C32.428 14.5958 32.7268 15.4754 32.7523 15.5753C30.6659 18.3885 29.623 19.8956 29.623 20.0962C29.623 20.423 29.7882 20.5861 30.1191 20.5861H33.0578C33.3375 20.5861 33.5664 20.4608 33.7448 20.2095L43.4766 6.34475C43.5274 6.29489 43.5527 6.20737 43.5527 6.08104ZM70.9163 5.55363H68.0156C67.6592 5.55363 67.4435 5.96819 67.3673 6.79709C66.705 5.79281 65.4973 5.28992 63.7414 5.28992C61.9096 5.28992 60.3508 5.96819 59.0664 7.32451C57.7814 8.68082 57.1392 10.2761 57.1392 12.1094C57.1392 13.5916 57.578 14.7719 58.4555 15.6507C59.3333 16.5304 60.5101 16.9693 61.9861 16.9693C62.7238 16.9693 63.4743 16.8184 64.2376 16.5172C65.0008 16.2159 65.5982 15.8142 66.0316 15.3117C66.0316 15.3369 66.0055 15.4497 65.955 15.6506C65.9038 15.8519 65.8787 16.0028 65.8787 16.1027C65.8787 16.505 66.0437 16.7054 66.375 16.7054H69.0085C69.4911 16.7054 69.7715 16.4673 69.8476 15.9897L71.4126 6.15647C71.4376 6.00573 71.3994 5.86777 71.298 5.74202C71.1958 5.61662 71.069 5.55363 70.9163 5.55363ZM65.9359 12.9758C65.2872 13.6038 64.5048 13.9176 63.589 13.9176C62.8508 13.9176 62.2535 13.717 61.7953 13.3148C61.3371 12.9136 61.1081 12.361 61.1081 11.6572C61.1081 10.7284 61.4262 9.94294 62.0623 9.30255C62.6977 8.66205 63.4872 8.3418 64.4285 8.3418C65.1404 8.3418 65.732 8.54908 66.2031 8.9633C66.6734 9.37786 66.9092 9.94939 66.9092 10.6779C66.9091 11.582 66.5847 12.3482 65.9359 12.9758ZM27.5623 5.55363H24.6617C24.305 5.55363 24.0892 5.96819 24.0128 6.79709C23.3259 5.79281 22.1172 5.28992 20.3872 5.28992C18.5553 5.28992 16.9967 5.96819 15.712 7.32451C14.427 8.68082 13.7849 10.2761 13.7849 12.1094C13.7849 13.5916 14.2238 14.7719 15.1016 15.6507C15.9794 16.5304 17.1558 16.9693 18.6317 16.9693C19.3437 16.9693 20.082 16.8184 20.8452 16.5172C21.6084 16.2159 22.2191 15.8142 22.677 15.3117C22.575 15.613 22.5243 15.8768 22.5243 16.1027C22.5243 16.505 22.6896 16.7054 23.0205 16.7054H25.6537C26.1368 16.7054 26.417 16.4673 26.4934 15.9897L28.058 6.15647C28.0831 6.00573 28.0451 5.86777 27.9436 5.74202C27.8418 5.61662 27.7146 5.55363 27.5623 5.55363ZM22.5817 12.9945C21.9328 13.6106 21.1374 13.9176 20.1966 13.9176C19.4583 13.9176 18.8668 13.717 18.4218 13.3148C17.9764 12.9136 17.7539 12.361 17.7539 11.6572C17.7539 10.7284 18.0718 9.94294 18.7081 9.30255C19.3437 8.66205 20.1325 8.3418 21.0743 8.3418C21.7863 8.3418 22.3778 8.54908 22.849 8.9633C23.3193 9.37786 23.555 9.94939 23.555 10.6779C23.555 11.6072 23.2306 12.3798 22.5817 12.9945ZM56.5856 1.0138C55.606 0.348888 54.3278 0.015625 52.7503 0.015625H46.6824C46.1732 0.015625 45.8932 0.254344 45.8426 0.731324L43.3622 16.1028C43.3364 16.2538 43.3744 16.3918 43.4765 16.5174C43.5776 16.6431 43.7055 16.7056 43.8581 16.7056H46.9873C47.2926 16.7056 47.4961 16.5426 47.5979 16.216L48.2851 11.8459C48.3102 11.6451 48.3994 11.4818 48.5521 11.356C48.7048 11.2305 48.8954 11.1484 49.1246 11.1107C49.3536 11.0734 49.5694 11.0547 49.7736 11.0547C49.9768 11.0547 50.2185 11.0673 50.4983 11.0923C50.7783 11.1174 50.9567 11.1296 51.0326 11.1296C53.2209 11.1296 54.938 10.521 56.1848 9.30255C57.4315 8.08454 58.0547 6.39565 58.0547 4.2352C58.0548 2.75348 57.5648 1.67975 56.5856 1.0138ZM52.674 7.21154C52.1142 7.58822 51.2744 7.7765 50.1552 7.7765L48.9338 7.81415L49.5828 3.78286C49.6332 3.50683 49.7984 3.36864 50.0788 3.36864H50.7656C51.3251 3.36864 51.7703 3.39375 52.1016 3.44384C52.4319 3.49439 52.7503 3.65101 53.0555 3.91472C53.361 4.17843 53.5135 4.56167 53.5135 5.06386C53.5135 6.11893 53.2333 6.83452 52.674 7.21154Z" fill="#7A7A7A"/>
</svg>
