<svg width="79" height="21" viewBox="0 0 79 21" fill="none" xmlns="http://www.w3.org/2000/svg">
<path d="M13.2315 1.01332C12.2517 0.3484 10.9732 0.0151367 9.39597 0.0151367H3.28976C2.80624 0.0151367 2.53911 0.253856 2.48837 0.730835L0.00778614 16.1023C-0.0179937 16.2533 0.0202677 16.3913 0.122221 16.5169C0.22359 16.6426 0.35109 16.7051 0.503786 16.7051H3.4042C3.91291 16.7051 4.19252 16.467 4.24385 15.9894L4.93069 11.8454C4.95577 11.6446 5.04524 11.4813 5.19794 11.3555C5.35052 11.23 5.54136 11.1479 5.77035 11.1103C5.99933 11.0729 6.21525 11.0542 6.41916 11.0542C6.62248 11.0542 6.86407 11.0668 7.14438 11.0918C7.42399 11.1169 7.60223 11.1291 7.67864 11.1291C9.86655 11.1291 11.5839 10.5205 12.8308 9.30206C14.0771 8.08405 14.7009 6.39516 14.7009 4.23471C14.7009 2.75299 14.2107 1.67927 13.2315 1.01332ZM10.0831 5.6288C9.95543 6.50802 9.62508 7.08541 9.09082 7.36179C8.55644 7.63851 7.79319 7.77612 6.80107 7.77612L5.54159 7.81378L6.19052 3.78249C6.24115 3.50646 6.40644 3.36827 6.68652 3.36827H7.41186C8.42906 3.36827 9.16734 3.51302 9.62531 3.80137C10.083 4.09042 10.2357 4.69971 10.0831 5.6288ZM77.6711 0.0151367H74.8473C74.5667 0.0151367 74.4015 0.153325 74.3511 0.429702L71.8704 16.1024L71.8321 16.1777C71.8321 16.3039 71.883 16.4227 71.9851 16.5357C72.0862 16.6486 72.2141 16.7051 72.3665 16.7051H74.8855C75.3683 16.7051 75.6356 16.467 75.687 15.9894L78.1677 0.57998V0.542555C78.1676 0.190981 78.0017 0.0151367 77.6711 0.0151367ZM43.5527 6.08056C43.5527 5.95527 43.5015 5.83573 43.4004 5.72288C43.2984 5.60991 43.1836 5.55314 43.0569 5.55314H40.1181C39.8377 5.55314 39.6088 5.67935 39.4312 5.92982L35.3858 11.8074L33.7066 6.1561C33.5789 5.75455 33.2993 5.55314 32.8671 5.55314H30.0044C29.8769 5.55314 29.7624 5.6098 29.6613 5.72288C29.5592 5.83573 29.5086 5.95538 29.5086 6.08056C29.5086 6.13123 29.7567 6.8718 30.2527 8.30343C30.7487 9.7354 31.283 11.2801 31.8555 12.9379C32.428 14.5954 32.7268 15.4749 32.7523 15.5748C30.6659 18.388 29.623 19.8951 29.623 20.0957C29.623 20.4225 29.7882 20.5856 30.1191 20.5856H33.0578C33.3375 20.5856 33.5664 20.4603 33.7448 20.209L43.4766 6.34426C43.5274 6.2944 43.5527 6.20688 43.5527 6.08056ZM70.9163 5.55314H68.0156C67.6592 5.55314 67.4435 5.9677 67.3673 6.7966C66.705 5.79232 65.4973 5.28943 63.7414 5.28943C61.9096 5.28943 60.3508 5.9677 59.0664 7.32402C57.7814 8.68034 57.1392 10.2756 57.1392 12.1089C57.1392 13.5911 57.578 14.7714 58.4555 15.6502C59.3333 16.5299 60.5101 16.9689 61.9861 16.9689C62.7238 16.9689 63.4743 16.8179 64.2376 16.5167C65.0008 16.2154 65.5982 15.8137 66.0316 15.3112C66.0316 15.3364 66.0055 15.4492 65.955 15.6501C65.9038 15.8514 65.8787 16.0023 65.8787 16.1022C65.8787 16.5045 66.0437 16.7049 66.375 16.7049H69.0085C69.4911 16.7049 69.7715 16.4668 69.8476 15.9892L71.4126 6.15598C71.4376 6.00524 71.3994 5.86729 71.298 5.74154C71.1958 5.61613 71.069 5.55314 70.9163 5.55314ZM65.9359 12.9753C65.2872 13.6033 64.5048 13.9171 63.589 13.9171C62.8508 13.9171 62.2535 13.7165 61.7953 13.3144C61.3371 12.9131 61.1081 12.3605 61.1081 11.6567C61.1081 10.7279 61.4262 9.94245 62.0623 9.30206C62.6977 8.66156 63.4872 8.34131 64.4285 8.34131C65.1404 8.34131 65.732 8.54859 66.2031 8.96281C66.6734 9.37738 66.9092 9.9489 66.9092 10.6774C66.9091 11.5815 66.5847 12.3477 65.9359 12.9753ZM27.5623 5.55314H24.6617C24.305 5.55314 24.0892 5.9677 24.0128 6.7966C23.3259 5.79232 22.1172 5.28943 20.3872 5.28943C18.5553 5.28943 16.9967 5.9677 15.712 7.32402C14.427 8.68034 13.7849 10.2756 13.7849 12.1089C13.7849 13.5911 14.2238 14.7714 15.1016 15.6502C15.9794 16.5299 17.1558 16.9689 18.6317 16.9689C19.3437 16.9689 20.082 16.8179 20.8452 16.5167C21.6084 16.2154 22.2191 15.8137 22.677 15.3112C22.575 15.6125 22.5243 15.8764 22.5243 16.1022C22.5243 16.5045 22.6896 16.7049 23.0205 16.7049H25.6537C26.1368 16.7049 26.417 16.4668 26.4934 15.9892L28.058 6.15598C28.0831 6.00524 28.0451 5.86729 27.9436 5.74154C27.8418 5.61613 27.7146 5.55314 27.5623 5.55314ZM22.5817 12.994C21.9328 13.6101 21.1374 13.9171 20.1966 13.9171C19.4583 13.9171 18.8668 13.7165 18.4218 13.3144C17.9764 12.9131 17.7539 12.3605 17.7539 11.6567C17.7539 10.7279 18.0718 9.94245 18.7081 9.30206C19.3437 8.66156 20.1325 8.34131 21.0743 8.34131C21.7863 8.34131 22.3778 8.54859 22.849 8.96281C23.3193 9.37738 23.555 9.9489 23.555 10.6774C23.555 11.6067 23.2306 12.3793 22.5817 12.994ZM56.5856 1.01332C55.606 0.3484 54.3278 0.0151367 52.7503 0.0151367H46.6824C46.1732 0.0151367 45.8932 0.253856 45.8426 0.730835L43.3622 16.1023C43.3364 16.2533 43.3744 16.3913 43.4765 16.5169C43.5776 16.6426 43.7055 16.7051 43.8581 16.7051H46.9873C47.2926 16.7051 47.4961 16.5421 47.5979 16.2155L48.2851 11.8454C48.3102 11.6446 48.3994 11.4813 48.5521 11.3555C48.7048 11.23 48.8954 11.1479 49.1246 11.1103C49.3536 11.0729 49.5694 11.0542 49.7736 11.0542C49.9768 11.0542 50.2185 11.0668 50.4983 11.0918C50.7783 11.1169 50.9567 11.1291 51.0326 11.1291C53.2209 11.1291 54.938 10.5205 56.1848 9.30206C57.4315 8.08405 58.0547 6.39516 58.0547 4.23471C58.0548 2.75299 57.5648 1.67927 56.5856 1.01332ZM52.674 7.21105C52.1142 7.58773 51.2744 7.77601 50.1552 7.77601L48.9338 7.81367L49.5828 3.78237C49.6332 3.50634 49.7984 3.36816 50.0788 3.36816H50.7656C51.3251 3.36816 51.7703 3.39326 52.1016 3.44335C52.4319 3.49391 52.7503 3.65052 53.0555 3.91423C53.361 4.17794 53.5135 4.56118 53.5135 5.06338C53.5135 6.11844 53.2333 6.83403 52.674 7.21105Z" fill="#C4C4C4"/>
</svg>
