<svg width="57" height="20" viewBox="0 0 57 20" fill="none" xmlns="http://www.w3.org/2000/svg">
<path d="M24.7025 18.7971H20.0555L22.9905 1.06511H27.6375L24.7025 18.7971ZM16.1423 0.942822L11.7398 13.1718L11.2507 10.4814L9.66089 2.53259C9.66089 2.53259 9.41632 0.942822 7.45968 0.942822H0.122293L0 1.1874C0 1.1874 2.20122 1.67656 4.89159 3.26633L8.92716 18.6748H13.6965L21.0338 0.942822H16.1423ZM52.5846 18.7971H56.8647L53.196 1.06511H49.5274C47.8153 1.06511 47.4484 2.4103 47.4484 2.4103L40.6002 18.9194H45.3695L46.3478 16.229H52.2177L52.5846 18.7971ZM47.5707 12.4381L50.0165 5.83441L51.3617 12.4381H47.5707ZM40.7225 5.22296L41.4562 1.43198C41.4562 1.43198 39.3773 0.698242 37.2984 0.698242C34.9749 0.698242 29.5941 1.67656 29.5941 6.56815C29.5941 11.2152 35.9532 11.2152 35.9532 13.661C35.9532 16.1068 30.2056 15.6176 28.3712 14.1501L27.6375 18.1857C27.6375 18.1857 29.7164 19.164 32.896 19.164C36.0755 19.164 40.8448 17.5742 40.8448 13.0495C40.8448 8.4025 34.3634 8.03563 34.3634 5.9567C34.2411 3.87777 38.7659 4.12236 40.7225 5.22296Z" fill="#C4C4C4"/>
</svg>
