<svg width="61" height="60" viewBox="0 0 61 60" fill="none" xmlns="http://www.w3.org/2000/svg">
<path fill-rule="evenodd" clip-rule="evenodd" d="M30.3691 59C46.3854 59 59.3691 46.0163 59.3691 30C59.3691 13.9837 46.3854 1 30.3691 1C14.3529 1 1.36914 13.9837 1.36914 30C1.36914 46.0163 14.3529 59 30.3691 59ZM30.3691 60C46.9377 60 60.3691 46.5685 60.3691 30C60.3691 13.4315 46.9377 0 30.3691 0C13.8006 0 0.369141 13.4315 0.369141 30C0.369141 46.5685 13.8006 60 30.3691 60Z" fill="#DEDBDB"/>
<path fill-rule="evenodd" clip-rule="evenodd" d="M45.4132 29.5029L37.6737 22.2576L38.3571 21.5276L47.4106 30.0029L38.3571 38.4781L37.6737 37.748L45.4132 30.5029H14.0527V29.5029H45.4132Z" fill="#DEDBDB"/>
</svg>
