<svg width="61" height="60" viewBox="0 0 61 60" fill="none" xmlns="http://www.w3.org/2000/svg">
<path fill-rule="evenodd" clip-rule="evenodd" d="M30.3691 1C14.3529 1 1.36915 13.9837 1.36915 30C1.36915 46.0163 14.3529 59 30.3691 59C46.3854 59 59.3691 46.0163 59.3691 30C59.3691 13.9837 46.3854 1 30.3691 1ZM30.3691 1.19201e-06C13.8006 -2.56454e-07 0.369149 13.4315 0.369147 30C0.369146 46.5685 13.8006 60 30.3691 60C46.9377 60 60.3691 46.5685 60.3691 30C60.3691 13.4315 46.9377 2.64048e-06 30.3691 1.19201e-06Z" fill="#DEDBDB"/>
<path fill-rule="evenodd" clip-rule="evenodd" d="M15.3251 30.4971L23.0646 37.7424L22.3812 38.4724L13.3277 29.9971L22.3812 21.5219L23.0646 22.252L15.3251 29.4971L46.6855 29.4971L46.6855 30.4971L15.3251 30.4971Z" fill="#DEDBDB"/>
</svg>
