<svg width="57" height="38" viewBox="0 0 57 38" fill="none" xmlns="http://www.w3.org/2000/svg">
<path fill-rule="evenodd" clip-rule="evenodd" d="M49.8679 1H7.00077C3.68706 1 1.00077 3.6863 1.00077 7.00001V30.4806C1.00077 33.7943 3.68706 36.4806 7.00077 36.4806H49.8679C53.1816 36.4806 55.8679 33.7943 55.8679 30.4806V7C55.8679 3.68629 53.1816 1 49.8679 1ZM7.00077 0C3.13478 0 0.000772221 3.13401 0.000772221 7.00001V30.4806C0.000772221 34.3466 3.13477 37.4806 7.00077 37.4806H49.8679C53.7339 37.4806 56.8679 34.3466 56.8679 30.4806V7C56.8679 3.13401 53.7339 0 49.8679 0H7.00077Z" fill="#DEDBDB"/>
<path fill-rule="evenodd" clip-rule="evenodd" d="M55.8671 8.63672H1V15.9731H55.8671V8.63672ZM0 7.63672V16.9731H56.8671V7.63672H0Z" fill="#DEDBDB"/>
</svg>
