<svg width="60" height="60" viewBox="0 0 60 60" fill="none" xmlns="http://www.w3.org/2000/svg">
<rect width="60" height="60" rx="20" fill="#C4C4C4"/>
<path d="M43.0992 26.0771H38.0404L35.7324 39.9253H46.1189C47.7758 39.9253 49.1189 38.5821 49.1189 36.9252V34.0307C49.1189 33.4798 48.9672 32.9395 48.6805 32.4691L45.6608 27.5156C45.1162 26.6222 44.1455 26.0771 43.0992 26.0771Z" fill="#C4C4C4" stroke="#404040" stroke-width="1.5"/>
<path d="M17.1133 18.5176H35.8863C37.6812 18.5176 39.1363 19.9727 39.1363 21.7676V40.0977H17.1133C15.3184 40.0977 13.8633 38.6427 13.8633 36.8477V21.7676C13.8633 19.9726 15.3184 18.5176 17.1133 18.5176Z" fill="#C4C4C4" stroke="#404040" stroke-width="1.5"/>
<circle cx="22.8074" cy="40.3865" r="3.23122" fill="#C4C4C4" stroke="#404040" stroke-width="1.5"/>
<circle cx="41.2713" cy="40.3865" r="3.23122" fill="#C4C4C4" stroke="#404040" stroke-width="1.5"/>
<path d="M25.7948 18.4214V18.4214C24.0383 21.4785 23.1162 24.9435 23.1208 28.4693L23.1212 28.7544" stroke="#404040" stroke-width="1.5" stroke-linecap="round" stroke-linejoin="round"/>
<path d="M26.4943 17.9641V17.9641C27.5559 21.5219 28.18 25.1957 28.3529 28.9044L28.4101 30.1294" stroke="#404040" stroke-width="1.5" stroke-linecap="round" stroke-linejoin="round"/>
<path d="M19.4033 14.5363C19.4033 12.6561 20.9275 11.1318 22.8078 11.1318C24.688 11.1318 26.2122 12.6561 26.2122 14.5363V17.9407H22.8077C20.9275 17.9407 19.4033 16.4165 19.4033 14.5363Z" fill="#C4C4C4" stroke="#404040" stroke-width="1.5"/>
<path d="M31.5361 15.1063C31.5361 13.5401 30.2665 12.2705 28.7004 12.2705C27.1342 12.2705 25.8646 13.5401 25.8646 15.1063V17.942H28.7004C30.2665 17.942 31.5361 16.6724 31.5361 15.1063Z" fill="#C4C4C4" stroke="#404040" stroke-width="1.5"/>
</svg>
