<svg width="60" height="60" viewBox="0 0 60 60" fill="none" xmlns="http://www.w3.org/2000/svg">
<rect width="60" height="60" rx="20" fill="#C4C4C4"/>
<path d="M43.6922 26.3906H38.6747L36.3809 40.1539H46.6853C48.3422 40.1539 49.6853 38.8107 49.6853 37.1539V34.3006C49.6853 33.7497 49.5336 33.2094 49.2469 32.739L46.2537 27.8291C45.7091 26.9357 44.7384 26.3906 43.6922 26.3906Z" fill="#C4C4C4" stroke="#404040" stroke-width="1.5"/>
<path d="M17.9014 18.8828H36.5103C38.3052 18.8828 39.7603 20.3379 39.7603 22.1328V40.3216H17.9014C16.1064 40.3216 14.6514 38.8665 14.6514 37.0716V22.1328C14.6514 20.3379 16.1064 18.8828 17.9014 18.8828Z" fill="#C4C4C4" stroke="#404040" stroke-width="1.5"/>
<circle cx="23.5356" cy="40.6128" r="3.21142" fill="#C4C4C4" stroke="#404040" stroke-width="1.5"/>
<circle cx="18.0312" cy="22.2616" r="8.71672" fill="#C4C4C4" stroke="#404040" stroke-width="1.5"/>
<circle cx="41.8872" cy="40.6128" r="3.21142" fill="#C4C4C4" stroke="#404040" stroke-width="1.5"/>
<path d="M18.7803 18.5908C18.7803 18.1766 18.4445 17.8408 18.0303 17.8408C17.6161 17.8408 17.2803 18.1766 17.2803 18.5908H18.7803ZM18.0303 22.7198H17.2803C17.2803 23.134 17.6161 23.4698 18.0303 23.4698V22.7198ZM22.1592 23.4698C22.5735 23.4698 22.9092 23.134 22.9092 22.7198C22.9092 22.3056 22.5735 21.9698 22.1592 21.9698V23.4698ZM17.2803 18.5908V22.7198H18.7803V18.5908H17.2803ZM18.0303 23.4698H22.1592V21.9698H18.0303V23.4698Z" fill="#404040"/>
</svg>
