<svg width="27" height="27" viewBox="0 0 27 27" fill="none" xmlns="http://www.w3.org/2000/svg">
<path d="M7 12.4998C7 16.0897 9.91015 18.9998 13.5 18.9998C17.0899 18.9998 20 16.0897 20 12.4998C20 10.5526 19.1437 8.80533 17.7872 7.61405C16.6429 6.60912 15.1426 6.99939 13.5 6.99939C11.8574 6.99939 10.3571 6.60912 9.21278 7.61405C7.85625 8.80533 7 10.5526 7 12.4998Z" fill="black"/>
<path d="M7 10.5C7 11.8807 8.11929 13 9.5 13C10.8807 13 12 11.8807 12 10.5C12 9.11929 10.8807 8 9.5 8C8.11929 8 7 9.11929 7 10.5Z" fill="#EEEFF3"/>
<path fill-rule="evenodd" clip-rule="evenodd" d="M0.794708 13.5271C6.92117 4.30012 20.4714 4.30012 26.5979 13.5271L25.7648 14.0802C20.0339 5.44908 7.35865 5.44908 1.62779 14.0802L0.794708 13.5271Z" fill="black"/>
</svg>
