<svg width="26" height="26" viewBox="0 0 26 26" fill="none" xmlns="http://www.w3.org/2000/svg">
<path d="M25.255 22.4489V2.80611C25.255 1.26275 23.9881 0 22.4419 0H2.81313C1.19961 0 0 1.19681 0 2.80611V22.4489C0 24.0596 1.19961 25.255 2.81313 25.255H22.4419C23.1864 25.2539 23.9003 24.9581 24.4274 24.4323C24.9545 23.9065 25.2521 23.1934 25.255 22.4489Z" fill="#3C3C3C"/>
<path d="M10.1688 16.8273V25.4532H14.6186V16.8273H17.9361L18.5677 12.7672H14.6186V10.1309C14.6186 9.02035 15.1703 7.93751 16.9394 7.93751H18.7348V4.48285C18.7348 4.48285 17.1053 4.20874 15.547 4.20874C12.2932 4.20874 10.1688 6.15298 10.1688 9.67277V12.7672H6.55151V16.8273H10.1688Z" fill="#EEEFF3"/>
</svg>
