<svg width="26" height="26" viewBox="0 0 26 26" fill="none" xmlns="http://www.w3.org/2000/svg">
<g clip-path="url(#clip0_1389_16608)">
<path d="M25.275 22.4489V2.80611C25.275 1.26275 24.0081 0 22.4619 0H2.83315C1.21963 0 0.0200195 1.19681 0.0200195 2.80611V22.4489C0.0200195 24.0596 1.21963 25.255 2.83315 25.255H22.4619C23.2064 25.2539 23.9203 24.9581 24.4474 24.4323C24.9745 23.9065 25.2721 23.1934 25.275 22.4489Z" fill="#3C3C3C"/>
<path d="M20.0328 11.7916C20.0268 11.2491 20.0248 10.7024 20.0228 10.1578H18.399C18.393 10.7004 18.389 11.245 18.3849 11.7916C17.8383 11.7937 17.2957 11.7977 16.7532 11.8037V13.4295C17.2957 13.4355 17.8424 13.4395 18.3849 13.4455C18.391 13.9881 18.391 14.5327 18.395 15.0753H20.0208C20.0228 14.5327 20.0268 13.9881 20.0308 13.4415C20.5774 13.4355 21.12 13.4335 21.6626 13.4274V11.8017C21.122 11.7977 20.5754 11.7977 20.0328 11.7916ZM9.382 11.7997C9.37999 12.4488 9.382 13.0999 9.38401 13.749C10.4732 13.7852 11.5644 13.7691 12.6536 13.7852C12.1733 16.2027 8.88764 16.9864 7.14935 15.4069C5.36081 14.0223 5.44522 10.9858 7.30409 9.69966C8.60429 8.66272 10.4511 8.91793 11.7513 9.81622C12.2617 9.34397 12.74 8.83755 13.2002 8.31506C12.1191 7.45294 10.7927 6.83801 9.382 6.90232C6.43594 6.80385 3.72903 9.38416 3.6808 12.3322C3.4919 14.7417 5.07545 17.103 7.31011 17.955C9.53674 18.8131 12.3924 18.2283 13.8151 16.2268C14.7536 14.9628 14.9566 13.335 14.8461 11.8057C13.0234 11.7916 11.2027 11.7937 9.382 11.7997Z" fill="#EEEFF3"/>
</g>
<defs>
<clipPath id="clip0_1389_16608">
<rect width="25.255" height="25.255" fill="white" transform="translate(0.0200195)"/>
</clipPath>
</defs>
</svg>
