<svg width="27" height="26" viewBox="0 0 27 26" fill="none" xmlns="http://www.w3.org/2000/svg">
<g clip-path="url(#clip0_1389_16607)">
<path d="M26.0202 22.4489V2.80611C26.0202 1.26275 24.7532 0 23.207 0H3.57827C1.96475 0 0.765137 1.19681 0.765137 2.80611V22.4489C0.765137 24.0596 1.96475 25.255 3.57827 25.255H23.207C23.9516 25.2539 24.6654 24.9581 25.1925 24.4323C25.7196 23.9065 26.0172 23.1934 26.0202 22.4489Z" fill="#3C3C3C"/>
<g clip-path="url(#clip1_1389_16607)">
<path d="M13.3818 12.8827C11.1797 12.8827 9.34954 11.1272 9.34954 9.04989C9.34954 6.90078 11.1797 5.14453 13.3825 5.14453C15.6602 5.14453 17.4148 6.90004 17.4148 9.04989C17.4109 10.0699 16.9852 11.0466 16.2315 11.7654C15.4777 12.4843 14.4575 12.8864 13.395 12.8834L13.3818 12.8827ZM13.3818 7.40214C12.4495 7.40214 11.7402 8.15418 11.7402 9.05064C11.7402 9.9456 12.4495 10.6266 13.3825 10.6266C14.353 10.6266 15.0249 9.9456 15.0249 9.05064C15.0257 8.15343 14.353 7.40214 13.3818 7.40214ZM14.9875 16.0719L17.2659 18.1859C17.7141 18.6505 17.7141 19.3315 17.2659 19.7618C16.7811 20.2265 16.0335 20.2265 15.6602 19.7618L13.3825 17.6119L11.1797 19.7618C10.956 19.9765 10.6567 20.0835 10.32 20.0835C10.0589 20.0835 9.76032 19.9758 9.49842 19.7618C9.05022 19.3315 9.05022 18.6505 9.49842 18.1851L11.8135 16.0712C10.9774 15.8335 10.1754 15.4969 9.42593 15.0692C8.86548 14.7826 8.75402 14.0665 9.05256 13.5285C9.42593 12.9912 10.0978 12.8482 10.6957 13.2067C11.5053 13.681 12.4353 13.9319 13.3837 13.9319C14.3321 13.9319 15.2622 13.681 16.0717 13.2067C16.6696 12.8482 17.3781 12.9912 17.7141 13.5285C18.0508 14.0665 17.9004 14.7818 17.3774 15.0692C16.6688 15.4995 15.8472 15.822 14.9883 16.0727L14.9875 16.0719Z" fill="#EEEFF3"/>
</g>
</g>
<defs>
<clipPath id="clip0_1389_16607">
<rect width="25.255" height="25.255" fill="white" transform="translate(0.765137)"/>
</clipPath>
<clipPath id="clip1_1389_16607">
<rect width="9.35371" height="14.9659" fill="white" transform="translate(8.71606 5.14453)"/>
</clipPath>
</defs>
</svg>
