<svg width="26" height="26" viewBox="0 0 26 26" fill="none" xmlns="http://www.w3.org/2000/svg">
<path d="M25.5101 22.4489V2.80611C25.5101 1.26275 24.2432 0 22.697 0H3.06826C1.45474 0 0.255127 1.19681 0.255127 2.80611V22.4489C0.255127 24.0596 1.45474 25.255 3.06826 25.255H22.697C23.4416 25.2539 24.1554 24.9581 24.6825 24.4323C25.2096 23.9065 25.5072 23.1934 25.5101 22.4489Z" fill="#3C3C3C"/>
<path d="M19.2083 9.64119C19.2083 9.50515 19.2083 9.36425 19.1983 9.22821C19.8344 8.77636 20.3909 8.21276 20.8332 7.57628C20.2468 7.82407 19.6108 8.00384 18.9549 8.07186C19.6307 7.67831 20.1425 7.05641 20.386 6.31791C19.7599 6.6823 19.0542 6.94952 18.3188 7.08556C17.7225 6.46366 16.8777 6.07983 15.9386 6.07983C13.9509 6.07983 12.2962 7.83379 12.7583 9.99587C10.0551 9.85983 7.64505 8.59659 6.04001 6.66287C5.75677 7.13415 5.59775 7.67832 5.59775 8.27106C5.59687 8.79599 5.72892 9.31296 5.9821 9.77585C6.23529 10.2387 6.60174 10.6331 7.04875 10.9239C6.51705 10.9044 6.01019 10.7587 5.57788 10.5206V10.5595C5.57788 12.1094 6.69594 13.392 8.18668 13.6884C7.66989 13.8196 7.2177 13.8196 6.71581 13.7467C7.12825 15.0099 8.33079 15.9282 9.76191 15.9574C8.64385 16.8125 7.24254 17.3178 5.71701 17.3178C5.44868 17.3178 5.19525 17.3081 4.93188 17.2789C6.37294 18.1826 8.0873 18.7073 9.93583 18.7073C15.9286 18.7073 19.2083 13.8536 19.2083 9.64119Z" fill="#EEEFF3"/>
</svg>
