<svg width="26" height="26" viewBox="0 0 26 26" fill="none" xmlns="http://www.w3.org/2000/svg">
<path d="M25.765 22.4489V2.80611C25.765 1.26275 24.4981 0 22.9519 0H3.32314C1.70962 0 0.51001 1.19681 0.51001 2.80611V22.4489C0.51001 24.0596 1.70962 25.255 3.32314 25.255H22.9519C23.6964 25.2539 24.4103 24.9581 24.9374 24.4323C25.4645 23.9065 25.7621 23.1934 25.765 22.4489Z" fill="#3C3C3C"/>
<path d="M21.4026 16.4171C21.067 15.8115 19.705 14.5056 19.705 14.5056C18.4514 13.3623 18.4514 13.2851 19.6353 11.7794L20.2164 11.0312C21.5217 9.31732 21.6036 8.75033 21.535 8.56444C21.4953 8.44871 21.2835 8.40311 20.9707 8.40311H18.1133C18.0439 8.40193 17.9752 8.4176 17.9136 8.44871C17.8384 8.50609 17.7776 8.57922 17.7355 8.66265C17.7079 8.7398 17.3048 9.77326 16.7815 10.6489C15.5916 12.6328 15.1525 12.6328 15.0057 12.6328C14.9414 12.6323 14.8785 12.6145 14.824 12.5814C14.4031 12.3126 14.4222 11.6572 14.439 11.0776L14.439 11.0768C14.439 10.9716 14.4426 10.8698 14.4426 10.7775C14.4426 10.3484 14.4571 9.98252 14.4703 9.65986C14.5172 8.52586 14.5064 8.19268 13.9782 8.06993C13.7171 8.00563 13.5295 7.96004 12.8064 7.95068H12.4358C11.7693 7.95068 11.0992 7.9764 10.7274 8.15644C10.6005 8.21838 10.4908 8.30898 10.4074 8.42065C10.6119 8.45923 10.95 8.56094 11.1497 8.82748C11.4264 9.19574 11.4276 9.96265 11.4276 10.0363C11.4517 10.4244 11.5527 12.3043 11.0101 12.5954C10.9426 12.6325 10.8664 12.6522 10.7888 12.6527C10.3737 12.6527 9.85274 12.0658 9.00695 10.6243C8.48721 9.73819 8.16959 8.95024 8.08537 8.755C8.01078 8.58315 7.9061 8.39142 7.58006 8.39142H5.14977C4.87907 8.39142 4.63003 8.54457 4.75034 8.82632C4.76718 8.86489 6.67532 13.2267 8.80002 15.4012C10.5313 17.177 12.4864 17.3044 12.8617 17.3044H13.9638C14.1683 17.3044 14.4571 17.101 14.4571 16.7444C14.4571 15.6046 14.8493 15.1779 15.1585 15.082C15.2072 15.0656 15.2585 15.0573 15.3101 15.0574C15.7164 15.0574 16.1203 15.5127 16.5867 16.0382L16.5878 16.0395C16.9006 16.3937 17.2218 16.7573 17.5467 16.9771C17.9702 17.2611 18.3191 17.3032 18.4875 17.3032H20.8925C21.0237 17.2939 21.4087 17.1863 21.5217 16.9724C21.5903 16.8438 21.5554 16.6684 21.4195 16.4463C21.4159 16.4416 21.4123 16.4299 21.4026 16.4171Z" fill="#EEEFF3"/>
</svg>
